<svg id="レイヤー_1" data-name="レイヤー 1" xmlns="http://www.w3.org/2000/svg" viewBox="0 0 389.67 54.47"><defs><style>.cls-1{fill:#f29600;}</style></defs><path class="cls-1" d="M8.17,22c2.22-3.76,6-6,11.19-6,8.45,0,14.27,7.44,14.27,18.7,0,13.46-7.83,19.76-15.47,19.76a11.7,11.7,0,0,1-10.92-6.3H7l-.41,5.56H0c.13-2.47.27-6.49.27-9.84V0H8V22ZM8,39.13c0,4.69,3.35,9.11,8.44,9.11,6,0,9.25-5.29,9.25-13.2,0-7-3-12.8-9.18-12.8C11.66,22.24,8,27,8,31.89Z"/><path class="cls-1" d="M67.13,45a49.92,49.92,0,0,0,.54,8.77h-7l-.54-4.28h-.2a12.51,12.51,0,0,1-10.32,5A10.42,10.42,0,0,1,38.73,43.68c0-9.17,8-13.73,20.63-13.73,0-2.75,0-8.24-7.43-8.24a17,17,0,0,0-9,2.54L41.34,19.1A23,23,0,0,1,53.27,16c10.85,0,13.86,7.17,13.86,15Zm-7.57-9.78c-6.09,0-13.13,1.13-13.13,7.7,0,4.09,2.55,5.9,5.43,5.9a7.54,7.54,0,0,0,7.7-7.51Z"/><path class="cls-1" d="M106.93,43.15c0,4.15.2,7.64.34,10.58h-6.84l-.4-5.36h-.2a12.85,12.85,0,0,1-11.12,6.1c-6.37,0-11.93-3.95-11.93-15.74v-22h7.77v20.7c0,6.37,1.81,10.59,6.91,10.59,3.55,0,7.7-2.81,7.7-8.38V16.82h7.77Z"/><path class="cls-1" d="M147.73,43.89c0,3.35.14,7.3.27,9.84h-6.83l-.4-5.76h-.2a12.3,12.3,0,0,1-11.19,6.5c-8.38,0-14.74-7.44-14.74-18.83,0-12.52,7.17-19.63,15.41-19.63,4.75,0,8.17,2.15,9.78,5H140V0h7.77ZM140,31.76c0-6-3.82-9.58-8.17-9.58-6,0-9.25,5.89-9.25,13.2s3.22,12.79,9.11,12.79c5,0,8.31-4.42,8.31-9.58Z"/><path class="cls-1" d="M176.21,23.65a11.86,11.86,0,0,0-2.28-.2c-5.23,0-8.51,4.29-8.51,10.72V53.73h-7.77V28.07c0-4.28-.07-7.84-.27-11.25h6.77l.27,6.76h.26c1.68-4.69,5.57-7.57,9.59-7.57a9.38,9.38,0,0,1,1.94.2Z"/><path class="cls-1" d="M214.06,35c0,13.81-9,19.5-17.28,19.5-9.58,0-16.89-7-16.89-19,0-12.46,7.64-19.5,17.42-19.5C207.43,16,214.06,23.65,214.06,35ZM197,21.84c-6.63,0-9.17,7.1-9.17,13.47,0,7.24,3.41,13.33,9.11,13.33s9.11-6.09,9.11-13.46C206.09,29.08,203.54,21.84,197,21.84Z"/><path class="cls-1" d="M225.65,11.12a4.37,4.37,0,0,1-4.49-4.49,4.4,4.4,0,0,1,4.56-4.55,4.34,4.34,0,0,1,4.49,4.55A4.34,4.34,0,0,1,225.65,11.12Zm3.89,42.61h-7.77v-37h7.77Z"/><path class="cls-1" d="M266.52,52.26a28.78,28.78,0,0,1-11.72,2.21c-11.12,0-17.56-7.44-17.56-18.69,0-11,6.17-19.77,16.62-19.77s14.54,8.65,14.54,17.76a23.92,23.92,0,0,1-.2,3.28H244.75c.2,8.31,5.36,11.46,11.19,11.46a23.12,23.12,0,0,0,9.31-1.74ZM261,31.49c.07-4.42-1.74-9.92-7.71-9.92-5.69,0-8.1,5.63-8.51,9.92Z"/><path class="cls-1" d="M294.8,11.12a4.37,4.37,0,0,1-4.49-4.49,4.39,4.39,0,0,1,4.55-4.55,4.34,4.34,0,0,1,4.49,4.55A4.34,4.34,0,0,1,294.8,11.12Zm3.88,42.61h-7.77v-37h7.77Z"/><path class="cls-1" d="M339.15,53.73h-7.77V32.09c0-5.22-1.74-9.64-7-9.64-3.82,0-7.9,3.14-7.9,9V53.73h-7.77V27.2c0-4.08-.14-7.23-.27-10.38h6.76l.41,5.49h.2A12.66,12.66,0,0,1,327,16c5.76,0,12.19,3.76,12.19,15.15Z"/><path class="cls-1" d="M373.79,52.6a24,24,0,0,1-9.51,1.87c-10.66,0-17.63-7.3-17.63-18.83,0-11.18,7.24-19.63,19.1-19.63A19.71,19.71,0,0,1,374,17.69l-1.54,6a14.44,14.44,0,0,0-6.63-1.47c-7.24,0-11.26,5.89-11.26,13.13,0,8.11,4.76,12.93,11.19,12.93a17,17,0,0,0,7-1.47Z"/><path class="cls-1" d="M379.69,49.18a5.06,5.06,0,0,1,5-5.36c3,0,5,2.21,5,5.36s-1.94,5.29-5,5.29S379.69,52.13,379.69,49.18Z"/></svg>