<svg xmlns="http://www.w3.org/2000/svg" xmlns:xlink="http://www.w3.org/1999/xlink" width="60" zoomAndPan="magnify" viewBox="0 0 45 44.999999" height="60" preserveAspectRatio="xMidYMid meet" version="1.0"><defs><g/><clipPath id="68c280fb45"><rect x="0" width="10" y="0" height="27"/></clipPath><clipPath id="fdf1f88924"><path d="M 1 6 L 8.800781 6 L 8.800781 22 L 1 22 Z M 1 6 " clip-rule="nonzero"/></clipPath><clipPath id="f24abeea6a"><rect x="0" width="9" y="0" height="30"/></clipPath></defs><path fill="#f29b10" d="M 34.210938 23.15625 C 33.910156 20.570312 32.832031 18.203125 30.726562 16.589844 C 29.601562 15.78125 28.378906 15.171875 27.050781 14.765625 C 25.503906 14.21875 23.910156 13.847656 22.28125 13.652344 C 19.195312 13.328125 16.320312 14.253906 13.832031 16.066406 C 12.664062 16.914062 11.589844 17.875 10.617188 18.941406 C 9.597656 20.0625 8.957031 21.371094 8.695312 22.859375 C 8.359375 24.476562 7.964844 26.121094 7.964844 27.78125 C 7.972656 29.285156 8.3125 30.710938 8.984375 32.058594 C 9.472656 33.066406 10.125 33.957031 10.941406 34.722656 C 11.816406 35.480469 12.773438 36.125 13.804688 36.65625 C 14.484375 37.046875 15.1875 37.398438 15.910156 37.703125 C 16.519531 37.953125 17.15625 38.117188 17.757812 38.382812 C 18.699219 38.726562 19.671875 38.898438 20.675781 38.90625 C 21.664062 38.96875 22.652344 38.941406 23.636719 38.824219 C 24.90625 38.609375 26.121094 38.222656 27.285156 37.671875 C 28.484375 37.195312 29.621094 36.597656 30.699219 35.882812 C 31.828125 35.085938 32.648438 34.042969 33.152344 32.753906 C 34.203125 30.097656 34.601562 27.351562 34.351562 24.507812 C 34.304688 24.054688 34.246094 23.605469 34.210938 23.15625 Z M 13.972656 22.503906 C 14.613281 21.410156 15.621094 20.078125 17.039062 20.09375 C 17.113281 20.09375 17.179688 20.121094 17.230469 20.171875 C 17.285156 20.226562 17.3125 20.289062 17.3125 20.367188 C 17.3125 20.441406 17.285156 20.507812 17.230469 20.558594 C 17.179688 20.613281 17.113281 20.640625 17.039062 20.640625 C 15.765625 20.640625 14.878906 21.976562 14.34375 22.96875 C 13.714844 24.128906 13.390625 25.375 13.367188 26.695312 C 13.367188 26.769531 13.339844 26.835938 13.285156 26.886719 C 13.230469 26.941406 13.167969 26.96875 13.09375 26.96875 C 13.015625 26.96875 12.953125 26.941406 12.898438 26.886719 C 12.84375 26.835938 12.820312 26.769531 12.820312 26.695312 C 12.847656 25.199219 13.230469 23.804688 13.972656 22.503906 Z M 21.117188 36.367188 C 19.765625 36.523438 18.441406 36.402344 17.144531 36.003906 C 15.996094 35.671875 14.945312 35.140625 13.996094 34.417969 C 13.042969 33.691406 12.257812 32.816406 11.632812 31.796875 C 10.925781 30.570312 10.765625 29.203125 10.789062 27.8125 C 10.820312 26.367188 11.039062 24.949219 11.449219 23.566406 C 11.46875 23.488281 11.511719 23.429688 11.578125 23.390625 C 11.648438 23.351562 11.71875 23.34375 11.796875 23.363281 C 11.871094 23.382812 11.929688 23.425781 11.96875 23.496094 C 12.007812 23.5625 12.019531 23.636719 12 23.710938 C 11.5 25.378906 11.292969 27.082031 11.378906 28.816406 C 11.425781 29.644531 11.625 30.429688 11.972656 31.179688 C 12.320312 31.929688 12.796875 32.589844 13.394531 33.15625 C 14.414062 34.164062 15.597656 34.902344 16.953125 35.367188 C 18.304688 35.835938 19.695312 35.984375 21.117188 35.820312 C 21.453125 35.777344 21.449219 36.324219 21.117188 36.367188 Z M 30.601562 30.207031 C 30.398438 30.492188 29.925781 30.207031 30.125 29.929688 C 31.046875 28.605469 31.949219 27.042969 31.761719 25.367188 C 31.597656 23.769531 30.476562 22.472656 29.46875 21.3125 C 29.238281 21.042969 29.621094 20.65625 29.855469 20.925781 C 30.933594 22.164062 32.078125 23.519531 32.289062 25.214844 C 32.496094 27.042969 31.589844 28.753906 30.578125 30.207031 Z M 34.207031 17.179688 C 33.75 16.476562 33.246094 15.808594 32.699219 15.171875 C 31.46875 13.820312 29.996094 12.832031 28.277344 12.210938 C 26.609375 11.523438 24.871094 11.160156 23.066406 11.117188 C 22.164062 11.132812 21.265625 11.21875 20.371094 11.378906 C 19.359375 11.507812 18.367188 11.726562 17.394531 12.039062 C 15.605469 12.699219 13.964844 13.625 12.472656 14.820312 C 9.554688 17.0625 6.878906 19.722656 5.90625 23.382812 C 5.464844 25.066406 5.335938 26.773438 5.523438 28.503906 C 5.714844 30.234375 6.207031 31.875 7 33.425781 C 8.933594 37 12.800781 39.363281 16.636719 40.441406 C 23 42.230469 30.226562 39.886719 34.542969 34.933594 C 35.6875 33.691406 36.367188 32.234375 36.582031 30.558594 C 36.746094 28.964844 36.769531 27.371094 36.652344 25.777344 C 36.464844 22.730469 35.867188 19.777344 34.183594 17.179688 Z M 35.234375 32.464844 C 34.53125 33.925781 33.296875 35.167969 32.058594 36.210938 C 30.847656 37.214844 29.523438 38.039062 28.089844 38.683594 C 25.199219 40.011719 22.171875 40.480469 19.011719 40.097656 C 15.28125 39.625 11.488281 37.746094 9.027344 34.929688 C 6.984375 32.59375 6.164062 29.398438 6.28125 26.335938 C 6.34375 24.617188 6.753906 22.984375 7.507812 21.4375 C 8.34375 19.851562 9.441406 18.46875 10.789062 17.292969 C 12.113281 16.050781 13.546875 14.957031 15.09375 14.007812 C 16.691406 13.082031 18.402344 12.488281 20.230469 12.222656 C 21.953125 11.894531 23.671875 11.894531 25.394531 12.222656 C 27.042969 12.558594 28.597656 13.144531 30.054688 13.988281 C 30.828125 14.464844 31.511719 15.050781 32.09375 15.753906 C 34.066406 18.023438 35.242188 20.648438 35.621094 23.628906 C 35.804688 25.175781 35.894531 26.730469 35.890625 28.289062 C 35.902344 29.65625 35.828125 31.195312 35.234375 32.464844 Z M 44.09375 14.375 C 43.832031 15.585938 42.363281 16.085938 41.367188 16.527344 C 40.046875 17.121094 38.691406 17.621094 37.300781 18.03125 C 37.195312 18.050781 37.097656 18.03125 37.007812 17.976562 C 36.917969 17.917969 36.855469 17.839844 36.828125 17.738281 C 36.800781 17.632812 36.808594 17.535156 36.859375 17.4375 C 36.90625 17.34375 36.980469 17.277344 37.082031 17.242188 C 38.324219 16.875 39.539062 16.4375 40.730469 15.921875 C 41.28125 15.679688 41.824219 15.429688 42.367188 15.144531 C 42.832031 14.960938 43.144531 14.628906 43.304688 14.15625 C 43.402344 13.636719 44.195312 13.863281 44.09375 14.375 Z M 44.203125 11.65625 C 43.5 11.136719 42.726562 10.753906 41.886719 10.507812 C 41 10.316406 40.144531 10.402344 39.3125 10.765625 C 37.460938 11.5 35.75 12.480469 34.183594 13.714844 C 34.171875 13.695312 34.164062 13.679688 34.152344 13.664062 C 33.117188 11.972656 31.730469 10.644531 30 9.683594 C 28.3125 8.796875 26.515625 8.296875 24.613281 8.183594 C 22.34375 8.074219 20.117188 8.335938 17.9375 8.980469 C 15.820312 9.527344 13.804688 10.324219 11.886719 11.367188 C 10.3125 12.269531 8.917969 13.390625 7.699219 14.734375 C 6.480469 16.078125 5.5 17.574219 4.753906 19.226562 C 3.96875 20.886719 3.492188 22.632812 3.320312 24.464844 C 3.152344 26.296875 3.300781 28.101562 3.765625 29.878906 C 4.808594 33.535156 6.703125 36.679688 9.445312 39.316406 C 10.746094 40.519531 12.203125 41.496094 13.8125 42.246094 C 15.421875 42.992188 17.105469 43.476562 18.867188 43.691406 C 20.667969 43.953125 22.460938 43.890625 24.238281 43.503906 C 26.070312 43.066406 27.824219 42.425781 29.503906 41.582031 C 31.160156 40.769531 32.707031 39.78125 34.144531 38.621094 C 35.605469 37.46875 37.0625 36.175781 38.015625 34.578125 C 38.957031 32.933594 39.503906 31.171875 39.660156 29.285156 C 39.757812 27.757812 39.636719 26.246094 39.296875 24.753906 C 39.183594 24.105469 39.03125 23.46875 38.832031 22.84375 C 38.519531 21.929688 38.167969 21.042969 37.769531 20.167969 C 39.460938 19.699219 41.09375 19.078125 42.664062 18.300781 C 43.457031 17.925781 44.222656 17.496094 44.960938 17.019531 C 45.609375 16.648438 46.078125 16.117188 46.367188 15.429688 C 46.925781 13.828125 45.359375 12.464844 44.191406 11.675781 Z M 38.050781 23.074219 C 38.46875 24.417969 38.734375 25.792969 38.847656 27.199219 C 38.988281 28.773438 38.824219 30.3125 38.347656 31.820312 C 37.808594 33.5625 36.875 35.058594 35.546875 36.304688 C 34.261719 37.570312 32.855469 38.683594 31.328125 39.644531 C 29.820312 40.589844 28.226562 41.359375 26.542969 41.949219 C 24.929688 42.5625 23.261719 42.914062 21.539062 43.003906 C 19.796875 43.046875 18.09375 42.824219 16.417969 42.335938 C 14.746094 41.847656 13.191406 41.117188 11.746094 40.144531 C 8.992188 38.257812 6.890625 35.304688 5.511719 32.296875 C 4.71875 30.601562 4.238281 28.816406 4.070312 26.949219 C 3.964844 25.226562 4.15625 23.539062 4.648438 21.886719 C 5.125 20.238281 5.835938 18.699219 6.785156 17.265625 C 7.730469 15.835938 8.875 14.578125 10.207031 13.5 C 11.738281 12.3125 13.410156 11.390625 15.234375 10.738281 C 17.207031 9.957031 19.246094 9.417969 21.347656 9.121094 C 25.058594 8.652344 29.160156 9.34375 31.882812 12.101562 C 33.261719 13.5 34.136719 15.277344 35.109375 16.960938 C 35.859375 18.175781 36.542969 19.429688 37.164062 20.714844 C 37.488281 21.484375 37.777344 22.277344 38.050781 23.074219 Z M 45.605469 15.160156 C 45.40625 15.777344 44.800781 16.179688 44.273438 16.5 C 43.621094 16.902344 42.949219 17.265625 42.265625 17.59375 C 40.714844 18.359375 39.101562 18.96875 37.433594 19.417969 C 37.269531 19.097656 37.101562 18.777344 36.929688 18.457031 C 36.167969 17.101562 35.410156 15.722656 34.59375 14.390625 C 34.621094 14.378906 34.648438 14.363281 34.671875 14.34375 C 35.878906 13.402344 37.175781 12.609375 38.5625 11.960938 C 39.285156 11.566406 40.054688 11.3125 40.875 11.210938 C 41.65625 11.230469 42.371094 11.453125 43.023438 11.886719 C 44.027344 12.457031 46.070312 13.742188 45.605469 15.160156 Z M 5.699219 6.300781 C 5.335938 5.957031 5.886719 5.40625 6.257812 5.746094 C 7.253906 6.660156 8.375 7.390625 9.613281 7.9375 C 9.707031 7.988281 9.769531 8.070312 9.796875 8.175781 C 9.824219 8.277344 9.808594 8.378906 9.753906 8.472656 C 9.699219 8.5625 9.617188 8.625 9.511719 8.652344 C 9.410156 8.679688 9.308594 8.667969 9.214844 8.613281 C 7.914062 8.039062 6.742188 7.265625 5.699219 6.300781 Z M 8.894531 3.3125 C 8.867188 3.207031 8.882812 3.109375 8.933594 3.015625 C 8.988281 2.925781 9.066406 2.863281 9.171875 2.835938 C 9.273438 2.804688 9.371094 2.816406 9.464844 2.867188 C 9.558594 2.921875 9.621094 2.996094 9.652344 3.097656 C 9.777344 3.722656 10.019531 4.296875 10.375 4.820312 C 10.730469 5.347656 11.171875 5.785156 11.703125 6.132812 C 11.796875 6.1875 11.859375 6.269531 11.886719 6.375 C 11.914062 6.480469 11.898438 6.578125 11.84375 6.671875 C 11.789062 6.769531 11.710938 6.828125 11.605469 6.855469 C 11.5 6.882812 11.398438 6.871094 11.304688 6.816406 C 10.6875 6.414062 10.171875 5.910156 9.753906 5.300781 C 9.335938 4.695312 9.050781 4.03125 8.894531 3.3125 Z M 13.132812 3.746094 C 13.082031 3.652344 13.066406 3.550781 13.09375 3.449219 C 13.121094 3.34375 13.179688 3.261719 13.269531 3.207031 C 13.367188 3.148438 13.46875 3.132812 13.578125 3.160156 C 13.683594 3.1875 13.765625 3.25 13.820312 3.347656 L 14.601562 4.949219 C 14.648438 5.042969 14.65625 5.140625 14.628906 5.242188 C 14.597656 5.339844 14.539062 5.417969 14.449219 5.472656 C 14.355469 5.527344 14.257812 5.542969 14.152344 5.515625 C 14.046875 5.488281 13.96875 5.429688 13.914062 5.335938 Z M 18.929688 4.660156 C 18.632812 3.945312 18.457031 3.199219 18.398438 2.429688 C 18.398438 2.320312 18.4375 2.226562 18.515625 2.148438 C 18.589844 2.074219 18.683594 2.035156 18.792969 2.035156 C 18.902344 2.035156 18.996094 2.074219 19.070312 2.148438 C 19.148438 2.226562 19.1875 2.320312 19.1875 2.429688 C 19.1875 2.519531 19.1875 2.609375 19.210938 2.703125 L 19.210938 2.792969 C 19.210938 2.832031 19.210938 2.871094 19.210938 2.910156 C 19.238281 3.085938 19.273438 3.257812 19.320312 3.425781 C 19.402344 3.777344 19.515625 4.121094 19.65625 4.453125 C 19.6875 4.558594 19.675781 4.65625 19.621094 4.75 C 19.566406 4.847656 19.488281 4.910156 19.382812 4.9375 C 19.285156 4.953125 19.191406 4.9375 19.105469 4.882812 C 19.019531 4.832031 18.960938 4.757812 18.929688 4.660156 Z M 22.792969 3.84375 L 23.089844 0.398438 C 23.089844 0.292969 23.128906 0.203125 23.199219 0.125 C 23.273438 0.0507812 23.359375 0.0078125 23.464844 0.00390625 C 23.574219 0.00390625 23.667969 0.0429688 23.742188 0.117188 C 23.820312 0.195312 23.859375 0.289062 23.859375 0.398438 C 23.765625 1.546875 23.667969 2.695312 23.566406 3.84375 C 23.566406 3.953125 23.53125 4.046875 23.453125 4.121094 C 23.375 4.199219 23.28125 4.238281 23.175781 4.238281 C 23.066406 4.238281 22.972656 4.199219 22.894531 4.121094 C 22.820312 4.046875 22.78125 3.953125 22.78125 3.84375 Z M 26.546875 4.074219 C 26.472656 3.996094 26.4375 3.902344 26.4375 3.792969 C 26.4375 3.6875 26.472656 3.59375 26.546875 3.515625 L 26.582031 3.476562 L 26.652344 3.371094 C 26.699219 3.308594 26.742188 3.238281 26.78125 3.164062 C 26.820312 3.09375 26.851562 3.039062 26.882812 2.976562 C 26.917969 2.914062 26.917969 2.898438 26.933594 2.863281 L 26.933594 2.8125 C 26.988281 2.667969 27.03125 2.519531 27.066406 2.371094 L 27.085938 2.25 C 27.085938 2.226562 27.121094 2.097656 27.085938 2.203125 C 27.105469 2.121094 27.109375 2.039062 27.109375 1.953125 C 27.109375 1.84375 27.148438 1.753906 27.226562 1.675781 C 27.300781 1.597656 27.394531 1.558594 27.503906 1.558594 C 27.613281 1.558594 27.703125 1.597656 27.78125 1.675781 C 27.859375 1.753906 27.898438 1.84375 27.898438 1.953125 C 27.859375 2.75 27.585938 3.457031 27.078125 4.074219 C 27 4.144531 26.910156 4.183594 26.804688 4.183594 C 26.699219 4.183594 26.609375 4.144531 26.53125 4.074219 Z M 29.503906 5.472656 C 29.449219 5.378906 29.4375 5.277344 29.464844 5.171875 C 29.496094 5.070312 29.558594 4.988281 29.648438 4.933594 L 29.710938 4.890625 L 29.746094 4.859375 L 29.785156 4.828125 C 29.855469 4.773438 29.921875 4.714844 29.984375 4.652344 C 30.113281 4.539062 30.234375 4.417969 30.347656 4.289062 L 30.386719 4.238281 L 30.414062 4.203125 C 30.425781 4.1875 30.441406 4.167969 30.453125 4.152344 C 30.5 4.085938 30.550781 4.015625 30.59375 3.945312 C 30.6875 3.796875 30.769531 3.640625 30.84375 3.480469 C 30.902344 3.390625 30.980469 3.328125 31.085938 3.300781 C 31.191406 3.273438 31.289062 3.285156 31.382812 3.339844 C 31.476562 3.398438 31.535156 3.476562 31.5625 3.582031 C 31.589844 3.6875 31.574219 3.785156 31.523438 3.878906 C 31.179688 4.597656 30.683594 5.1875 30.035156 5.644531 C 29.9375 5.691406 29.839844 5.699219 29.734375 5.664062 C 29.632812 5.632812 29.558594 5.570312 29.503906 5.472656 Z M 29.503906 5.472656 " fill-opacity="1" fill-rule="nonzero"/><g transform="matrix(1, 0, 0, 1, 13, 15)"><g clip-path="url(#68c280fb45)"><g fill="#ffffff" fill-opacity="1"><g transform="translate(0.470911, 18.69764)"><g><path d="M 1.8125 -9.125 C 1.90625 -9.375 2.035156 -9.6875 2.203125 -10.0625 C 2.378906 -10.4375 2.582031 -10.8125 2.8125 -11.1875 C 3.039062 -11.570312 3.28125 -11.890625 3.53125 -12.140625 C 3.78125 -12.398438 4.019531 -12.53125 4.25 -12.53125 C 4.445312 -12.53125 4.617188 -12.53125 4.765625 -12.53125 C 4.910156 -12.539062 5.09375 -12.570312 5.3125 -12.625 C 5.789062 -12.40625 6.175781 -12.0625 6.46875 -11.59375 C 6.769531 -11.132812 6.992188 -10.617188 7.140625 -10.046875 C 7.285156 -9.472656 7.359375 -8.90625 7.359375 -8.34375 C 7.359375 -7.570312 7.28125 -6.851562 7.125 -6.1875 C 6.976562 -5.53125 6.789062 -4.878906 6.5625 -4.234375 C 6.332031 -3.597656 6.082031 -2.921875 5.8125 -2.203125 C 5.632812 -1.546875 5.382812 -1.03125 5.0625 -0.65625 C 4.75 -0.28125 4.332031 -0.09375 3.8125 -0.09375 C 3.070312 -0.09375 2.488281 -0.296875 2.0625 -0.703125 C 1.644531 -1.109375 1.347656 -1.640625 1.171875 -2.296875 C 0.992188 -2.953125 0.90625 -3.65625 0.90625 -4.40625 C 0.90625 -5.195312 0.992188 -6.003906 1.171875 -6.828125 C 1.347656 -7.648438 1.5625 -8.414062 1.8125 -9.125 Z M 4.71875 -7.546875 C 4.71875 -7.765625 4.710938 -7.992188 4.703125 -8.234375 C 4.703125 -8.484375 4.703125 -8.796875 4.703125 -9.171875 C 4.304688 -8.472656 4 -7.6875 3.78125 -6.8125 C 3.570312 -5.9375 3.46875 -5.070312 3.46875 -4.21875 C 3.46875 -4.050781 3.46875 -3.890625 3.46875 -3.734375 C 3.476562 -3.578125 3.492188 -3.421875 3.515625 -3.265625 C 3.703125 -3.546875 3.867188 -3.894531 4.015625 -4.3125 C 4.160156 -4.738281 4.285156 -5.175781 4.390625 -5.625 C 4.492188 -6.082031 4.570312 -6.484375 4.625 -6.828125 C 4.675781 -7.179688 4.707031 -7.421875 4.71875 -7.546875 Z M 4.71875 -7.546875 "/></g></g></g></g></g><g transform="matrix(1, 0, 0, 1, 20, 13)"><g clip-path="url(#f24abeea6a)"><g clip-path="url(#fdf1f88924)"><g fill="#ffffff" fill-opacity="1"><g transform="translate(0.628757, 20.905545)"><g><path d="M 2.59375 -0.078125 C 2.082031 -0.148438 1.703125 -0.332031 1.453125 -0.625 C 1.203125 -0.914062 1.078125 -1.21875 1.078125 -1.53125 C 1.078125 -1.882812 1.207031 -2.207031 1.46875 -2.5 C 1.738281 -2.789062 2.144531 -2.941406 2.6875 -2.953125 C 2.757812 -2.953125 2.832031 -2.953125 2.90625 -2.953125 C 2.976562 -2.953125 3.050781 -2.945312 3.125 -2.9375 C 3.050781 -4.050781 2.945312 -5.097656 2.8125 -6.078125 C 2.675781 -7.054688 2.609375 -8.109375 2.609375 -9.234375 C 2.609375 -9.628906 2.628906 -10.03125 2.671875 -10.4375 C 2.710938 -10.851562 2.734375 -11.332031 2.734375 -11.875 C 2.160156 -11.945312 1.734375 -12.148438 1.453125 -12.484375 C 1.171875 -12.816406 1.03125 -13.160156 1.03125 -13.515625 C 1.03125 -13.878906 1.160156 -14.1875 1.421875 -14.4375 C 1.691406 -14.695312 2.039062 -14.828125 2.46875 -14.828125 C 3.363281 -14.828125 4.035156 -14.734375 4.484375 -14.546875 C 4.941406 -14.367188 5.25 -14.082031 5.40625 -13.6875 C 5.5625 -13.289062 5.640625 -12.785156 5.640625 -12.171875 C 5.640625 -11.773438 5.617188 -11.378906 5.578125 -10.984375 C 5.546875 -10.597656 5.515625 -10.238281 5.484375 -9.90625 C 5.515625 -8.65625 5.597656 -7.460938 5.734375 -6.328125 C 5.867188 -5.203125 5.960938 -4.003906 6.015625 -2.734375 L 6.375 -2.734375 C 6.8125 -2.609375 7.132812 -2.410156 7.34375 -2.140625 C 7.550781 -1.867188 7.65625 -1.585938 7.65625 -1.296875 C 7.65625 -0.984375 7.535156 -0.691406 7.296875 -0.421875 C 7.066406 -0.148438 6.722656 0.0351562 6.265625 0.140625 C 5.648438 0.128906 5.035156 0.09375 4.421875 0.03125 C 3.816406 -0.03125 3.207031 -0.0664062 2.59375 -0.078125 Z M 2.59375 -0.078125 "/></g></g></g></g></g></g></svg>