<svg xmlns="http://www.w3.org/2000/svg" xmlns:xlink="http://www.w3.org/1999/xlink" width="60" zoomAndPan="magnify" viewBox="0 0 45 44.999999" height="60" preserveAspectRatio="xMidYMid meet" version="1.0"><defs><g/><clipPath id="bdd7eb940f"><rect x="0" width="24" y="0" height="45"/></clipPath><clipPath id="5472446293"><rect x="0" width="24" y="0" height="45"/></clipPath></defs><g transform="matrix(1, 0, 0, 1, 0, 0)"><g clip-path="url(#bdd7eb940f)"><g fill="#020202" fill-opacity="1"><g transform="translate(0.0000005, 42.098465)"><g><path d="M 4.921875 -24.859375 C 5.191406 -25.554688 5.554688 -26.421875 6.015625 -27.453125 C 6.484375 -28.484375 7.03125 -29.507812 7.65625 -30.53125 C 8.289062 -31.5625 8.945312 -32.425781 9.625 -33.125 C 10.300781 -33.820312 10.957031 -34.171875 11.59375 -34.171875 C 12.125 -34.171875 12.585938 -34.175781 12.984375 -34.1875 C 13.378906 -34.207031 13.875 -34.285156 14.46875 -34.421875 C 15.800781 -33.816406 16.875 -32.882812 17.6875 -31.625 C 18.5 -30.363281 19.101562 -28.953125 19.5 -27.390625 C 19.894531 -25.835938 20.09375 -24.300781 20.09375 -22.78125 C 20.09375 -20.65625 19.882812 -18.6875 19.46875 -16.875 C 19.050781 -15.070312 18.523438 -13.300781 17.890625 -11.5625 C 17.265625 -9.820312 16.585938 -7.972656 15.859375 -6.015625 C 15.367188 -4.222656 14.691406 -2.8125 13.828125 -1.78125 C 12.960938 -0.757812 11.816406 -0.25 10.390625 -0.25 C 8.367188 -0.25 6.785156 -0.800781 5.640625 -1.90625 C 4.492188 -3.019531 3.679688 -4.472656 3.203125 -6.265625 C 2.722656 -8.054688 2.484375 -9.976562 2.484375 -12.03125 C 2.484375 -14.1875 2.722656 -16.382812 3.203125 -18.625 C 3.679688 -20.863281 4.253906 -22.941406 4.921875 -24.859375 Z M 12.875 -20.59375 C 12.875 -21.1875 12.863281 -21.8125 12.84375 -22.46875 C 12.832031 -23.132812 12.828125 -23.984375 12.828125 -25.015625 C 11.734375 -23.128906 10.894531 -20.988281 10.3125 -18.59375 C 9.738281 -16.207031 9.453125 -13.835938 9.453125 -11.484375 C 9.453125 -11.054688 9.457031 -10.625 9.46875 -10.1875 C 9.488281 -9.757812 9.53125 -9.332031 9.59375 -8.90625 C 10.09375 -9.664062 10.539062 -10.625 10.9375 -11.78125 C 11.332031 -12.945312 11.671875 -14.140625 11.953125 -15.359375 C 12.242188 -16.585938 12.460938 -17.679688 12.609375 -18.640625 C 12.753906 -19.609375 12.84375 -20.257812 12.875 -20.59375 Z M 12.875 -20.59375 "/></g></g></g></g></g><g transform="matrix(1, 0, 0, 1, 21, 0)"><g clip-path="url(#5472446293)"><g fill="#020202" fill-opacity="1"><g transform="translate(0.433448, 39.327035)"><g><path d="M 5.875 -28.25 C 4.625 -28.414062 3.675781 -28.84375 3.03125 -29.53125 C 2.394531 -30.226562 2.078125 -30.992188 2.078125 -31.828125 C 2.078125 -32.703125 2.441406 -33.535156 3.171875 -34.328125 C 3.898438 -35.128906 5.0625 -35.53125 6.65625 -35.53125 C 9.113281 -35.53125 11.035156 -34.726562 12.421875 -33.125 C 13.816406 -31.53125 14.515625 -29.503906 14.515625 -27.046875 C 14.515625 -26.253906 14.441406 -25.46875 14.296875 -24.6875 C 14.160156 -23.90625 13.921875 -23.113281 13.578125 -22.3125 C 15.171875 -21.832031 16.644531 -20.921875 18 -19.578125 C 19.351562 -18.242188 20.441406 -16.726562 21.265625 -15.03125 C 22.097656 -13.332031 22.515625 -11.664062 22.515625 -10.03125 C 22.515625 -8.507812 22.070312 -7.035156 21.1875 -5.609375 C 20.3125 -4.191406 18.988281 -3.03125 17.21875 -2.125 C 15.445312 -1.226562 13.226562 -0.78125 10.5625 -0.78125 C 9.757812 -0.78125 8.976562 -0.847656 8.21875 -0.984375 C 7.457031 -1.128906 6.765625 -1.335938 6.140625 -1.609375 L 6.1875 -1.609375 C 5.144531 -1.890625 4.375 -2.359375 3.875 -3.015625 C 3.375 -3.671875 3.125 -4.363281 3.125 -5.09375 C 3.125 -5.925781 3.46875 -6.738281 4.15625 -7.53125 C 4.851562 -8.332031 5.878906 -8.734375 7.234375 -8.734375 C 7.816406 -8.734375 8.34375 -8.617188 8.8125 -8.390625 C 9.28125 -8.171875 9.8125 -8.0625 10.40625 -8.0625 C 10.851562 -8.0625 11.457031 -8.09375 12.21875 -8.15625 C 12.988281 -8.226562 13.675781 -8.445312 14.28125 -8.8125 C 14.882812 -9.175781 15.1875 -9.789062 15.1875 -10.65625 C 15.1875 -11.875 14.890625 -12.8125 14.296875 -13.46875 C 13.710938 -14.125 12.957031 -14.617188 12.03125 -14.953125 C 11.113281 -15.285156 10.132812 -15.5625 9.09375 -15.78125 C 8.0625 -16.007812 7.082031 -16.257812 6.15625 -16.53125 C 5.238281 -16.8125 4.484375 -17.226562 3.890625 -17.78125 C 3.304688 -18.34375 3.015625 -19.125 3.015625 -20.125 C 3.015625 -20.925781 3.226562 -21.59375 3.65625 -22.125 C 4.09375 -22.664062 4.601562 -23.171875 5.1875 -23.640625 C 5.78125 -24.109375 6.296875 -24.582031 6.734375 -25.0625 C 7.171875 -25.550781 7.390625 -26.144531 7.390625 -26.84375 C 7.390625 -27.050781 7.3125 -27.328125 7.15625 -27.671875 C 7 -28.015625 6.570312 -28.207031 5.875 -28.25 Z M 5.875 -28.25 "/></g></g></g></g></g></svg>