<svg xmlns="http://www.w3.org/2000/svg" xmlns:xlink="http://www.w3.org/1999/xlink" width="60" zoomAndPan="magnify" viewBox="0 0 45 44.999999" height="60" preserveAspectRatio="xMidYMid meet" version="1.0"><defs><g/></defs><g fill="#a6a6a6" fill-opacity="1"><g transform="translate(9.943575, 36.244064)"><g><path d="M 12.59375 -26.078125 C 13.664062 -26.078125 14.734375 -25.765625 15.796875 -25.140625 C 16.867188 -24.515625 17.867188 -23.691406 18.796875 -22.671875 C 19.734375 -21.648438 20.554688 -20.523438 21.265625 -19.296875 C 21.984375 -18.066406 22.550781 -16.84375 22.96875 -15.625 C 23.382812 -14.40625 23.59375 -13.289062 23.59375 -12.28125 C 23.59375 -11.226562 23.390625 -10.023438 22.984375 -8.671875 C 22.585938 -7.316406 22.023438 -6.0625 21.296875 -4.90625 C 21.941406 -4.425781 22.414062 -4.003906 22.71875 -3.640625 C 23.019531 -3.273438 23.171875 -2.800781 23.171875 -2.21875 C 23.171875 -1.570312 22.921875 -1.003906 22.421875 -0.515625 C 21.921875 -0.0234375 21.226562 0.21875 20.34375 0.21875 C 19.769531 0.21875 19.210938 0.0390625 18.671875 -0.3125 C 18.128906 -0.675781 17.6875 -1.050781 17.34375 -1.4375 C 17.1875 -1.382812 16.929688 -1.335938 16.578125 -1.296875 C 16.234375 -1.265625 15.890625 -1.234375 15.546875 -1.203125 C 15.203125 -1.179688 14.945312 -1.171875 14.78125 -1.171875 C 13.0625 -1.171875 11.382812 -1.613281 9.75 -2.5 C 8.125 -3.394531 6.632812 -4.429688 5.28125 -5.609375 C 4.125 -6.640625 3.269531 -7.957031 2.71875 -9.5625 C 2.164062 -11.175781 1.890625 -12.835938 1.890625 -14.546875 C 1.890625 -16.679688 2.273438 -18.613281 3.046875 -20.34375 C 3.828125 -22.082031 5.007812 -23.46875 6.59375 -24.5 C 8.175781 -25.53125 10.175781 -26.054688 12.59375 -26.078125 Z M 18.3125 -12.46875 C 18.3125 -12.820312 18.195312 -13.335938 17.96875 -14.015625 C 17.75 -14.691406 17.441406 -15.414062 17.046875 -16.1875 C 16.660156 -16.957031 16.21875 -17.691406 15.71875 -18.390625 C 15.21875 -19.097656 14.679688 -19.675781 14.109375 -20.125 C 13.546875 -20.570312 12.988281 -20.796875 12.4375 -20.796875 C 11.050781 -20.796875 9.972656 -20.53125 9.203125 -20 C 8.441406 -19.476562 7.914062 -18.726562 7.625 -17.75 C 7.34375 -16.769531 7.203125 -15.585938 7.203125 -14.203125 C 7.203125 -12.828125 7.398438 -11.703125 7.796875 -10.828125 C 8.203125 -9.960938 8.707031 -9.285156 9.3125 -8.796875 C 9.914062 -8.304688 10.53125 -7.96875 11.15625 -7.78125 C 11.78125 -7.59375 12.320312 -7.488281 12.78125 -7.46875 C 12.675781 -7.738281 12.625 -8.035156 12.625 -8.359375 C 12.625 -9.046875 12.851562 -9.625 13.3125 -10.09375 C 13.78125 -10.570312 14.367188 -10.8125 15.078125 -10.8125 C 15.378906 -10.8125 15.703125 -10.757812 16.046875 -10.65625 C 16.398438 -10.5625 16.742188 -10.390625 17.078125 -10.140625 L 17.75 -9.34375 C 17.945312 -10 18.085938 -10.570312 18.171875 -11.0625 C 18.265625 -11.550781 18.3125 -12.019531 18.3125 -12.46875 Z M 18.3125 -12.46875 "/></g></g></g></svg>