<svg xmlns="http://www.w3.org/2000/svg" xmlns:xlink="http://www.w3.org/1999/xlink" width="60" zoomAndPan="magnify" viewBox="0 0 45 44.999999" height="60" preserveAspectRatio="xMidYMid meet" version="1.0"><defs><g/><clipPath id="ff1ca1387f"><path d="M 2.25 8.289062 L 42.75 8.289062 L 42.75 39 L 2.25 39 Z M 2.25 8.289062 " clip-rule="nonzero"/></clipPath><clipPath id="87fa00202b"><rect x="0" width="27" y="0" height="45"/></clipPath></defs><g clip-path="url(#ff1ca1387f)"><path fill="#ff751f" d="M 22.5 8.375 C 11.316406 8.375 2.25 15.164062 2.25 23.542969 C 2.25 27.363281 4.136719 30.855469 7.25 33.523438 C 5.714844 35.136719 4.289062 36.996094 3.460938 37.664062 C 5.332031 36.820312 7.109375 35.667969 9.027344 34.867188 C 12.605469 37.257812 17.328125 38.710938 22.5 38.710938 C 33.683594 38.710938 42.75 31.921875 42.75 23.542969 C 42.75 15.164062 33.683594 8.375 22.5 8.375 Z M 22.5 8.375 " fill-opacity="1" fill-rule="nonzero"/></g><g transform="matrix(1, 0, 0, 1, 9, 0)"><g clip-path="url(#87fa00202b)"><g fill="#ffffff" fill-opacity="1"><g transform="translate(0.945925, 36.015014)"><g><path d="M 12.59375 -26.09375 C 13.675781 -26.09375 14.75 -25.773438 15.8125 -25.140625 C 16.882812 -24.515625 17.882812 -23.691406 18.8125 -22.671875 C 19.738281 -21.660156 20.5625 -20.535156 21.28125 -19.296875 C 22 -18.066406 22.566406 -16.84375 22.984375 -15.625 C 23.398438 -14.40625 23.609375 -13.296875 23.609375 -12.296875 C 23.609375 -11.234375 23.40625 -10.023438 23 -8.671875 C 22.59375 -7.316406 22.023438 -6.0625 21.296875 -4.90625 C 21.953125 -4.425781 22.429688 -4.003906 22.734375 -3.640625 C 23.035156 -3.273438 23.1875 -2.800781 23.1875 -2.21875 C 23.1875 -1.570312 22.929688 -1.003906 22.421875 -0.515625 C 21.921875 -0.0234375 21.234375 0.21875 20.359375 0.21875 C 19.785156 0.21875 19.226562 0.0390625 18.6875 -0.3125 C 18.144531 -0.675781 17.695312 -1.050781 17.34375 -1.4375 C 17.1875 -1.382812 16.929688 -1.335938 16.578125 -1.296875 C 16.234375 -1.265625 15.890625 -1.234375 15.546875 -1.203125 C 15.210938 -1.179688 14.957031 -1.171875 14.78125 -1.171875 C 13.070312 -1.171875 11.398438 -1.613281 9.765625 -2.5 C 8.128906 -3.394531 6.632812 -4.4375 5.28125 -5.625 C 4.125 -6.644531 3.269531 -7.957031 2.71875 -9.5625 C 2.164062 -11.175781 1.890625 -12.835938 1.890625 -14.546875 C 1.890625 -16.691406 2.273438 -18.628906 3.046875 -20.359375 C 3.828125 -22.097656 5.007812 -23.476562 6.59375 -24.5 C 8.175781 -25.53125 10.175781 -26.0625 12.59375 -26.09375 Z M 18.328125 -12.484375 C 18.328125 -12.828125 18.210938 -13.335938 17.984375 -14.015625 C 17.753906 -14.703125 17.441406 -15.425781 17.046875 -16.1875 C 16.660156 -16.957031 16.21875 -17.691406 15.71875 -18.390625 C 15.21875 -19.097656 14.679688 -19.675781 14.109375 -20.125 C 13.546875 -20.582031 12.988281 -20.8125 12.4375 -20.8125 C 11.0625 -20.8125 9.988281 -20.546875 9.21875 -20.015625 C 8.445312 -19.492188 7.914062 -18.738281 7.625 -17.75 C 7.34375 -16.769531 7.203125 -15.59375 7.203125 -14.21875 C 7.203125 -12.832031 7.398438 -11.703125 7.796875 -10.828125 C 8.203125 -9.960938 8.707031 -9.285156 9.3125 -8.796875 C 9.914062 -8.304688 10.53125 -7.96875 11.15625 -7.78125 C 11.789062 -7.59375 12.332031 -7.488281 12.78125 -7.46875 C 12.675781 -7.738281 12.625 -8.039062 12.625 -8.375 C 12.625 -9.050781 12.859375 -9.628906 13.328125 -10.109375 C 13.796875 -10.585938 14.378906 -10.828125 15.078125 -10.828125 C 15.378906 -10.828125 15.707031 -10.773438 16.0625 -10.671875 C 16.414062 -10.566406 16.753906 -10.390625 17.078125 -10.140625 L 17.765625 -9.34375 C 17.960938 -10 18.101562 -10.570312 18.1875 -11.0625 C 18.28125 -11.550781 18.328125 -12.023438 18.328125 -12.484375 Z M 18.328125 -12.484375 "/></g></g></g></g></g></svg>