<svg xmlns="http://www.w3.org/2000/svg" xmlns:xlink="http://www.w3.org/1999/xlink" width="60" zoomAndPan="magnify" viewBox="0 0 45 44.999999" height="60" preserveAspectRatio="xMidYMid meet" version="1.0"><defs><g/><clipPath id="1bd8035374"><rect x="0" width="23" y="0" height="45"/></clipPath><clipPath id="faea7bd178"><rect x="0" width="27" y="0" height="45"/></clipPath></defs><g transform="matrix(1, 0, 0, 1, 0, 0)"><g clip-path="url(#1bd8035374)"><g fill="#020202" fill-opacity="1"><g transform="translate(-0.788203, 39.433563)"><g><path d="M 4.8125 -24.265625 C 5.0625 -24.953125 5.410156 -25.796875 5.859375 -26.796875 C 6.316406 -27.796875 6.851562 -28.796875 7.46875 -29.796875 C 8.09375 -30.804688 8.734375 -31.648438 9.390625 -32.328125 C 10.054688 -33.015625 10.695312 -33.359375 11.3125 -33.359375 C 11.832031 -33.359375 12.285156 -33.363281 12.671875 -33.375 C 13.054688 -33.394531 13.539062 -33.46875 14.125 -33.59375 C 15.414062 -33.007812 16.457031 -32.101562 17.25 -30.875 C 18.050781 -29.644531 18.644531 -28.269531 19.03125 -26.75 C 19.414062 -25.226562 19.609375 -23.722656 19.609375 -22.234375 C 19.609375 -20.160156 19.40625 -18.238281 19 -16.46875 C 18.601562 -14.707031 18.09375 -12.976562 17.46875 -11.28125 C 16.851562 -9.582031 16.191406 -7.78125 15.484375 -5.875 C 15.003906 -4.125 14.34375 -2.75 13.5 -1.75 C 12.65625 -0.75 11.535156 -0.25 10.140625 -0.25 C 8.171875 -0.25 6.625 -0.789062 5.5 -1.875 C 4.382812 -2.957031 3.59375 -4.367188 3.125 -6.109375 C 2.65625 -7.859375 2.421875 -9.738281 2.421875 -11.75 C 2.421875 -13.851562 2.65625 -15.992188 3.125 -18.171875 C 3.59375 -20.359375 4.15625 -22.390625 4.8125 -24.265625 Z M 12.578125 -20.09375 C 12.578125 -20.675781 12.566406 -21.289062 12.546875 -21.9375 C 12.535156 -22.59375 12.53125 -23.421875 12.53125 -24.421875 C 11.457031 -22.578125 10.632812 -20.488281 10.0625 -18.15625 C 9.5 -15.820312 9.21875 -13.507812 9.21875 -11.21875 C 9.21875 -10.789062 9.222656 -10.367188 9.234375 -9.953125 C 9.253906 -9.535156 9.300781 -9.113281 9.375 -8.6875 C 9.851562 -9.4375 10.285156 -10.375 10.671875 -11.5 C 11.066406 -12.632812 11.398438 -13.800781 11.671875 -15 C 11.953125 -16.195312 12.164062 -17.265625 12.3125 -18.203125 C 12.457031 -19.140625 12.546875 -19.769531 12.578125 -20.09375 Z M 12.578125 -20.09375 "/></g></g></g></g></g><g transform="matrix(1, 0, 0, 1, 18, 0)"><g clip-path="url(#faea7bd178)"><g fill="#020202" fill-opacity="1"><g transform="translate(0.720481, 38.725658)"><g><path d="M 6.859375 -25.1875 C 5.734375 -25.28125 4.847656 -25.648438 4.203125 -26.296875 C 3.566406 -26.941406 3.25 -27.6875 3.25 -28.53125 C 3.25 -29.3125 3.578125 -30.097656 4.234375 -30.890625 C 4.898438 -31.679688 5.738281 -32.414062 6.75 -33.09375 C 7.769531 -33.769531 8.835938 -34.3125 9.953125 -34.71875 C 11.066406 -35.125 12.082031 -35.328125 13 -35.328125 C 15.875 -35.328125 18.128906 -34.851562 19.765625 -33.90625 C 21.410156 -32.957031 22.578125 -31.6875 23.265625 -30.09375 C 23.960938 -28.507812 24.3125 -26.769531 24.3125 -24.875 C 24.3125 -23.351562 23.945312 -21.972656 23.21875 -20.734375 C 22.5 -19.503906 21.550781 -18.394531 20.375 -17.40625 C 19.207031 -16.425781 17.976562 -15.535156 16.6875 -14.734375 C 15.40625 -13.941406 14.179688 -13.222656 13.015625 -12.578125 C 11.847656 -11.941406 10.882812 -11.351562 10.125 -10.8125 C 9.363281 -10.269531 8.96875 -9.765625 8.9375 -9.296875 C 8.9375 -8.953125 9.28125 -8.648438 9.96875 -8.390625 C 10.664062 -8.140625 11.515625 -7.929688 12.515625 -7.765625 C 13.515625 -7.597656 14.476562 -7.476562 15.40625 -7.40625 C 16.332031 -7.34375 17.035156 -7.3125 17.515625 -7.3125 C 17.679688 -8.289062 18.085938 -9.039062 18.734375 -9.5625 C 19.378906 -10.09375 20.070312 -10.359375 20.8125 -10.359375 C 21.789062 -10.359375 22.59375 -10.085938 23.21875 -9.546875 C 23.851562 -9.003906 24.3125 -8.34375 24.59375 -7.5625 C 24.882812 -6.78125 25.03125 -6.035156 25.03125 -5.328125 C 25.03125 -3.535156 24.421875 -2.210938 23.203125 -1.359375 C 21.984375 -0.515625 20.070312 -0.09375 17.46875 -0.09375 C 15.394531 -0.09375 13.398438 -0.269531 11.484375 -0.625 C 9.578125 -0.988281 7.867188 -1.53125 6.359375 -2.25 C 4.859375 -2.976562 3.675781 -3.894531 2.8125 -5 C 1.945312 -6.101562 1.515625 -7.378906 1.515625 -8.828125 C 1.515625 -10.253906 1.882812 -11.515625 2.625 -12.609375 C 3.375 -13.710938 4.34375 -14.695312 5.53125 -15.5625 C 6.71875 -16.425781 7.96875 -17.226562 9.28125 -17.96875 C 10.601562 -18.71875 11.859375 -19.429688 13.046875 -20.109375 C 14.234375 -20.785156 15.195312 -21.484375 15.9375 -22.203125 C 16.6875 -22.929688 17.0625 -23.722656 17.0625 -24.578125 C 17.0625 -26.054688 16.832031 -27.078125 16.375 -27.640625 C 15.914062 -28.203125 15.347656 -28.484375 14.671875 -28.484375 C 14.023438 -28.484375 13.3125 -28.3125 12.53125 -27.96875 C 11.757812 -27.632812 11 -27.253906 10.25 -26.828125 C 9.507812 -26.398438 8.832031 -26.019531 8.21875 -25.6875 C 7.613281 -25.351562 7.160156 -25.1875 6.859375 -25.1875 Z M 6.859375 -25.1875 "/></g></g></g></g></g></svg>