<svg xmlns="http://www.w3.org/2000/svg" xmlns:xlink="http://www.w3.org/1999/xlink" width="60" zoomAndPan="magnify" viewBox="0 0 45 44.999999" height="60" preserveAspectRatio="xMidYMid meet" version="1.0"><defs><g/></defs><g fill="#000000" fill-opacity="1"><g transform="translate(11.566839, 36.244066)"><g><path d="M 9.640625 -7.078125 C 9.296875 -7.128906 8.972656 -7.210938 8.671875 -7.328125 C 8.367188 -7.441406 8.101562 -7.585938 7.875 -7.765625 C 7.820312 -7.035156 7.765625 -6.460938 7.703125 -6.046875 C 7.640625 -5.628906 7.585938 -5.207031 7.546875 -4.78125 C 7.515625 -4.351562 7.5 -3.773438 7.5 -3.046875 C 7.476562 -2.066406 7.195312 -1.332031 6.65625 -0.84375 C 6.113281 -0.351562 5.53125 -0.109375 4.90625 -0.109375 C 4.300781 -0.109375 3.738281 -0.332031 3.21875 -0.78125 C 2.707031 -1.238281 2.390625 -1.929688 2.265625 -2.859375 C 2.265625 -6.003906 2.492188 -9.023438 2.953125 -11.921875 C 3.421875 -14.828125 3.921875 -17.5 4.453125 -19.9375 C 4.703125 -21.113281 5.007812 -22.195312 5.375 -23.1875 C 5.738281 -24.1875 6.304688 -24.988281 7.078125 -25.59375 C 7.859375 -26.195312 8.992188 -26.5 10.484375 -26.5 C 10.773438 -26.5 11.066406 -26.4375 11.359375 -26.3125 C 11.648438 -26.1875 11.957031 -25.992188 12.28125 -25.734375 C 13.414062 -24.609375 14.425781 -23.175781 15.3125 -21.4375 C 16.207031 -19.707031 16.988281 -17.847656 17.65625 -15.859375 C 18.320312 -13.878906 18.882812 -11.921875 19.34375 -9.984375 C 19.8125 -8.046875 20.1875 -6.3125 20.46875 -4.78125 L 20.921875 -3.734375 C 21.046875 -3.273438 21.109375 -2.894531 21.109375 -2.59375 C 21.109375 -1.820312 20.863281 -1.195312 20.375 -0.71875 C 19.882812 -0.238281 19.3125 0 18.65625 0 C 17.875 0 17.265625 -0.238281 16.828125 -0.71875 C 16.390625 -1.195312 16.054688 -1.785156 15.828125 -2.484375 C 15.597656 -3.191406 15.414062 -3.894531 15.28125 -4.59375 C 15.144531 -5.300781 15 -5.890625 14.84375 -6.359375 C 14.695312 -6.835938 14.460938 -7.078125 14.140625 -7.078125 C 14.109375 -7.078125 14.078125 -7.078125 14.046875 -7.078125 C 14.023438 -7.078125 14.003906 -7.078125 13.984375 -7.078125 Z M 10.21875 -20.203125 C 9.96875 -19.398438 9.648438 -18.523438 9.265625 -17.578125 C 8.890625 -16.640625 8.703125 -15.628906 8.703125 -14.546875 C 8.703125 -13.835938 8.769531 -13.289062 8.90625 -12.90625 C 9.050781 -12.519531 9.363281 -12.328125 9.84375 -12.328125 L 12.84375 -12.328125 C 13.125 -12.328125 13.265625 -12.4375 13.265625 -12.65625 C 13.265625 -12.757812 13.25 -12.851562 13.21875 -12.9375 C 13.195312 -13.03125 13.175781 -13.128906 13.15625 -13.234375 C 12.78125 -14.484375 12.359375 -15.628906 11.890625 -16.671875 C 11.421875 -17.710938 10.863281 -18.890625 10.21875 -20.203125 Z M 10.21875 -20.203125 "/></g></g></g></svg>