<svg xmlns="http://www.w3.org/2000/svg" xmlns:xlink="http://www.w3.org/1999/xlink" width="60" zoomAndPan="magnify" viewBox="0 0 45 44.999999" height="60" preserveAspectRatio="xMidYMid meet" version="1.0"><defs><g/><clipPath id="41049ab0e0"><rect x="0" width="20" y="0" height="45"/></clipPath><clipPath id="99874c9618"><rect x="0" width="19" y="0" height="45"/></clipPath></defs><g transform="matrix(1, 0, 0, 1, 4, 0)"><g clip-path="url(#41049ab0e0)"><g fill="#020202" fill-opacity="1"><g transform="translate(0.5, 36.638791)"><g><path d="M 3.859375 -19.484375 C 4.066406 -20.035156 4.351562 -20.710938 4.71875 -21.515625 C 5.082031 -22.328125 5.507812 -23.132812 6 -23.9375 C 6.5 -24.738281 7.015625 -25.410156 7.546875 -25.953125 C 8.078125 -26.503906 8.585938 -26.78125 9.078125 -26.78125 C 9.492188 -26.78125 9.859375 -26.785156 10.171875 -26.796875 C 10.484375 -26.816406 10.875 -26.878906 11.34375 -26.984375 C 12.382812 -26.515625 13.222656 -25.785156 13.859375 -24.796875 C 14.492188 -23.804688 14.96875 -22.695312 15.28125 -21.46875 C 15.59375 -20.25 15.75 -19.046875 15.75 -17.859375 C 15.75 -16.191406 15.585938 -14.648438 15.265625 -13.234375 C 14.941406 -11.816406 14.53125 -10.425781 14.03125 -9.0625 C 13.539062 -7.695312 13.007812 -6.25 12.4375 -4.71875 C 12.039062 -3.3125 11.503906 -2.203125 10.828125 -1.390625 C 10.160156 -0.585938 9.265625 -0.1875 8.140625 -0.1875 C 6.554688 -0.1875 5.316406 -0.625 4.421875 -1.5 C 3.523438 -2.375 2.890625 -3.507812 2.515625 -4.90625 C 2.140625 -6.3125 1.953125 -7.820312 1.953125 -9.4375 C 1.953125 -11.125 2.140625 -12.84375 2.515625 -14.59375 C 2.890625 -16.351562 3.335938 -17.984375 3.859375 -19.484375 Z M 10.09375 -16.140625 C 10.09375 -16.609375 10.085938 -17.101562 10.078125 -17.625 C 10.066406 -18.144531 10.0625 -18.804688 10.0625 -19.609375 C 9.195312 -18.128906 8.535156 -16.453125 8.078125 -14.578125 C 7.628906 -12.703125 7.40625 -10.84375 7.40625 -9 C 7.40625 -8.664062 7.410156 -8.328125 7.421875 -7.984375 C 7.441406 -7.648438 7.476562 -7.316406 7.53125 -6.984375 C 7.914062 -7.578125 8.265625 -8.328125 8.578125 -9.234375 C 8.890625 -10.148438 9.15625 -11.085938 9.375 -12.046875 C 9.59375 -13.003906 9.757812 -13.859375 9.875 -14.609375 C 10 -15.367188 10.070312 -15.878906 10.09375 -16.140625 Z M 10.09375 -16.140625 "/></g></g></g></g></g><g transform="matrix(1, 0, 0, 1, 19, 0)"><g clip-path="url(#99874c9618)"><g fill="#020202" fill-opacity="1"><g transform="translate(0.807745, 37.083422)"><g><path d="M 5.53125 -0.171875 C 4.4375 -0.316406 3.625 -0.695312 3.09375 -1.3125 C 2.5625 -1.9375 2.296875 -2.585938 2.296875 -3.265625 C 2.296875 -4.035156 2.582031 -4.726562 3.15625 -5.34375 C 3.738281 -5.96875 4.601562 -6.296875 5.75 -6.328125 C 5.894531 -6.328125 6.046875 -6.328125 6.203125 -6.328125 C 6.367188 -6.328125 6.523438 -6.3125 6.671875 -6.28125 C 6.523438 -8.664062 6.304688 -10.90625 6.015625 -13 C 5.722656 -15.09375 5.578125 -17.335938 5.578125 -19.734375 C 5.578125 -20.585938 5.617188 -21.457031 5.703125 -22.34375 C 5.796875 -23.226562 5.84375 -24.242188 5.84375 -25.390625 C 4.632812 -25.535156 3.726562 -25.96875 3.125 -26.6875 C 2.519531 -27.414062 2.21875 -28.148438 2.21875 -28.890625 C 2.21875 -29.679688 2.492188 -30.347656 3.046875 -30.890625 C 3.609375 -31.441406 4.347656 -31.71875 5.265625 -31.71875 C 7.179688 -31.71875 8.625 -31.515625 9.59375 -31.109375 C 10.570312 -30.710938 11.226562 -30.09375 11.5625 -29.25 C 11.90625 -28.414062 12.078125 -27.335938 12.078125 -26.015625 C 12.078125 -25.179688 12.03125 -24.34375 11.9375 -23.5 C 11.851562 -22.664062 11.78125 -21.894531 11.71875 -21.1875 C 11.78125 -18.5 11.957031 -15.945312 12.25 -13.53125 C 12.539062 -11.113281 12.75 -8.550781 12.875 -5.84375 L 13.625 -5.84375 C 14.570312 -5.570312 15.265625 -5.148438 15.703125 -4.578125 C 16.140625 -4.003906 16.359375 -3.40625 16.359375 -2.78125 C 16.359375 -2.101562 16.109375 -1.476562 15.609375 -0.90625 C 15.109375 -0.332031 14.375 0.0703125 13.40625 0.3125 C 12.070312 0.28125 10.753906 0.195312 9.453125 0.0625 C 8.160156 -0.0625 6.851562 -0.140625 5.53125 -0.171875 Z M 5.53125 -0.171875 "/></g></g></g></g></g></svg>