<svg xmlns="http://www.w3.org/2000/svg" xmlns:xlink="http://www.w3.org/1999/xlink" width="60" zoomAndPan="magnify" viewBox="0 0 45 44.999999" height="60" preserveAspectRatio="xMidYMid meet" version="1.0"><defs><g/><clipPath id="0df912564f"><path d="M 2.25 8.289062 L 42.75 8.289062 L 42.75 39 L 2.25 39 Z M 2.25 8.289062 " clip-rule="nonzero"/></clipPath><clipPath id="12a453cb57"><path d="M 0.25 0.289062 L 40.75 0.289062 L 40.75 30.878906 L 0.25 30.878906 Z M 0.25 0.289062 " clip-rule="nonzero"/></clipPath><clipPath id="0aead0840b"><rect x="0" width="41" y="0" height="31"/></clipPath><clipPath id="70c2648fe2"><rect x="0" width="24" y="0" height="45"/></clipPath></defs><g clip-path="url(#0df912564f)"><g transform="matrix(1, 0, 0, 1, 2, 8)"><g clip-path="url(#0aead0840b)"><g clip-path="url(#12a453cb57)"><path fill="#ffbd59" d="M 20.5 0.375 C 31.683594 0.375 40.75 7.164062 40.75 15.542969 C 40.75 19.363281 38.863281 22.855469 35.75 25.523438 C 37.285156 27.136719 38.710938 28.996094 39.539062 29.664062 C 37.667969 28.820312 35.890625 27.667969 33.972656 26.867188 C 30.394531 29.257812 25.671875 30.710938 20.5 30.710938 C 9.316406 30.710938 0.25 23.921875 0.25 15.542969 C 0.25 7.164062 9.316406 0.375 20.5 0.375 Z M 20.5 0.375 " fill-opacity="1" fill-rule="nonzero"/></g></g></g></g><g transform="matrix(1, 0, 0, 1, 11, 0)"><g clip-path="url(#70c2648fe2)"><g fill="#ffffff" fill-opacity="1"><g transform="translate(0.565306, 36.015014)"><g><path d="M 9.65625 -7.09375 C 9.300781 -7.132812 8.972656 -7.210938 8.671875 -7.328125 C 8.367188 -7.441406 8.101562 -7.585938 7.875 -7.765625 C 7.820312 -7.035156 7.765625 -6.460938 7.703125 -6.046875 C 7.640625 -5.628906 7.585938 -5.207031 7.546875 -4.78125 C 7.515625 -4.351562 7.5 -3.773438 7.5 -3.046875 C 7.476562 -2.066406 7.195312 -1.332031 6.65625 -0.84375 C 6.113281 -0.351562 5.53125 -0.109375 4.90625 -0.109375 C 4.300781 -0.109375 3.738281 -0.332031 3.21875 -0.78125 C 2.707031 -1.238281 2.390625 -1.929688 2.265625 -2.859375 C 2.265625 -6.003906 2.492188 -9.023438 2.953125 -11.921875 C 3.421875 -14.828125 3.921875 -17.5 4.453125 -19.9375 C 4.703125 -21.125 5.007812 -22.210938 5.375 -23.203125 C 5.738281 -24.203125 6.304688 -25 7.078125 -25.59375 C 7.859375 -26.195312 8.992188 -26.5 10.484375 -26.5 C 10.785156 -26.5 11.078125 -26.4375 11.359375 -26.3125 C 11.648438 -26.1875 11.960938 -26 12.296875 -25.75 C 13.421875 -24.613281 14.429688 -23.175781 15.328125 -21.4375 C 16.222656 -19.707031 17 -17.847656 17.65625 -15.859375 C 18.320312 -13.878906 18.890625 -11.921875 19.359375 -9.984375 C 19.828125 -8.054688 20.195312 -6.320312 20.46875 -4.78125 L 20.921875 -3.734375 C 21.046875 -3.273438 21.109375 -2.894531 21.109375 -2.59375 C 21.109375 -1.820312 20.863281 -1.195312 20.375 -0.71875 C 19.882812 -0.238281 19.3125 0 18.65625 0 C 17.882812 0 17.273438 -0.238281 16.828125 -0.71875 C 16.390625 -1.195312 16.054688 -1.785156 15.828125 -2.484375 C 15.609375 -3.191406 15.425781 -3.894531 15.28125 -4.59375 C 15.144531 -5.300781 15 -5.894531 14.84375 -6.375 C 14.695312 -6.851562 14.460938 -7.09375 14.140625 -7.09375 C 14.109375 -7.09375 14.082031 -7.09375 14.0625 -7.09375 C 14.039062 -7.09375 14.015625 -7.09375 13.984375 -7.09375 Z M 10.21875 -20.203125 C 9.96875 -19.398438 9.648438 -18.523438 9.265625 -17.578125 C 8.890625 -16.640625 8.703125 -15.628906 8.703125 -14.546875 C 8.703125 -13.847656 8.769531 -13.300781 8.90625 -12.90625 C 9.050781 -12.519531 9.363281 -12.328125 9.84375 -12.328125 L 12.859375 -12.328125 C 13.128906 -12.328125 13.265625 -12.441406 13.265625 -12.671875 C 13.265625 -12.765625 13.253906 -12.851562 13.234375 -12.9375 C 13.210938 -13.03125 13.1875 -13.128906 13.15625 -13.234375 C 12.78125 -14.492188 12.359375 -15.644531 11.890625 -16.6875 C 11.429688 -17.726562 10.875 -18.898438 10.21875 -20.203125 Z M 10.21875 -20.203125 "/></g></g></g></g></g></svg>