<svg xmlns="http://www.w3.org/2000/svg" xmlns:xlink="http://www.w3.org/1999/xlink" width="800" zoomAndPan="magnify" viewBox="0 0 600 449.999984" height="600" preserveAspectRatio="xMidYMid meet" version="1.0"><defs><g/><clipPath id="b090c5a345"><path d="M 117 170.195312 L 123 170.195312 L 123 192 L 117 192 Z M 117 170.195312 " clip-rule="nonzero"/></clipPath><clipPath id="f4ede29b0c"><path d="M 77.09375 200 L 92 200 L 92 209 L 77.09375 209 Z M 77.09375 200 " clip-rule="nonzero"/></clipPath><clipPath id="014f04a80e"><path d="M 174 202 L 189 202 L 189 210.695312 L 174 210.695312 Z M 174 202 " clip-rule="nonzero"/></clipPath><clipPath id="ffe5e4a489"><path d="M 200.570312 141 L 448.820312 141 L 448.820312 330.972656 L 200.570312 330.972656 Z M 200.570312 141 " clip-rule="nonzero"/></clipPath><clipPath id="a2087d8afc"><path d="M 1 0.359375 L 248.558594 0.359375 L 248.558594 189.960938 L 1 189.960938 Z M 1 0.359375 " clip-rule="nonzero"/></clipPath><clipPath id="0a84602403"><rect x="0" width="249" y="0" height="190"/></clipPath><clipPath id="e123236441"><path d="M 122.871094 247 L 148 247 L 148 273.132812 L 122.871094 273.132812 Z M 122.871094 247 " clip-rule="nonzero"/></clipPath><clipPath id="db741e7c64"><rect x="0" width="427" y="0" height="96"/></clipPath><clipPath id="bdce721448"><path d="M 434 147 L 583 147 L 583 261 L 434 261 Z M 434 147 " clip-rule="nonzero"/></clipPath><clipPath id="4ea83f5227"><path d="M 460.25 147.527344 L 582.605469 204.574219 L 556.621094 260.3125 L 434.261719 203.269531 Z M 460.25 147.527344 " clip-rule="nonzero"/></clipPath><clipPath id="bf3572ea1e"><path d="M 100 66 L 125 66 L 125 71 L 100 71 Z M 100 66 " clip-rule="nonzero"/></clipPath><clipPath id="ca0a36e688"><path d="M 26.25 0.527344 L 148.605469 57.574219 L 122.621094 113.3125 L 0.261719 56.269531 Z M 26.25 0.527344 " clip-rule="nonzero"/></clipPath><clipPath id="2b04dab9fb"><path d="M 148.425781 57.488281 L 26.070312 0.445312 L 0.0820312 56.183594 L 122.4375 113.226562 Z M 148.425781 57.488281 " clip-rule="nonzero"/></clipPath><clipPath id="1dfc33732f"><path d="M 106 57 L 119 57 L 119 79 L 106 79 Z M 106 57 " clip-rule="nonzero"/></clipPath><clipPath id="3820acd337"><path d="M 26.25 0.527344 L 148.605469 57.574219 L 122.621094 113.3125 L 0.261719 56.269531 Z M 26.25 0.527344 " clip-rule="nonzero"/></clipPath><clipPath id="bc8dbc9f86"><path d="M 148.425781 57.488281 L 26.070312 0.445312 L 0.0820312 56.183594 L 122.4375 113.226562 Z M 148.425781 57.488281 " clip-rule="nonzero"/></clipPath><clipPath id="b0e497dd05"><path d="M 107 58 L 120 58 L 120 78 L 107 78 Z M 107 58 " clip-rule="nonzero"/></clipPath><clipPath id="d199a19b68"><path d="M 26.25 0.527344 L 148.605469 57.574219 L 122.621094 113.3125 L 0.261719 56.269531 Z M 26.25 0.527344 " clip-rule="nonzero"/></clipPath><clipPath id="944f7f4dd6"><path d="M 148.425781 57.488281 L 26.070312 0.445312 L 0.0820312 56.183594 L 122.4375 113.226562 Z M 148.425781 57.488281 " clip-rule="nonzero"/></clipPath><clipPath id="77cdfce921"><path d="M 104 64 L 123 64 L 123 74 L 104 74 Z M 104 64 " clip-rule="nonzero"/></clipPath><clipPath id="1e051f84e9"><path d="M 26.25 0.527344 L 148.605469 57.574219 L 122.621094 113.3125 L 0.261719 56.269531 Z M 26.25 0.527344 " clip-rule="nonzero"/></clipPath><clipPath id="eb65797355"><path d="M 148.425781 57.488281 L 26.070312 0.445312 L 0.0820312 56.183594 L 122.4375 113.226562 Z M 148.425781 57.488281 " clip-rule="nonzero"/></clipPath><clipPath id="d00cd7603e"><path d="M 77 45 L 97 45 L 97 70 L 77 70 Z M 77 45 " clip-rule="nonzero"/></clipPath><clipPath id="dac07f1328"><path d="M 26.25 0.527344 L 148.605469 57.574219 L 122.621094 113.3125 L 0.261719 56.269531 Z M 26.25 0.527344 " clip-rule="nonzero"/></clipPath><clipPath id="586f1c4b1b"><path d="M 148.425781 57.488281 L 26.070312 0.445312 L 0.0820312 56.183594 L 122.4375 113.226562 Z M 148.425781 57.488281 " clip-rule="nonzero"/></clipPath><clipPath id="e89e04aabd"><path d="M 67 35 L 74 35 L 74 54 L 67 54 Z M 67 35 " clip-rule="nonzero"/></clipPath><clipPath id="a1e6e3fb49"><path d="M 26.25 0.527344 L 148.605469 57.574219 L 122.621094 113.3125 L 0.261719 56.269531 Z M 26.25 0.527344 " clip-rule="nonzero"/></clipPath><clipPath id="eb67e52fa2"><path d="M 148.425781 57.488281 L 26.070312 0.445312 L 0.0820312 56.183594 L 122.4375 113.226562 Z M 148.425781 57.488281 " clip-rule="nonzero"/></clipPath><clipPath id="c15e832968"><path d="M 63 56 L 69 56 L 69 62 L 63 62 Z M 63 56 " clip-rule="nonzero"/></clipPath><clipPath id="21270e1353"><path d="M 26.25 0.527344 L 148.605469 57.574219 L 122.621094 113.3125 L 0.261719 56.269531 Z M 26.25 0.527344 " clip-rule="nonzero"/></clipPath><clipPath id="ed62385a1d"><path d="M 148.425781 57.488281 L 26.070312 0.445312 L 0.0820312 56.183594 L 122.4375 113.226562 Z M 148.425781 57.488281 " clip-rule="nonzero"/></clipPath><clipPath id="03e61b13db"><path d="M 53 30 L 56 30 L 56 58 L 53 58 Z M 53 30 " clip-rule="nonzero"/></clipPath><clipPath id="8e4d64ee4b"><path d="M 26.25 0.527344 L 148.605469 57.574219 L 122.621094 113.3125 L 0.261719 56.269531 Z M 26.25 0.527344 " clip-rule="nonzero"/></clipPath><clipPath id="066cb828fe"><path d="M 148.425781 57.488281 L 26.070312 0.445312 L 0.0820312 56.183594 L 122.4375 113.226562 Z M 148.425781 57.488281 " clip-rule="nonzero"/></clipPath><clipPath id="070cf477bd"><path d="M 39 38 L 63 38 L 63 42 L 39 42 Z M 39 38 " clip-rule="nonzero"/></clipPath><clipPath id="ac1da56e74"><path d="M 26.25 0.527344 L 148.605469 57.574219 L 122.621094 113.3125 L 0.261719 56.269531 Z M 26.25 0.527344 " clip-rule="nonzero"/></clipPath><clipPath id="fa18f242ea"><path d="M 148.425781 57.488281 L 26.070312 0.445312 L 0.0820312 56.183594 L 122.4375 113.226562 Z M 148.425781 57.488281 " clip-rule="nonzero"/></clipPath><clipPath id="78f9d0b284"><path d="M 45 30 L 49 30 L 49 58 L 45 58 Z M 45 30 " clip-rule="nonzero"/></clipPath><clipPath id="41e5695f4e"><path d="M 26.25 0.527344 L 148.605469 57.574219 L 122.621094 113.3125 L 0.261719 56.269531 Z M 26.25 0.527344 " clip-rule="nonzero"/></clipPath><clipPath id="764920d4d6"><path d="M 148.425781 57.488281 L 26.070312 0.445312 L 0.0820312 56.183594 L 122.4375 113.226562 Z M 148.425781 57.488281 " clip-rule="nonzero"/></clipPath><clipPath id="bd462bb3fc"><path d="M 39 48 L 64 48 L 64 52 L 39 52 Z M 39 48 " clip-rule="nonzero"/></clipPath><clipPath id="b75d152fab"><path d="M 26.25 0.527344 L 148.605469 57.574219 L 122.621094 113.3125 L 0.261719 56.269531 Z M 26.25 0.527344 " clip-rule="nonzero"/></clipPath><clipPath id="2b53f1630b"><path d="M 148.425781 57.488281 L 26.070312 0.445312 L 0.0820312 56.183594 L 122.4375 113.226562 Z M 148.425781 57.488281 " clip-rule="nonzero"/></clipPath><clipPath id="ea6dd257a3"><path d="M 25 29 L 36 29 L 36 49 L 25 49 Z M 25 29 " clip-rule="nonzero"/></clipPath><clipPath id="3669a3c976"><path d="M 26.25 0.527344 L 148.605469 57.574219 L 122.621094 113.3125 L 0.261719 56.269531 Z M 26.25 0.527344 " clip-rule="nonzero"/></clipPath><clipPath id="df3930a685"><path d="M 148.425781 57.488281 L 26.070312 0.445312 L 0.0820312 56.183594 L 122.4375 113.226562 Z M 148.425781 57.488281 " clip-rule="nonzero"/></clipPath><clipPath id="8e1ab75bbb"><path d="M 31 50 L 36 50 L 36 56 L 31 56 Z M 31 50 " clip-rule="nonzero"/></clipPath><clipPath id="1fbe40f014"><path d="M 26.25 0.527344 L 148.605469 57.574219 L 122.621094 113.3125 L 0.261719 56.269531 Z M 26.25 0.527344 " clip-rule="nonzero"/></clipPath><clipPath id="ae92cfe082"><path d="M 148.425781 57.488281 L 26.070312 0.445312 L 0.0820312 56.183594 L 122.4375 113.226562 Z M 148.425781 57.488281 " clip-rule="nonzero"/></clipPath><clipPath id="0aa0a60208"><path d="M 11 19 L 136 19 L 136 91 L 11 91 Z M 11 19 " clip-rule="nonzero"/></clipPath><clipPath id="c7ac77f28f"><path d="M 26.25 0.527344 L 148.605469 57.574219 L 122.621094 113.3125 L 0.261719 56.269531 Z M 26.25 0.527344 " clip-rule="nonzero"/></clipPath><clipPath id="ba038772c4"><path d="M 148.425781 57.488281 L 26.070312 0.445312 L 0.0820312 56.183594 L 122.4375 113.226562 Z M 148.425781 57.488281 " clip-rule="nonzero"/></clipPath><clipPath id="26cef3be15"><rect x="0" width="149" y="0" height="114"/></clipPath></defs><path fill="#fff7c9" d="M 103.171875 193.789062 C 103.269531 193.328125 103.171875 192.804688 102.808594 192.3125 C 102.414062 191.785156 102.019531 191.257812 101.628906 190.734375 C 99.851562 187.546875 97.714844 184.523438 95.351562 181.695312 C 94.234375 180.382812 92.097656 181.894531 92.65625 183.371094 C 92.65625 183.636719 92.6875 183.964844 92.851562 184.261719 C 93.246094 185.046875 93.675781 185.804688 94.132812 186.558594 C 94.660156 190.964844 97.488281 194.941406 101.363281 197.011719 C 102.910156 197.832031 104.289062 196.222656 103.632812 194.742188 C 103.5 194.414062 103.335938 194.117188 103.171875 193.789062 Z M 103.171875 193.789062 " fill-opacity="1" fill-rule="nonzero"/><g clip-path="url(#b090c5a345)"><path fill="#fff7c9" d="M 122.722656 174.597656 C 122.789062 173.972656 122.429688 173.546875 121.96875 173.316406 C 121.9375 172.988281 121.902344 172.660156 121.871094 172.296875 C 121.707031 170.261719 118.683594 170.195312 118.683594 172.296875 C 118.683594 174.074219 118.683594 175.816406 118.683594 177.589844 C 118.125 179.988281 117.925781 182.484375 117.925781 184.984375 C 117.828125 185.441406 117.730469 185.871094 117.628906 186.332031 C 117.597656 186.527344 117.859375 186.625 117.960938 186.496094 C 118.023438 187.808594 118.15625 189.125 118.289062 190.40625 C 118.453125 191.753906 120.71875 192.410156 120.949219 190.765625 C 120.949219 190.699219 120.984375 190.601562 120.984375 190.535156 C 121.441406 190.339844 121.804688 189.878906 121.835938 189.222656 C 121.871094 188.269531 121.871094 187.285156 121.902344 186.332031 C 122.460938 186.132812 122.953125 185.640625 122.921875 184.949219 C 122.855469 182.550781 122.660156 180.152344 122.429688 177.753906 C 122.527344 176.703125 122.625 175.648438 122.722656 174.597656 Z M 122.722656 174.597656 " fill-opacity="1" fill-rule="nonzero"/></g><path fill="#fff7c9" d="M 148.09375 174.597656 C 145.332031 179.296875 142.96875 184.097656 140.765625 189.058594 C 140.566406 189.484375 141.160156 189.878906 141.421875 189.453125 C 141.519531 189.289062 141.621094 189.089844 141.75 188.925781 C 141.914062 189.519531 142.375 190.011719 142.933594 190.207031 C 143.65625 190.964844 145.265625 190.964844 145.761719 189.617188 C 146.746094 186.890625 147.863281 184.195312 148.71875 181.402344 C 149.242188 180.121094 149.769531 178.871094 150.328125 177.621094 C 150.589844 177.0625 150.523438 176.503906 150.296875 176.078125 C 150.359375 175.914062 150.394531 175.78125 150.460938 175.617188 C 150.917969 174.203125 148.816406 173.382812 148.09375 174.597656 Z M 148.09375 174.597656 " fill-opacity="1" fill-rule="nonzero"/><path fill="#fff7c9" d="M 171.984375 190.699219 C 171.886719 190.503906 171.785156 190.304688 171.621094 190.175781 C 172.082031 189.746094 172.082031 189.125 171.851562 188.664062 C 171.949219 188.566406 172.050781 188.464844 172.113281 188.402344 C 173.363281 187.21875 171.6875 184.917969 170.242188 185.96875 C 167.976562 187.578125 166.003906 189.519531 164.394531 191.753906 C 163.800781 192.441406 163.210938 193.132812 162.683594 193.824219 C 162.683594 193.824219 162.652344 193.855469 162.652344 193.855469 C 162.585938 193.953125 162.519531 194.019531 162.453125 194.117188 C 161.929688 194.777344 161.46875 195.464844 161.105469 196.1875 C 160.910156 196.582031 161.371094 197.207031 161.796875 196.878906 C 161.894531 196.8125 161.960938 196.746094 162.058594 196.683594 C 162.222656 197.46875 162.980469 197.996094 163.800781 197.863281 C 164.328125 198.160156 164.984375 198.191406 165.542969 197.667969 C 167.582031 195.828125 169.78125 194.183594 172.113281 192.769531 C 172.871094 192.246094 172.675781 191.03125 171.984375 190.699219 Z M 171.984375 190.699219 " fill-opacity="1" fill-rule="nonzero"/><g clip-path="url(#f4ede29b0c)"><path fill="#fff7c9" d="M 90.585938 204.402344 C 89.699219 204.140625 88.8125 203.878906 87.921875 203.617188 C 85.789062 201.941406 83.453125 200.921875 80.726562 200.527344 C 79.839844 200.394531 79.085938 201.019531 79.28125 201.972656 C 79.347656 202.300781 79.476562 202.597656 79.609375 202.859375 C 78.066406 202.628906 77.113281 204.832031 78.589844 205.652344 C 81.484375 207.261719 84.636719 208.347656 87.957031 208.609375 C 88.84375 208.675781 89.335938 208.019531 89.433594 207.296875 C 89.699219 207.296875 89.929688 207.328125 90.191406 207.328125 C 91.898438 207.394531 92.164062 204.863281 90.585938 204.402344 Z M 90.585938 204.402344 " fill-opacity="1" fill-rule="nonzero"/></g><g clip-path="url(#014f04a80e)"><path fill="#fff7c9" d="M 188.28125 206.277344 C 187.496094 206.082031 186.671875 206.113281 185.851562 206.210938 C 185.851562 206.179688 185.851562 206.144531 185.851562 206.113281 C 186.246094 205.851562 186.441406 205.457031 186.441406 205.0625 C 186.574219 204.996094 186.707031 204.929688 186.835938 204.863281 C 188.117188 204.238281 187.199219 202.234375 185.882812 202.597656 C 183.125 203.285156 180.527344 204.371094 178.097656 205.75 C 177.40625 205.980469 176.75 206.210938 176.058594 206.472656 C 175.761719 206.574219 175.632812 206.902344 175.695312 207.164062 C 175.566406 207.230469 175.433594 207.296875 175.304688 207.363281 C 174.21875 207.921875 174.742188 209.660156 175.761719 209.726562 C 175.894531 210.386719 176.484375 210.976562 177.339844 210.8125 C 178.359375 210.648438 179.3125 210.386719 180.230469 210.023438 C 181.183594 209.792969 182.136719 209.5625 183.089844 209.367188 C 184.832031 209.003906 186.871094 208.972656 188.480469 208.117188 C 189.234375 207.722656 189.105469 206.472656 188.28125 206.277344 Z M 188.28125 206.277344 " fill-opacity="1" fill-rule="nonzero"/></g><g clip-path="url(#ffe5e4a489)"><g transform="matrix(1, 0, 0, 1, 200, 141)"><g clip-path="url(#0a84602403)"><g clip-path="url(#a2087d8afc)"><path fill="#fff7c9" d="M 103.386719 83.195312 C 96.664062 102.496094 90.765625 142.175781 108.414062 156.882812 C 123.546875 169.488281 149.640625 153.394531 149.96875 135.082031 L 147.699219 135.167969 C 145.441406 145.78125 130.238281 156.507812 119.65625 155.074219 C 109.472656 153.691406 104.019531 137.710938 103.367188 128.914062 C 102.59375 118.476562 105.558594 88.628906 111.148438 80.046875 C 112.679688 77.695312 117.308594 75.945312 116.855469 73.007812 C 115.753906 65.847656 103.867188 74.652344 100.425781 75.808594 C 99.746094 76.035156 96.964844 77.296875 97.484375 75.820312 L 113.449219 40.535156 C 110.367188 38.15625 107.203125 43.785156 105.507812 46.101562 C 101.027344 52.214844 92.074219 68.355469 89.996094 75.398438 C 87.046875 85.410156 96.230469 86.050781 103.382812 83.195312 Z M 84.332031 8.792969 C 101.828125 17.839844 118.691406 28.148438 136.390625 36.921875 C 156.726562 47.007812 179.136719 55.628906 198.921875 66.375 C 201.648438 67.855469 217.324219 77.402344 218.09375 79.074219 C 218.734375 80.460938 218.007812 81.328125 216.773438 81.925781 C 210.953125 80.277344 204.921875 78.414062 199.277344 76.042969 C 187.402344 71.058594 176.246094 64.433594 164.726562 58.707031 C 135.125 43.992188 105.335938 29.359375 76.671875 12.917969 C 74.449219 11.644531 67.15625 7.839844 68.4375 4.929688 C 69.285156 3.390625 70.566406 2.910156 72.28125 3.105469 C 73.855469 3.289062 82.234375 7.707031 84.339844 8.789062 Z M 157.613281 170.730469 C 160.554688 161.71875 170.429688 156.410156 171.734375 146.527344 C 174.566406 125.09375 129.890625 116.871094 149.660156 93.199219 C 153.128906 89.050781 159.058594 86.839844 159.941406 80.484375 C 161.089844 72.207031 157.902344 62.058594 151.15625 56.945312 C 151.425781 54.8125 153.835938 55.425781 155.316406 55.742188 C 165.472656 57.929688 170.441406 77.824219 166.382812 86.339844 C 162.328125 94.855469 147.53125 99.414062 155.378906 109.332031 C 162.984375 118.953125 177.699219 125.183594 179.390625 139.566406 C 181.941406 161.273438 162.109375 163.195312 160.648438 177.898438 C 160.195312 182.441406 161.867188 183.746094 165.753906 185.632812 C 167.792969 186.621094 171.6875 186.394531 171.199219 189.324219 C 159.6875 187.894531 153.625 182.96875 157.617188 170.734375 Z M 135.496094 1.796875 C 158.910156 -4.964844 186.21875 13.96875 199.738281 31.949219 C 204.785156 38.652344 216.992188 58.515625 217.121094 66.453125 C 217.164062 69.074219 215.464844 74.257812 212.132812 72.03125 C 210.140625 70.699219 202.882812 53.050781 200.773438 49.195312 C 188.710938 27.109375 164.09375 4.363281 136.867188 9.652344 C 129.175781 11.144531 119.351562 15.734375 119.28125 24.796875 L 117.550781 24.820312 C 113.203125 12.441406 125.183594 4.773438 135.5 1.792969 Z M 211.996094 167.332031 C 217.722656 153.558594 206.304688 133.125 195.324219 124.8125 C 185.929688 117.699219 176.804688 116.804688 177.6875 102.363281 C 178.296875 92.476562 181.617188 87.367188 178.5625 76.710938 C 178.035156 74.867188 175.59375 70.191406 176.179688 69.054688 C 179.847656 65.210938 183.976562 73.707031 185.039062 76.71875 C 187.613281 84.015625 186.074219 89.277344 185.910156 96.429688 C 185.828125 100.027344 185.761719 103.785156 186.242188 107.355469 C 192.410156 113.648438 200.925781 116.492188 206.875 123.277344 C 212.597656 129.804688 218.578125 143.847656 218.949219 152.480469 C 219.234375 159.171875 216.121094 172.152344 208.347656 173.398438 C 208.4375 170.75 210.910156 169.945312 211.996094 167.328125 Z M 194.773438 77.296875 C 195.484375 83.472656 196.851562 87.5625 202.628906 90.382812 C 210.085938 94.019531 217.910156 95.480469 225.039062 100.398438 C 236.660156 108.421875 240.324219 126.53125 238.367188 139.757812 L 236.648438 139.800781 C 236.34375 124.359375 226.214844 109.859375 213.074219 102.34375 C 208.390625 99.667969 199.390625 96.757812 196.167969 93.015625 C 192.914062 89.246094 190.5625 81.070312 194.777344 77.296875 Z M 236.0625 92.328125 C 239.375 95.074219 246.269531 105.816406 247.976562 109.890625 C 248.367188 110.832031 248.570312 111.644531 248.433594 112.667969 C 246.914062 113.003906 246.945312 112.410156 246.171875 111.695312 C 242.054688 107.875 239.003906 101.796875 234.292969 97.628906 C 229.15625 93.085938 222.539062 91.546875 218.390625 88.179688 C 217.414062 87.382812 216.980469 86.921875 217.1875 85.554688 C 223.453125 85.636719 231.1875 88.285156 236.0625 92.328125 Z M 140.953125 69.414062 C 140.636719 66.125 131.617188 58.066406 128.320312 57.386719 C 125.910156 56.890625 122.113281 58.402344 121.03125 57.003906 C 119.328125 54.808594 122.214844 51.394531 124.445312 50.886719 C 131.242188 49.34375 136.261719 54.535156 139.601562 59.65625 C 141.566406 62.667969 146.972656 71.269531 140.539062 71.984375 C 140.421875 71.121094 141.035156 70.21875 140.953125 69.414062 Z M 43.539062 99.113281 C 43.890625 99.113281 46.132812 100.671875 46.1875 99.121094 C 28.429688 90.773438 31.683594 80.214844 51.496094 87.316406 C 47.011719 82.886719 39.816406 72.496094 52.113281 74.621094 C 63.046875 76.507812 76.554688 89.015625 81.875 98.511719 C 90.257812 113.472656 88.523438 127.9375 89.828125 144.214844 C 90.433594 151.785156 92.65625 161.144531 92.648438 168.40625 C 92.648438 170.121094 92.101562 171.234375 90.417969 171.640625 C 90.191406 165.285156 87.996094 159.257812 86.972656 152.96875 C 84.425781 137.308594 84.738281 116.683594 76.949219 102.847656 C 71.492188 93.148438 61.65625 82.96875 50.90625 79.664062 C 54.703125 83.140625 58.273438 87.085938 62.101562 90.574219 C 63.851562 92.171875 70.613281 96.679688 70.84375 98.351562 C 71.695312 104.503906 63.976562 97.226562 62.296875 96.273438 C 56.171875 92.773438 49.0625 90.101562 42.058594 89.097656 C 46.003906 93.210938 63.863281 100.277344 65.519531 105.429688 C 68.234375 113.875 55.960938 105.375 53.871094 104.699219 C 49.410156 103.253906 43.207031 102.742188 38.527344 102.660156 L 56.8125 110.015625 C 58.367188 110.9375 61.5625 112.519531 61.386719 114.644531 C 61.042969 118.851562 52.90625 115.386719 50.015625 115.042969 C 45.945312 114.558594 42.003906 114.957031 37.933594 115.042969 C 41.292969 117.84375 47.0625 118.203125 51.351562 119.597656 C 54.941406 120.769531 66.652344 124.496094 67.742188 127.980469 C 68.632812 130.84375 68.140625 142.273438 68.03125 146.019531 C 67.875 151.222656 67.261719 156.6875 66.804688 161.886719 L 66.828125 189.921875 L 65.0625 189.921875 C 63.699219 170.183594 60.613281 150.136719 62.097656 130.394531 C 55.585938 127.90625 48.515625 126.871094 42.078125 124.164062 C 30.492188 119.296875 26.160156 111.769531 42.652344 110.902344 L 34.007812 106.882812 C 28.664062 104.058594 27.394531 99.960938 34.699219 99.117188 C 37.304688 98.816406 40.796875 99.117188 43.542969 99.117188 Z M 36.292969 32.65625 C 40.109375 33.414062 44.933594 34.554688 48.679688 35.605469 C 50.921875 36.234375 59.105469 38.574219 60.539062 39.519531 C 61.96875 40.46875 61.714844 46.996094 61.519531 48.996094 L 59.761719 49.003906 L 57.578125 43.089844 L 24.972656 37.199219 C 26.097656 39.203125 22.304688 42.46875 23.785156 43.402344 L 64.472656 52.546875 L 64.214844 54.335938 C 63.5625 55.226562 59.625 54.976562 58.296875 54.882812 C 50.304688 54.3125 39.417969 52.097656 31.347656 50.582031 C 23.46875 49.101562 15.757812 46.890625 7.875 45.464844 C 8.976562 50.105469 9.234375 54.847656 9.046875 59.613281 C 19.125 59.5625 29.332031 59.605469 39.339844 60.867188 C 42.5 61.265625 57.074219 63.597656 57.910156 66.511719 C 58.753906 69.449219 55.046875 70.011719 52.96875 70.214844 C 40.71875 71.4375 26.71875 66.601562 14.359375 66.097656 C 16.710938 77.703125 15.648438 89.476562 16.097656 101.203125 C 16.257812 105.273438 17.152344 110.050781 17.324219 114.125 C 17.574219 119.882812 17.019531 125.707031 17.382812 131.460938 C 21.511719 132.484375 25.78125 132.3125 29.945312 133.347656 C 34.765625 134.546875 39.519531 137.324219 44.152344 139.074219 L 49.4375 130.375 C 50.019531 130.976562 50.675781 131.195312 50.644531 132.171875 C 50.609375 133.148438 47.558594 143.703125 47.054688 144.492188 C 44.640625 148.28125 43.207031 145.046875 41.039062 144.066406 C 38.042969 142.710938 33.878906 141.128906 30.71875 140.234375 C 27.367188 139.289062 14.449219 137.738281 13.152344 135.835938 C 12.769531 135.277344 12.292969 133.621094 12.132812 132.875 C 9.023438 118.070312 9.1875 97.121094 8.460938 81.714844 C 8.214844 76.515625 8.171875 71.289062 7.867188 66.09375 C 5.800781 66.351562 4.183594 65.875 3.273438 63.910156 C 3.796875 57.613281 0.566406 48.6875 1.351562 42.773438 C 2.257812 35.972656 14.324219 41.570312 18.476562 41.917969 C 16.417969 27.242188 26.535156 30.722656 36.289062 32.65625 Z M 66.21875 63.414062 C 66.273438 61.875 66.726562 56.566406 67.089844 55.445312 C 68.222656 51.949219 72.914062 52.976562 72.765625 56.929688 C 72.71875 58.140625 69.535156 70.148438 69.042969 70.65625 C 65.554688 74.25 66.140625 65.421875 66.21875 63.417969 Z M 66.21875 63.414062 " fill-opacity="1" fill-rule="nonzero"/></g></g></g></g><g clip-path="url(#e123236441)"><path fill="#fff7c9" d="M 144.464844 256.890625 C 142.585938 255.730469 140.628906 254.679688 138.6875 253.628906 C 134.710938 251.472656 125.957031 247.507812 125.734375 247.644531 C 125.019531 247.421875 124.191406 247.691406 123.664062 248.214844 C 122.875 249 122.871094 250.183594 122.921875 251.21875 C 123.183594 256.878906 123.820312 262.523438 123.648438 268.195312 C 123.59375 269.964844 123.253906 273.132812 125.878906 273.15625 C 126.125 273.15625 126.359375 273.113281 126.570312 273.03125 C 126.789062 273.175781 145.921875 262.25 145.921875 262.25 C 146.082031 262.15625 146.910156 261.75 147 261.316406 C 147.414062 259.320312 146.054688 257.867188 144.464844 256.890625 Z M 125.320312 263.859375 C 125.304688 263.886719 125.289062 263.921875 125.277344 263.953125 C 125.265625 263.613281 125.257812 263.277344 125.246094 262.9375 C 125.273438 263.222656 125.300781 263.511719 125.324219 263.796875 C 125.324219 263.816406 125.324219 263.835938 125.320312 263.859375 Z M 125.945312 271.492188 C 125.980469 271.421875 126.007812 271.34375 126.023438 271.25 C 126.023438 271.234375 126.027344 271.214844 126.03125 271.199219 C 126.046875 271.347656 126.042969 271.453125 125.945312 271.492188 Z M 127.023438 249.792969 C 127.019531 249.730469 127.015625 249.664062 127.007812 249.601562 C 127.054688 249.621094 127.097656 249.640625 127.140625 249.664062 C 127.097656 249.703125 127.058594 249.746094 127.023438 249.792969 Z M 127.207031 253.050781 C 127.203125 252.972656 127.199219 252.894531 127.195312 252.8125 C 129.574219 254.734375 132.066406 256.496094 134.667969 258.082031 C 133.535156 257.5 132.40625 256.910156 131.28125 256.304688 C 130.5 255.882812 129.722656 255.457031 128.949219 255.023438 C 128.785156 254.933594 128.574219 254.832031 128.367188 254.714844 C 128.050781 254.253906 127.742188 253.789062 127.453125 253.3125 C 127.382812 253.199219 127.300781 253.117188 127.207031 253.050781 Z M 128.957031 264.34375 C 128.28125 263.429688 127.769531 262.375 127.796875 261.292969 C 128.183594 262.308594 128.570312 263.328125 128.957031 264.34375 Z M 127.4375 268.84375 C 127.40625 268.5 127.371094 268.15625 127.339844 267.808594 C 127.570312 268.015625 127.988281 268.375 127.988281 268.363281 C 127.976562 268.488281 127.703125 268.679688 127.4375 268.84375 Z M 129.558594 268.011719 C 129.378906 267.386719 128.785156 266.988281 128.34375 266.519531 C 128.234375 266.402344 128.128906 266.28125 128.03125 266.160156 C 128.308594 266.347656 128.582031 266.539062 128.867188 266.71875 C 129.066406 266.925781 129.265625 267.128906 129.472656 267.324219 C 129.617188 267.460938 129.757812 267.59375 129.902344 267.722656 C 129.800781 267.820312 129.679688 267.921875 129.558594 268.011719 Z M 133.960938 264.972656 C 133.453125 264.464844 132.949219 263.960938 132.445312 263.453125 C 133.082031 263.945312 133.746094 264.402344 134.441406 264.816406 C 134.277344 264.855469 134.117188 264.910156 133.960938 264.972656 Z M 136.605469 264.574219 C 136.605469 264.472656 136.582031 264.371094 136.527344 264.269531 C 136.648438 264.320312 136.773438 264.367188 136.894531 264.40625 C 136.796875 264.460938 136.699219 264.519531 136.605469 264.574219 Z M 132.253906 259.214844 C 132.082031 259.050781 131.910156 258.886719 131.742188 258.722656 C 132.664062 259.039062 133.546875 259.546875 134.339844 260.023438 C 135.714844 260.851562 136.96875 261.839844 138.113281 262.957031 C 136.859375 263.296875 132.785156 259.707031 132.253906 259.214844 Z M 141.261719 259.824219 C 137.785156 258.140625 134.457031 256.164062 131.320312 253.917969 C 134.734375 255.695312 138.125 257.527344 141.5 259.382812 C 141.40625 259.523438 141.328125 259.671875 141.261719 259.824219 Z M 144.25 261.335938 C 144.324219 261.230469 144.390625 261.121094 144.445312 261.007812 C 144.507812 261.042969 144.570312 261.078125 144.632812 261.113281 C 144.503906 261.1875 144.378906 261.261719 144.25 261.335938 Z M 144.25 261.335938 " fill-opacity="1" fill-rule="nonzero"/></g><path fill="#fff7c9" d="M 173.71875 257.804688 C 170.4375 255.734375 167.058594 253.820312 163.652344 251.957031 C 161.949219 251.027344 160.234375 250.109375 158.523438 249.191406 C 157.386719 248.585938 155.46875 246.886719 154.195312 247.742188 C 154.15625 247.769531 154.125 247.796875 154.09375 247.824219 C 153.65625 247.761719 153.167969 248.011719 153.171875 248.582031 C 153.246094 256.398438 153.320312 264.21875 153.398438 272.039062 C 153.398438 272.394531 153.640625 272.703125 153.980469 272.804688 C 154.640625 273 155.277344 273 155.9375 272.796875 C 156.0625 272.761719 156.160156 272.703125 156.242188 272.632812 C 156.277344 272.601562 157.570312 272.402344 157.75 272.34375 C 158.617188 272.058594 159.460938 271.640625 160.292969 271.273438 C 162.054688 270.496094 163.789062 269.652344 165.492188 268.753906 C 167.554688 267.660156 169.566406 266.476562 171.523438 265.210938 C 173.113281 264.183594 175.234375 263.230469 175.75 261.25 C 176.105469 259.871094 175.253906 258.769531 173.71875 257.804688 Z M 162.820312 256.804688 C 161.101562 255.945312 159.195312 255.082031 157.65625 253.867188 C 157.671875 253.832031 157.683594 253.796875 157.695312 253.757812 C 157.699219 253.734375 157.703125 253.714844 157.707031 253.691406 C 159.308594 254.886719 161.117188 255.761719 162.820312 256.804688 Z M 163.535156 259 C 164.574219 259.523438 165.621094 260.035156 166.683594 260.515625 C 166.28125 260.359375 165.878906 260.207031 165.46875 260.0625 C 164.8125 259.726562 164.167969 259.371094 163.535156 259 Z M 157.261719 263.34375 C 157.484375 263.746094 157.730469 264.140625 158 264.523438 C 157.886719 264.695312 157.847656 264.910156 157.933594 265.15625 C 158.03125 265.4375 158.125 265.71875 158.210938 266 C 157.980469 265.621094 157.773438 265.230469 157.589844 264.820312 C 157.46875 264.550781 157.363281 264.269531 157.265625 263.988281 C 157.265625 263.773438 157.261719 263.558594 157.261719 263.34375 Z M 160.347656 261.769531 C 159.699219 260.980469 159.105469 260.144531 158.558594 259.28125 C 158.519531 259.214844 158.46875 259.140625 158.410156 259.058594 C 158.414062 259.058594 158.417969 259.0625 158.421875 259.066406 C 159.765625 260.386719 160.929688 261.871094 161.882812 263.484375 C 161.34375 262.9375 160.832031 262.363281 160.347656 261.769531 Z M 163.429688 261.113281 C 163.917969 261.261719 164.402344 261.417969 164.886719 261.585938 C 165.875 262.085938 166.886719 262.539062 167.925781 262.9375 C 166.441406 263.382812 164.457031 262.085938 163.429688 261.113281 Z M 157.292969 267.578125 C 157.589844 268.003906 157.917969 268.414062 158.269531 268.800781 C 158.25 268.808594 158.230469 268.820312 158.207031 268.828125 C 157.789062 268.992188 157.5 268.867188 157.300781 268.597656 C 157.296875 268.257812 157.292969 267.917969 157.292969 267.578125 Z M 160.484375 267.761719 C 160.492188 267.613281 160.488281 267.460938 160.472656 267.3125 C 160.574219 267.402344 160.675781 267.492188 160.773438 267.578125 C 160.675781 267.640625 160.582031 267.703125 160.484375 267.761719 Z M 162.480469 266.519531 C 162.429688 266.386719 162.375 266.253906 162.320312 266.121094 C 162.433594 266.21875 162.546875 266.316406 162.660156 266.410156 C 162.601562 266.445312 162.542969 266.484375 162.480469 266.519531 Z M 164.589844 265.253906 C 164.464844 264.964844 164.335938 264.679688 164.203125 264.394531 C 164.476562 264.597656 164.757812 264.796875 165.046875 264.988281 C 164.894531 265.078125 164.742188 265.164062 164.589844 265.253906 Z M 160.941406 252.34375 C 160.789062 252.339844 160.648438 252.382812 160.527344 252.457031 C 159.792969 251.960938 159.066406 251.460938 158.339844 250.949219 C 159.210938 251.410156 160.074219 251.875 160.941406 252.34375 Z M 154.976562 271.359375 C 154.972656 271.003906 154.96875 270.648438 154.96875 270.292969 C 155.007812 270.625 155.046875 270.957031 155.085938 271.289062 C 155.089844 271.3125 155.09375 271.332031 155.097656 271.351562 C 155.058594 271.355469 155.015625 271.359375 154.976562 271.359375 Z M 154.976562 271.359375 " fill-opacity="1" fill-rule="nonzero"/><path fill="#fff7c9" d="M 202.558594 257.820312 C 200.773438 256.667969 198.988281 255.515625 197.199219 254.367188 C 194.128906 252.394531 191.027344 250.410156 187.777344 248.753906 C 186.847656 248.28125 183.988281 246.984375 183.296875 248.371094 C 183.140625 248.683594 183.132812 249.046875 183.125 249.398438 C 183.042969 254.121094 182.921875 258.847656 182.921875 263.570312 C 182.902344 264.75 182.886719 265.929688 182.867188 267.113281 C 182.851562 268.253906 182.730469 269.449219 182.875 270.585938 C 183.09375 272.320312 184.160156 272.824219 185.667969 272.027344 C 189.945312 269.757812 194.1875 267.429688 198.394531 265.03125 C 200.0625 264.082031 203.28125 262.972656 204.449219 261.449219 C 204.539062 261.328125 204.613281 261.210938 204.671875 261.09375 C 205.386719 259.660156 203.644531 258.519531 202.558594 257.820312 Z M 184.4375 266.035156 C 184.460938 264.496094 184.484375 262.953125 184.503906 261.414062 C 184.535156 261.589844 184.5625 261.765625 184.589844 261.941406 C 184.566406 263.304688 184.515625 264.671875 184.4375 266.035156 Z M 186.960938 266.167969 C 186.941406 266.0625 186.921875 265.960938 186.90625 265.855469 C 186.859375 265.605469 186.820312 265.355469 186.777344 265.105469 C 186.789062 264.78125 186.804688 264.460938 186.816406 264.136719 C 186.839844 264.183594 186.863281 264.230469 186.886719 264.273438 C 186.921875 264.65625 186.949219 265.039062 186.960938 265.421875 C 186.96875 265.671875 186.964844 265.921875 186.960938 266.167969 Z M 187.015625 250.410156 C 186.890625 250.328125 186.765625 250.289062 186.648438 250.28125 C 186.640625 250.171875 186.636719 250.0625 186.628906 249.953125 C 187.015625 250.144531 187.398438 250.34375 187.777344 250.546875 C 187.660156 250.570312 187.546875 250.625 187.453125 250.699219 C 187.308594 250.601562 187.164062 250.507812 187.015625 250.410156 Z M 188.480469 263.882812 C 188.453125 263.632812 188.421875 263.382812 188.386719 263.132812 C 188.632812 263.789062 188.890625 264.4375 189.164062 265.078125 C 188.921875 264.691406 188.695312 264.289062 188.480469 263.882812 Z M 189.257812 260.730469 C 188.75 259.273438 188.242188 257.820312 187.65625 256.398438 C 187.722656 256.464844 187.792969 256.53125 187.859375 256.597656 C 188.0625 256.90625 188.261719 257.21875 188.464844 257.527344 C 188.621094 258.109375 188.808594 258.6875 189.015625 259.253906 C 189.214844 259.964844 189.410156 260.671875 189.609375 261.382812 C 189.761719 261.925781 189.933594 262.480469 190.089844 263.042969 C 189.800781 262.277344 189.527344 261.503906 189.257812 260.730469 Z M 192.179688 266.097656 C 192.179688 265.949219 192.175781 265.804688 192.167969 265.65625 C 192.253906 265.761719 192.347656 265.859375 192.449219 265.945312 C 192.359375 265.996094 192.269531 266.046875 192.179688 266.097656 Z M 194.210938 262.453125 C 193.375 261.941406 192.769531 261.136719 192.226562 260.320312 C 193.40625 261.230469 194.628906 262.089844 195.882812 262.898438 C 195.304688 262.933594 194.699219 262.75 194.210938 262.453125 Z M 197.460938 260.890625 C 196.496094 260.425781 195.679688 259.625 194.886719 258.925781 C 194.835938 258.882812 194.789062 258.839844 194.742188 258.796875 C 195.679688 259.4375 196.621094 260.074219 197.546875 260.734375 C 197.71875 260.855469 197.890625 260.980469 198.054688 261.113281 C 197.851562 261.058594 197.652344 260.984375 197.460938 260.890625 Z M 199.183594 258.183594 C 199.46875 258.441406 199.75 258.710938 200.023438 258.988281 L 199.003906 258.3125 C 199.066406 258.28125 199.128906 258.238281 199.183594 258.183594 Z M 203.210938 260.421875 C 203.035156 260.167969 202.851562 259.914062 202.664062 259.671875 C 202.824219 259.769531 202.96875 259.878906 203.070312 259.992188 C 203.21875 260.164062 203.203125 260.078125 203.222656 260.300781 C 203.226562 260.335938 203.21875 260.378906 203.210938 260.421875 Z M 203.210938 260.421875 " fill-opacity="1" fill-rule="nonzero"/><g transform="matrix(1, 0, 0, 1, 84, 177)"><g clip-path="url(#db741e7c64)"><g fill="#f29b10" fill-opacity="1"><g transform="translate(1.075293, 67.725654)"><g><path d="M 17.46875 -12.828125 C 16.832031 -12.921875 16.238281 -13.066406 15.6875 -13.265625 C 15.144531 -13.472656 14.671875 -13.738281 14.265625 -14.0625 C 14.171875 -12.738281 14.066406 -11.703125 13.953125 -10.953125 C 13.835938 -10.203125 13.742188 -9.4375 13.671875 -8.65625 C 13.609375 -7.882812 13.578125 -6.84375 13.578125 -5.53125 C 13.535156 -3.75 13.023438 -2.414062 12.046875 -1.53125 C 11.066406 -0.644531 10.007812 -0.203125 8.875 -0.203125 C 7.78125 -0.203125 6.765625 -0.609375 5.828125 -1.421875 C 4.898438 -2.242188 4.320312 -3.5 4.09375 -5.1875 C 4.09375 -10.875 4.515625 -16.34375 5.359375 -21.59375 C 6.203125 -26.851562 7.097656 -31.6875 8.046875 -36.09375 C 8.503906 -38.226562 9.0625 -40.191406 9.71875 -41.984375 C 10.382812 -43.785156 11.421875 -45.234375 12.828125 -46.328125 C 14.234375 -47.421875 16.28125 -47.96875 18.96875 -47.96875 C 19.507812 -47.96875 20.039062 -47.851562 20.5625 -47.625 C 21.09375 -47.394531 21.65625 -47.054688 22.25 -46.609375 C 24.289062 -44.554688 26.117188 -41.960938 27.734375 -38.828125 C 29.347656 -35.691406 30.757812 -32.328125 31.96875 -28.734375 C 33.175781 -25.140625 34.195312 -21.585938 35.03125 -18.078125 C 35.875 -14.578125 36.546875 -11.441406 37.046875 -8.671875 L 37.875 -6.75 C 38.101562 -5.9375 38.21875 -5.253906 38.21875 -4.703125 C 38.21875 -3.296875 37.769531 -2.160156 36.875 -1.296875 C 35.988281 -0.429688 34.957031 0 33.78125 0 C 32.363281 0 31.253906 -0.429688 30.453125 -1.296875 C 29.660156 -2.160156 29.0625 -3.226562 28.65625 -4.5 C 28.25 -5.769531 27.921875 -7.039062 27.671875 -8.3125 C 27.421875 -9.59375 27.15625 -10.664062 26.875 -11.53125 C 26.601562 -12.394531 26.175781 -12.828125 25.59375 -12.828125 C 25.539062 -12.828125 25.492188 -12.828125 25.453125 -12.828125 C 25.410156 -12.828125 25.363281 -12.828125 25.3125 -12.828125 Z M 18.484375 -36.578125 C 18.035156 -35.117188 17.46875 -33.535156 16.78125 -31.828125 C 16.101562 -30.117188 15.765625 -28.289062 15.765625 -26.34375 C 15.765625 -25.0625 15.890625 -24.066406 16.140625 -23.359375 C 16.390625 -22.660156 16.945312 -22.3125 17.8125 -22.3125 L 23.265625 -22.3125 C 23.765625 -22.3125 24.015625 -22.515625 24.015625 -22.921875 C 24.015625 -23.109375 23.988281 -23.28125 23.9375 -23.4375 C 23.894531 -23.59375 23.851562 -23.765625 23.8125 -23.953125 C 23.132812 -26.222656 22.375 -28.300781 21.53125 -30.1875 C 20.6875 -32.082031 19.671875 -34.210938 18.484375 -36.578125 Z M 18.484375 -36.578125 "/></g></g></g><g fill="#f29b10" fill-opacity="1"><g transform="translate(40.649941, 67.725654)"><g><path d="M 7.703125 6.140625 C 6.296875 6.003906 5.179688 5.582031 4.359375 4.875 C 3.546875 4.175781 3.140625 3.300781 3.140625 2.25 C 3.140625 1.75 3.285156 1.179688 3.578125 0.546875 C 3.878906 -0.0859375 4.164062 -0.710938 4.4375 -1.328125 C 4.707031 -1.941406 4.84375 -2.476562 4.84375 -2.9375 C 4.84375 -3.570312 4.613281 -4.320312 4.15625 -5.1875 C 3.207031 -7.050781 2.734375 -9.097656 2.734375 -11.328125 C 2.734375 -14.148438 3.484375 -16.785156 4.984375 -19.234375 C 6.484375 -21.691406 8.503906 -23.515625 11.046875 -24.703125 C 11.503906 -24.929688 11.957031 -25.101562 12.40625 -25.21875 C 12.863281 -25.332031 13.320312 -25.390625 13.78125 -25.390625 C 15.050781 -25.390625 16.082031 -24.976562 16.875 -24.15625 C 17.675781 -23.332031 18.078125 -22.398438 18.078125 -21.359375 C 18.078125 -20.671875 17.882812 -20.066406 17.5 -19.546875 C 17.113281 -19.023438 16.554688 -18.46875 15.828125 -17.875 C 14.421875 -16.738281 13.363281 -15.769531 12.65625 -14.96875 C 11.945312 -14.175781 11.59375 -13.394531 11.59375 -12.625 C 11.59375 -11.894531 11.863281 -11.070312 12.40625 -10.15625 C 12.957031 -9.25 13.757812 -8.046875 14.8125 -6.546875 C 15.445312 -5.816406 15.929688 -5.054688 16.265625 -4.265625 C 16.609375 -3.472656 16.78125 -2.664062 16.78125 -1.84375 C 16.78125 -0.0703125 16.242188 1.398438 15.171875 2.578125 C 14.109375 3.765625 12.867188 4.65625 11.453125 5.25 C 10.046875 5.84375 8.796875 6.140625 7.703125 6.140625 Z M 7.703125 6.140625 "/></g></g></g><g fill="#f29b10" fill-opacity="1"><g transform="translate(61.46075, 67.725654)"><g><path d="M 18.28125 -7.78125 C 15.738281 -5.550781 13.46875 -4.4375 11.46875 -4.4375 C 10.914062 -4.4375 10.171875 -4.628906 9.234375 -5.015625 C 8.304688 -5.398438 7.363281 -5.921875 6.40625 -6.578125 C 5.457031 -7.242188 4.640625 -7.992188 3.953125 -8.828125 C 3.273438 -9.671875 2.9375 -10.570312 2.9375 -11.53125 C 2.9375 -12.21875 3.207031 -12.851562 3.75 -13.4375 C 4.4375 -14.164062 4.890625 -14.90625 5.109375 -15.65625 C 5.335938 -16.40625 5.453125 -17.144531 5.453125 -17.875 C 5.453125 -19.101562 5.304688 -20.5 5.015625 -22.0625 C 4.722656 -23.632812 4.359375 -25.21875 3.921875 -26.8125 C 3.492188 -28.40625 3.03125 -29.882812 2.53125 -31.25 C 2.207031 -32.070312 2.046875 -32.914062 2.046875 -33.78125 C 2.046875 -35.09375 2.453125 -36.191406 3.265625 -37.078125 C 4.085938 -37.972656 5.132812 -38.421875 6.40625 -38.421875 C 7.414062 -38.421875 8.394531 -38.132812 9.34375 -37.5625 C 10.300781 -36.988281 11.144531 -36.179688 11.875 -35.140625 C 12.28125 -34.410156 12.550781 -33.679688 12.6875 -32.953125 C 12.820312 -32.222656 13.03125 -31.519531 13.3125 -30.84375 C 13.53125 -30.019531 13.742188 -29.0625 13.953125 -27.96875 C 14.160156 -26.882812 14.410156 -25.828125 14.703125 -24.796875 C 14.992188 -23.773438 15.367188 -22.921875 15.828125 -22.234375 C 16.285156 -21.554688 16.851562 -21.21875 17.53125 -21.21875 C 18.21875 -21.21875 19.082031 -21.390625 20.125 -21.734375 C 21.175781 -22.078125 22.234375 -22.40625 23.296875 -22.71875 C 24.367188 -23.039062 25.269531 -23.203125 26 -23.203125 C 26.8125 -23.203125 27.707031 -23.007812 28.6875 -22.625 C 29.664062 -22.238281 30.519531 -21.679688 31.25 -20.953125 C 31.976562 -20.222656 32.34375 -19.332031 32.34375 -18.28125 C 32.34375 -17.738281 32.101562 -17.316406 31.625 -17.015625 C 31.144531 -16.722656 30.578125 -16.441406 29.921875 -16.171875 C 29.265625 -15.898438 28.695312 -15.554688 28.21875 -15.140625 C 27.738281 -14.734375 27.5 -14.164062 27.5 -13.4375 C 27.5 -12.125 27.941406 -10.929688 28.828125 -9.859375 C 29.710938 -8.785156 30.863281 -8.160156 32.28125 -7.984375 C 32.914062 -7.941406 33.492188 -7.875 34.015625 -7.78125 C 34.535156 -7.6875 35 -7.390625 35.40625 -6.890625 C 35.957031 -6.210938 36.445312 -5.550781 36.875 -4.90625 C 37.3125 -4.269531 37.53125 -3.566406 37.53125 -2.796875 C 37.53125 -1.429688 37.03125 -0.398438 36.03125 0.296875 C 35.03125 1.003906 34.003906 1.359375 32.953125 1.359375 C 30.816406 1.359375 28.894531 0.882812 27.1875 -0.0625 C 25.476562 -1.019531 23.90625 -2.203125 22.46875 -3.609375 C 21.039062 -5.023438 19.644531 -6.414062 18.28125 -7.78125 Z M 18.28125 -7.78125 "/></g></g></g><g fill="#f29b10" fill-opacity="1"><g transform="translate(98.988436, 67.725654)"><g/></g></g><g fill="#f29b10" fill-opacity="1"><g transform="translate(119.458078, 67.725654)"><g><path d="M 8.59375 2.53125 C 6.550781 2.382812 4.945312 1.765625 3.78125 0.671875 C 2.625 -0.410156 2.046875 -1.75 2.046875 -3.34375 C 2.046875 -4.300781 2.25 -5.28125 2.65625 -6.28125 C 3.84375 -9.050781 5.4375 -11.445312 7.4375 -13.46875 C 9.4375 -15.5 11.984375 -16.851562 15.078125 -17.53125 C 15.984375 -17.757812 16.859375 -18 17.703125 -18.25 C 18.546875 -18.5 19.351562 -18.988281 20.125 -19.71875 C 21.539062 -21.039062 22.953125 -21.703125 24.359375 -21.703125 C 25.398438 -21.703125 26.363281 -21.300781 27.25 -20.5 C 28.144531 -19.707031 28.75 -18.515625 29.0625 -16.921875 C 29.289062 -15.785156 29.597656 -14.726562 29.984375 -13.75 C 30.367188 -12.769531 31.085938 -11.941406 32.140625 -11.265625 C 32.679688 -10.898438 33.15625 -10.476562 33.5625 -10 C 33.976562 -9.519531 34.1875 -8.960938 34.1875 -8.328125 C 34.1875 -7.191406 33.832031 -6.300781 33.125 -5.65625 C 32.414062 -5.019531 31.570312 -4.578125 30.59375 -4.328125 C 29.625 -4.078125 28.726562 -3.953125 27.90625 -3.953125 C 27.039062 -3.953125 26.195312 -4.054688 25.375 -4.265625 C 24.5625 -4.472656 23.769531 -4.867188 23 -5.453125 C 22.175781 -6.085938 21.398438 -6.40625 20.671875 -6.40625 C 19.578125 -6.40625 18.625 -5.679688 17.8125 -4.234375 C 17.21875 -3.179688 16.421875 -2.117188 15.421875 -1.046875 C 14.421875 0.015625 13.394531 0.894531 12.34375 1.59375 C 11.300781 2.300781 10.347656 2.65625 9.484375 2.65625 C 9.253906 2.65625 8.957031 2.613281 8.59375 2.53125 Z M 8.59375 2.53125 "/></g></g></g><g fill="#f29b10" fill-opacity="1"><g transform="translate(155.689348, 67.725654)"><g/></g></g><g fill="#f29b10" fill-opacity="1"><g transform="translate(176.159, 67.725654)"><g><path d="M 22.796875 -47.21875 C 24.742188 -47.21875 26.6875 -46.648438 28.625 -45.515625 C 30.5625 -44.378906 32.367188 -42.890625 34.046875 -41.046875 C 35.734375 -39.203125 37.222656 -37.164062 38.515625 -34.9375 C 39.816406 -32.707031 40.84375 -30.488281 41.59375 -28.28125 C 42.34375 -26.070312 42.71875 -24.0625 42.71875 -22.25 C 42.71875 -20.332031 42.351562 -18.144531 41.625 -15.6875 C 40.894531 -13.238281 39.867188 -10.96875 38.546875 -8.875 C 39.734375 -8.007812 40.597656 -7.242188 41.140625 -6.578125 C 41.691406 -5.921875 41.96875 -5.070312 41.96875 -4.03125 C 41.96875 -2.84375 41.507812 -1.804688 40.59375 -0.921875 C 39.6875 -0.0351562 38.4375 0.40625 36.84375 0.40625 C 35.800781 0.40625 34.789062 0.078125 33.8125 -0.578125 C 32.832031 -1.234375 32.023438 -1.90625 31.390625 -2.59375 C 31.117188 -2.5 30.660156 -2.414062 30.015625 -2.34375 C 29.378906 -2.28125 28.753906 -2.222656 28.140625 -2.171875 C 27.523438 -2.128906 27.0625 -2.109375 26.75 -2.109375 C 23.65625 -2.109375 20.628906 -2.914062 17.671875 -4.53125 C 14.710938 -6.144531 12.003906 -8.023438 9.546875 -10.171875 C 7.453125 -12.035156 5.90625 -14.421875 4.90625 -17.328125 C 3.90625 -20.242188 3.40625 -23.25 3.40625 -26.34375 C 3.40625 -30.207031 4.109375 -33.707031 5.515625 -36.84375 C 6.929688 -39.988281 9.070312 -42.492188 11.9375 -44.359375 C 14.800781 -46.222656 18.421875 -47.175781 22.796875 -47.21875 Z M 33.15625 -22.578125 C 33.15625 -23.222656 32.953125 -24.15625 32.546875 -25.375 C 32.140625 -26.601562 31.582031 -27.910156 30.875 -29.296875 C 30.164062 -30.691406 29.359375 -32.023438 28.453125 -33.296875 C 27.546875 -34.566406 26.578125 -35.613281 25.546875 -36.4375 C 24.523438 -37.257812 23.515625 -37.671875 22.515625 -37.671875 C 20.015625 -37.671875 18.070312 -37.191406 16.6875 -36.234375 C 15.300781 -35.273438 14.34375 -33.910156 13.8125 -32.140625 C 13.289062 -30.367188 13.03125 -28.226562 13.03125 -25.71875 C 13.03125 -23.21875 13.394531 -21.179688 14.125 -19.609375 C 14.851562 -18.046875 15.757812 -16.820312 16.84375 -15.9375 C 17.9375 -15.050781 19.050781 -14.4375 20.1875 -14.09375 C 21.332031 -13.75 22.3125 -13.554688 23.125 -13.515625 C 22.945312 -14.015625 22.859375 -14.554688 22.859375 -15.140625 C 22.859375 -16.367188 23.28125 -17.414062 24.125 -18.28125 C 24.96875 -19.144531 26.023438 -19.578125 27.296875 -19.578125 C 27.835938 -19.578125 28.425781 -19.484375 29.0625 -19.296875 C 29.695312 -19.117188 30.3125 -18.804688 30.90625 -18.359375 L 32.140625 -16.921875 C 32.503906 -18.109375 32.765625 -19.144531 32.921875 -20.03125 C 33.078125 -20.914062 33.15625 -21.765625 33.15625 -22.578125 Z M 33.15625 -22.578125 "/></g></g></g><g fill="#f29b10" fill-opacity="1"><g transform="translate(221.601616, 67.725654)"><g><path d="M 3.40625 -15.625 C 3.59375 -16.625 3.753906 -17.703125 3.890625 -18.859375 C 4.023438 -20.023438 4.25 -21.128906 4.5625 -22.171875 C 4.882812 -23.222656 5.351562 -24.078125 5.96875 -24.734375 C 6.582031 -25.390625 7.457031 -25.71875 8.59375 -25.71875 C 9.914062 -25.71875 11.144531 -25.148438 12.28125 -24.015625 C 13.414062 -22.878906 13.984375 -21.46875 13.984375 -19.78125 C 13.804688 -18.832031 13.546875 -17.84375 13.203125 -16.8125 C 12.859375 -15.789062 12.6875 -14.757812 12.6875 -13.71875 C 12.6875 -13.394531 12.800781 -13.0625 13.03125 -12.71875 C 13.257812 -12.382812 13.601562 -12.21875 14.0625 -12.21875 C 14.695312 -12.21875 15.273438 -12.613281 15.796875 -13.40625 C 16.316406 -14.207031 16.804688 -15.1875 17.265625 -16.34375 C 17.722656 -17.5 18.203125 -18.644531 18.703125 -19.78125 C 19.203125 -20.925781 19.789062 -21.894531 20.46875 -22.6875 C 21.15625 -23.476562 21.953125 -23.875 22.859375 -23.875 C 23.492188 -23.875 24.207031 -23.65625 25 -23.21875 C 25.800781 -22.789062 26.484375 -22.191406 27.046875 -21.421875 C 27.617188 -20.648438 27.90625 -19.742188 27.90625 -18.703125 C 27.90625 -18.335938 27.835938 -18.015625 27.703125 -17.734375 C 27.015625 -15.960938 26.21875 -14.097656 25.3125 -12.140625 C 24.40625 -10.191406 23.347656 -8.351562 22.140625 -6.625 C 20.929688 -4.894531 19.566406 -3.484375 18.046875 -2.390625 C 16.523438 -1.296875 14.804688 -0.75 12.890625 -0.75 C 10.660156 -0.75 8.84375 -1.328125 7.4375 -2.484375 C 6.03125 -3.648438 5.003906 -5.070312 4.359375 -6.75 C 3.722656 -8.4375 3.40625 -10.050781 3.40625 -11.59375 C 3.40625 -12.238281 3.4375 -12.898438 3.5 -13.578125 C 3.570312 -14.265625 3.632812 -14.945312 3.6875 -15.625 C 3.6875 -15.625 3.660156 -15.625 3.609375 -15.625 C 3.566406 -15.625 3.5 -15.625 3.40625 -15.625 Z M 3.40625 -15.625 "/></g></g></g><g fill="#f29b10" fill-opacity="1"><g transform="translate(249.508547, 67.725654)"><g><path d="M 29.6875 -10.375 C 30.050781 -9.78125 30.550781 -9.378906 31.1875 -9.171875 C 31.820312 -8.972656 32.523438 -8.847656 33.296875 -8.796875 C 34.066406 -8.753906 34.804688 -8.664062 35.515625 -8.53125 C 36.222656 -8.394531 36.800781 -8.085938 37.25 -7.609375 C 37.707031 -7.128906 37.9375 -6.367188 37.9375 -5.328125 C 37.9375 -3.960938 37.535156 -2.847656 36.734375 -1.984375 C 35.941406 -1.117188 34.941406 -0.46875 33.734375 -0.03125 C 32.535156 0.394531 31.265625 0.6875 29.921875 0.84375 C 28.578125 1.007812 27.359375 1.09375 26.265625 1.09375 C 24.585938 1.09375 22.953125 0.796875 21.359375 0.203125 C 19.765625 -0.390625 18.265625 -1.410156 16.859375 -2.859375 C 15.992188 -3.773438 15.148438 -4.445312 14.328125 -4.875 C 13.503906 -5.3125 12.617188 -5.53125 11.671875 -5.53125 C 10.984375 -5.53125 10.226562 -5.390625 9.40625 -5.109375 C 8.59375 -4.835938 7.800781 -4.703125 7.03125 -4.703125 C 6.03125 -4.703125 4.984375 -5.019531 3.890625 -5.65625 C 2.796875 -6.300781 1.875 -7.125 1.125 -8.125 C 0.375 -9.125 0 -10.144531 0 -11.1875 C 0 -12.6875 0.53125 -13.984375 1.59375 -15.078125 C 2.664062 -16.171875 3.863281 -16.71875 5.1875 -16.71875 C 5.457031 -16.71875 5.738281 -16.707031 6.03125 -16.6875 C 6.332031 -16.664062 6.597656 -16.65625 6.828125 -16.65625 C 8.367188 -16.65625 9.570312 -17.070312 10.4375 -17.90625 C 11.300781 -18.75 12.164062 -19.832031 13.03125 -21.15625 C 13.800781 -22.65625 14.898438 -23.945312 16.328125 -25.03125 C 17.765625 -26.125 19.367188 -26.96875 21.140625 -27.5625 C 22.921875 -28.15625 24.65625 -28.453125 26.34375 -28.453125 C 28.34375 -28.453125 29.910156 -27.914062 31.046875 -26.84375 C 32.179688 -25.78125 32.988281 -24.460938 33.46875 -22.890625 C 33.945312 -21.316406 34.1875 -19.804688 34.1875 -18.359375 C 34.1875 -17.578125 34.0625 -16.800781 33.8125 -16.03125 C 33.5625 -15.257812 33.09375 -14.488281 32.40625 -13.71875 C 31.957031 -13.21875 31.390625 -12.785156 30.703125 -12.421875 C 30.023438 -12.054688 29.6875 -11.375 29.6875 -10.375 Z M 29.6875 -10.375 "/></g></g></g><g fill="#f29b10" fill-opacity="1"><g transform="translate(289.492613, 67.725654)"><g><path d="M 7.703125 6.140625 C 6.296875 6.003906 5.179688 5.582031 4.359375 4.875 C 3.546875 4.175781 3.140625 3.300781 3.140625 2.25 C 3.140625 1.75 3.285156 1.179688 3.578125 0.546875 C 3.878906 -0.0859375 4.164062 -0.710938 4.4375 -1.328125 C 4.707031 -1.941406 4.84375 -2.476562 4.84375 -2.9375 C 4.84375 -3.570312 4.613281 -4.320312 4.15625 -5.1875 C 3.207031 -7.050781 2.734375 -9.097656 2.734375 -11.328125 C 2.734375 -14.148438 3.484375 -16.785156 4.984375 -19.234375 C 6.484375 -21.691406 8.503906 -23.515625 11.046875 -24.703125 C 11.503906 -24.929688 11.957031 -25.101562 12.40625 -25.21875 C 12.863281 -25.332031 13.320312 -25.390625 13.78125 -25.390625 C 15.050781 -25.390625 16.082031 -24.976562 16.875 -24.15625 C 17.675781 -23.332031 18.078125 -22.398438 18.078125 -21.359375 C 18.078125 -20.671875 17.882812 -20.066406 17.5 -19.546875 C 17.113281 -19.023438 16.554688 -18.46875 15.828125 -17.875 C 14.421875 -16.738281 13.363281 -15.769531 12.65625 -14.96875 C 11.945312 -14.175781 11.59375 -13.394531 11.59375 -12.625 C 11.59375 -11.894531 11.863281 -11.070312 12.40625 -10.15625 C 12.957031 -9.25 13.757812 -8.046875 14.8125 -6.546875 C 15.445312 -5.816406 15.929688 -5.054688 16.265625 -4.265625 C 16.609375 -3.472656 16.78125 -2.664062 16.78125 -1.84375 C 16.78125 -0.0703125 16.242188 1.398438 15.171875 2.578125 C 14.109375 3.765625 12.867188 4.65625 11.453125 5.25 C 10.046875 5.84375 8.796875 6.140625 7.703125 6.140625 Z M 7.703125 6.140625 "/></g></g></g><g fill="#f29b10" fill-opacity="1"><g transform="translate(310.303402, 67.725654)"><g><path d="M 37.1875 -21.5 C 35 -18.90625 32.359375 -17.332031 29.265625 -16.78125 C 26.992188 -16.375 25.859375 -15.171875 25.859375 -13.171875 C 25.859375 -12.617188 25.90625 -12.054688 26 -11.484375 C 26.09375 -10.921875 26.140625 -10.390625 26.140625 -9.890625 C 26.140625 -8.847656 25.976562 -7.722656 25.65625 -6.515625 C 25.332031 -5.304688 24.84375 -4.28125 24.1875 -3.4375 C 23.53125 -2.601562 22.632812 -2.1875 21.5 -2.1875 C 20.351562 -2.1875 19.234375 -2.523438 18.140625 -3.203125 C 17.054688 -3.890625 16.515625 -5.003906 16.515625 -6.546875 C 16.515625 -7.316406 16.554688 -8.085938 16.640625 -8.859375 C 16.734375 -9.640625 16.78125 -10.441406 16.78125 -11.265625 C 16.78125 -12.804688 16.632812 -13.882812 16.34375 -14.5 C 16.050781 -15.113281 15.378906 -15.421875 14.328125 -15.421875 C 13.285156 -15.421875 12.132812 -15.285156 10.875 -15.015625 C 9.625 -14.742188 8.410156 -14.609375 7.234375 -14.609375 C 6.234375 -14.609375 5.175781 -14.8125 4.0625 -15.21875 C 2.945312 -15.625 1.988281 -16.222656 1.1875 -17.015625 C 0.394531 -17.816406 0 -18.785156 0 -19.921875 C 0 -21.554688 0.375 -22.757812 1.125 -23.53125 C 1.875 -24.3125 2.828125 -24.816406 3.984375 -25.046875 C 5.148438 -25.273438 6.398438 -25.398438 7.734375 -25.421875 C 9.078125 -25.441406 10.328125 -25.507812 11.484375 -25.625 C 12.648438 -25.738281 13.609375 -26.066406 14.359375 -26.609375 C 15.109375 -27.160156 15.484375 -28.09375 15.484375 -29.40625 C 15.484375 -31.269531 15.320312 -33.15625 15 -35.0625 C 14.6875 -36.976562 14.53125 -38.847656 14.53125 -40.671875 C 14.53125 -41.347656 14.609375 -42.070312 14.765625 -42.84375 C 14.929688 -43.625 15.304688 -44.285156 15.890625 -44.828125 C 16.484375 -45.378906 17.394531 -45.65625 18.625 -45.65625 C 19.71875 -45.65625 20.628906 -45.273438 21.359375 -44.515625 C 22.085938 -43.765625 22.75 -42.984375 23.34375 -42.171875 C 24.5625 -40.484375 25.34375 -38.695312 25.6875 -36.8125 C 26.03125 -34.925781 26.222656 -33.003906 26.265625 -31.046875 C 26.316406 -29.453125 26.410156 -28.300781 26.546875 -27.59375 C 26.679688 -26.894531 27.066406 -26.382812 27.703125 -26.0625 C 28.335938 -25.75 29.40625 -25.34375 30.90625 -24.84375 C 31.957031 -24.519531 33.015625 -24.097656 34.078125 -23.578125 C 35.148438 -23.054688 36.1875 -22.363281 37.1875 -21.5 Z M 37.1875 -21.5 "/></g></g></g><g fill="#f29b10" fill-opacity="1"><g transform="translate(347.489942, 67.725654)"><g><path d="M 8.1875 -13.71875 C 9.320312 -13.625 10.332031 -13.15625 11.21875 -12.3125 C 12.113281 -11.46875 12.820312 -10.453125 13.34375 -9.265625 C 13.863281 -8.085938 14.125 -6.910156 14.125 -5.734375 C 14.125 -4.597656 13.65625 -3.457031 12.71875 -2.3125 C 11.789062 -1.175781 10.664062 -0.609375 9.34375 -0.609375 C 8.300781 -0.609375 7.320312 -1.03125 6.40625 -1.875 C 5.5 -2.71875 4.769531 -3.8125 4.21875 -5.15625 C 3.675781 -6.5 3.40625 -7.875 3.40625 -9.28125 C 3.40625 -11.050781 3.867188 -12.234375 4.796875 -12.828125 C 5.734375 -13.421875 6.863281 -13.71875 8.1875 -13.71875 Z M 13.4375 -32.40625 C 13.257812 -31 12.738281 -29.78125 11.875 -28.75 C 11.007812 -27.726562 10.007812 -27.21875 8.875 -27.21875 C 7.414062 -27.21875 6.148438 -27.71875 5.078125 -28.71875 C 4.015625 -29.726562 3.484375 -30.84375 3.484375 -32.0625 C 3.484375 -33.382812 3.957031 -34.554688 4.90625 -35.578125 C 5.863281 -36.609375 7.023438 -37.125 8.390625 -37.125 C 9.253906 -37.125 10.0625 -36.875 10.8125 -36.375 C 11.5625 -35.875 12.1875 -35.257812 12.6875 -34.53125 C 13.1875 -33.800781 13.4375 -33.09375 13.4375 -32.40625 Z M 13.4375 -32.40625 "/></g></g></g><g fill="#f29b10" fill-opacity="1"><g transform="translate(363.660978, 67.725654)"><g><path d="M 13.71875 -18.5625 C 15.125 -18.5625 16.382812 -18.160156 17.5 -17.359375 C 18.613281 -16.566406 19.507812 -15.53125 20.1875 -14.25 C 20.875 -12.976562 21.21875 -11.640625 21.21875 -10.234375 C 21.175781 -8.640625 20.707031 -7.171875 19.8125 -5.828125 C 18.925781 -4.492188 17.78125 -3.414062 16.375 -2.59375 C 14.96875 -1.769531 13.421875 -1.359375 11.734375 -1.359375 C 9.191406 -1.359375 7.164062 -2.050781 5.65625 -3.4375 C 4.15625 -4.832031 3.40625 -6.550781 3.40625 -8.59375 C 3.40625 -12.238281 4.257812 -14.8125 5.96875 -16.3125 C 7.675781 -17.8125 10.257812 -18.5625 13.71875 -18.5625 Z M 13.71875 -18.5625 "/></g></g></g><g fill="#f29b10" fill-opacity="1"><g transform="translate(388.292763, 67.725654)"><g><path d="M 20.203125 -14.0625 C 18.742188 -13.414062 17.582031 -12.398438 16.71875 -11.015625 C 15.851562 -9.628906 15.144531 -8.09375 14.59375 -6.40625 C 14.050781 -4.726562 13.503906 -3.113281 12.953125 -1.5625 C 12.410156 -0.0195312 11.71875 1.25 10.875 2.25 C 10.039062 3.25 8.914062 3.75 7.5 3.75 C 6.132812 3.75 5.054688 3.394531 4.265625 2.6875 C 3.472656 1.988281 2.90625 1.09375 2.5625 0 C 2.21875 -1.09375 2.046875 -2.273438 2.046875 -3.546875 C 2.046875 -5.097656 2.351562 -6.597656 2.96875 -8.046875 C 3.582031 -9.503906 4.457031 -10.765625 5.59375 -11.828125 C 6.726562 -12.898438 8.023438 -13.617188 9.484375 -13.984375 C 10.804688 -14.304688 11.941406 -14.882812 12.890625 -15.71875 C 13.847656 -16.5625 14.757812 -17.460938 15.625 -18.421875 C 16.488281 -19.378906 17.394531 -20.207031 18.34375 -20.90625 C 19.300781 -21.613281 20.441406 -21.96875 21.765625 -21.96875 C 23.085938 -21.96875 24.257812 -21.601562 25.28125 -20.875 C 26.300781 -20.144531 27.164062 -19.234375 27.875 -18.140625 C 28.582031 -17.054688 29.113281 -15.921875 29.46875 -14.734375 C 29.832031 -13.554688 30.015625 -12.488281 30.015625 -11.53125 C 30.015625 -9.988281 30.273438 -8.554688 30.796875 -7.234375 C 31.328125 -5.910156 32.546875 -4.953125 34.453125 -4.359375 C 35.085938 -4.179688 35.675781 -3.863281 36.21875 -3.40625 C 36.769531 -2.957031 37.046875 -2.367188 37.046875 -1.640625 C 37.046875 -0.546875 36.59375 0.363281 35.6875 1.09375 C 34.78125 1.820312 33.800781 2.1875 32.75 2.1875 C 30.65625 2.1875 28.914062 1.648438 27.53125 0.578125 C 26.144531 -0.492188 25.007812 -1.867188 24.125 -3.546875 C 23.238281 -5.234375 22.5 -7.007812 21.90625 -8.875 C 21.3125 -10.738281 20.742188 -12.46875 20.203125 -14.0625 Z M 20.203125 -14.0625 "/></g></g></g></g></g><g clip-path="url(#bdce721448)"><g clip-path="url(#4ea83f5227)"><g transform="matrix(1, 0, 0, 1, 434, 147)"><g clip-path="url(#26cef3be15)"><g clip-path="url(#bf3572ea1e)"><g clip-path="url(#ca0a36e688)"><g clip-path="url(#2b04dab9fb)"><path fill="#fff7c9" d="M 123.921875 66.875 C 114.8125 68.414062 107.164062 69.320312 100.972656 69.582031 C 100.679688 69.597656 100.449219 69.84375 100.460938 70.140625 C 100.476562 70.4375 100.726562 70.664062 101.019531 70.652344 C 107.253906 70.386719 114.945312 69.476562 124.097656 67.929688 C 124.390625 67.878906 124.585938 67.605469 124.535156 67.3125 C 124.488281 67.019531 124.210938 66.824219 123.921875 66.875 Z M 123.921875 66.875 " fill-opacity="1" fill-rule="nonzero"/></g></g></g><g clip-path="url(#1dfc33732f)"><g clip-path="url(#3820acd337)"><g clip-path="url(#bc8dbc9f86)"><path fill="#fff7c9" d="M 118.222656 78.230469 C 117.949219 77.304688 114.382812 70.507812 107.523438 57.84375 C 107.386719 57.582031 107.058594 57.488281 106.800781 57.628906 C 106.542969 57.769531 106.445312 58.09375 106.585938 58.351562 C 113.410156 70.953125 116.945312 77.679688 117.199219 78.53125 C 117.28125 78.816406 117.582031 78.976562 117.863281 78.894531 C 118.148438 78.808594 118.308594 78.511719 118.222656 78.230469 Z M 118.222656 78.230469 " fill-opacity="1" fill-rule="nonzero"/></g></g></g><g clip-path="url(#b0e497dd05)"><g clip-path="url(#d199a19b68)"><g clip-path="url(#944f7f4dd6)"><path fill="#fff7c9" d="M 118.136719 58.765625 L 118.148438 58.753906 L 118.132812 58.769531 C 117.902344 59.027344 117.652344 59.394531 117.375 59.867188 L 117.371094 59.871094 L 112.78125 67.855469 C 112.335938 68.628906 111.695312 69.707031 110.855469 71.097656 L 110.859375 71.089844 C 109.484375 73.300781 108.289062 75.078125 107.273438 76.433594 C 107.09375 76.667969 107.140625 77.003906 107.378906 77.183594 C 107.613281 77.359375 107.949219 77.3125 108.125 77.074219 C 109.160156 75.699219 110.375 73.890625 111.769531 71.65625 L 111.773438 71.652344 C 112.613281 70.257812 113.257812 69.171875 113.707031 68.386719 L 118.300781 60.402344 L 118.296875 60.40625 C 118.535156 59.996094 118.75 59.6875 118.933594 59.476562 L 118.921875 59.492188 L 118.925781 59.488281 C 119.132812 59.257812 119.113281 58.917969 118.890625 58.722656 C 118.671875 58.527344 118.332031 58.546875 118.136719 58.765625 Z M 118.136719 58.765625 " fill-opacity="1" fill-rule="nonzero"/></g></g></g><g clip-path="url(#77cdfce921)"><g clip-path="url(#1e051f84e9)"><g clip-path="url(#eb65797355)"><path fill="#fff7c9" d="M 122.003906 72.851562 C 121.832031 72.75 121.691406 72.667969 121.578125 72.609375 L 120.28125 71.949219 L 120.277344 71.949219 C 119.722656 71.667969 118.828125 71.230469 117.597656 70.628906 C 117.355469 70.507812 116.988281 70.335938 116.496094 70.113281 L 116.496094 70.109375 L 113.664062 68.824219 L 112.957031 69.085938 C 113.109375 68.761719 113.34375 68.675781 113.664062 68.824219 L 113.652344 68.820312 C 113.625 68.808594 113.40625 68.707031 113 68.515625 C 112.804688 68.425781 112.480469 68.273438 112.035156 68.058594 L 112.039062 68.058594 L 110.414062 67.265625 L 110.410156 67.265625 C 110.171875 67.152344 109.867188 67.007812 109.496094 66.835938 L 109.492188 66.832031 C 108.359375 66.3125 107.542969 65.945312 107.039062 65.738281 L 107.042969 65.738281 L 107.03125 65.734375 L 107.023438 65.730469 C 106.042969 65.328125 105.375 65.078125 105.019531 64.980469 C 104.738281 64.898438 104.441406 65.066406 104.363281 65.351562 C 104.28125 65.636719 104.449219 65.929688 104.734375 66.007812 C 105.046875 66.097656 105.675781 66.332031 106.621094 66.71875 L 106.613281 66.71875 L 106.628906 66.722656 C 107.117188 66.925781 107.925781 67.289062 109.046875 67.804688 L 109.042969 67.804688 C 109.410156 67.976562 109.710938 68.117188 109.949219 68.230469 L 109.945312 68.226562 L 111.570312 69.019531 L 111.574219 69.019531 C 112.019531 69.234375 112.34375 69.390625 112.550781 69.484375 L 112.546875 69.484375 C 112.957031 69.675781 113.179688 69.78125 113.222656 69.796875 L 113.210938 69.792969 C 113.539062 69.945312 113.777344 69.859375 113.925781 69.539062 L 113.222656 69.796875 L 116.054688 71.082031 L 116.050781 71.082031 C 116.527344 71.304688 116.886719 71.472656 117.125 71.589844 C 118.363281 72.191406 119.253906 72.628906 119.796875 72.90625 L 119.792969 72.902344 L 121.09375 73.5625 C 121.183594 73.609375 121.300781 73.675781 121.445312 73.765625 C 121.695312 73.917969 122.027344 73.839844 122.179688 73.585938 C 122.332031 73.335938 122.253906 73.007812 122.003906 72.851562 Z M 122.003906 72.851562 " fill-opacity="1" fill-rule="nonzero"/></g></g></g><g clip-path="url(#d00cd7603e)"><g clip-path="url(#dac07f1328)"><g clip-path="url(#586f1c4b1b)"><path fill="#fff7c9" d="M 86.5625 53.285156 C 87.925781 53.929688 88.773438 54.996094 89.113281 56.488281 L 89.128906 56.554688 L 89.132812 56.554688 L 89.109375 56.46875 C 89.410156 58.117188 89.082031 59.355469 88.125 60.179688 L 87.988281 60.359375 L 88.171875 60.144531 C 87.75 60.429688 87.390625 60.347656 87.082031 59.898438 L 87.085938 59.898438 C 86.890625 59.613281 86.707031 59.207031 86.539062 58.683594 L 86.523438 58.640625 C 86.273438 58.054688 86.460938 56.230469 87.085938 53.167969 C 87.136719 52.90625 86.988281 52.644531 86.738281 52.554688 C 86.484375 52.46875 86.207031 52.582031 86.085938 52.820312 L 83.765625 57.40625 L 83.785156 57.375 C 83.496094 57.859375 83.210938 58.203125 82.9375 58.402344 L 82.949219 58.394531 C 82.394531 58.773438 81.648438 58.417969 80.707031 57.335938 L 80.75 57.390625 C 78.769531 54.398438 78.507812 51.46875 79.964844 48.597656 L 79.90625 48.691406 C 81.578125 46.601562 84.300781 46.144531 88.074219 47.328125 L 88.050781 47.320312 C 91.285156 48.492188 93.496094 50.460938 94.683594 53.222656 L 94.683594 53.21875 C 95.960938 56.273438 95.824219 59.320312 94.273438 62.363281 L 94.277344 62.355469 C 92.578125 65.566406 90.246094 67.539062 87.277344 68.273438 L 87.316406 68.265625 C 84.636719 68.722656 82.285156 67.761719 80.261719 65.382812 C 80.070312 65.160156 79.734375 65.132812 79.511719 65.324219 C 79.285156 65.515625 79.257812 65.851562 79.449219 66.078125 C 81.734375 68.765625 84.417969 69.84375 87.496094 69.320312 L 87.535156 69.3125 C 90.8125 68.5 93.375 66.347656 95.222656 62.859375 L 95.226562 62.851562 C 96.925781 59.511719 97.074219 56.164062 95.667969 52.804688 L 95.667969 52.800781 C 94.355469 49.753906 91.9375 47.59375 88.417969 46.3125 L 88.394531 46.304688 C 84.152344 44.980469 81.046875 45.550781 79.070312 48.023438 L 79.011719 48.113281 C 77.367188 51.355469 77.648438 54.644531 79.859375 57.980469 L 79.898438 58.035156 C 81.253906 59.601562 82.472656 60.015625 83.550781 59.277344 L 83.5625 59.269531 C 83.957031 58.984375 84.339844 58.535156 84.703125 57.917969 L 84.722656 57.886719 L 87.039062 53.300781 L 86.039062 52.953125 C 85.371094 56.234375 85.203125 58.269531 85.539062 59.058594 L 85.523438 59.011719 C 85.71875 59.632812 85.945312 60.128906 86.199219 60.5 L 86.199219 60.503906 C 86.90625 61.539062 87.765625 61.714844 88.773438 61.027344 L 88.957031 60.8125 L 88.957031 60.808594 L 88.824219 60.988281 C 90.089844 59.894531 90.535156 58.324219 90.160156 56.277344 L 90.136719 56.191406 L 90.136719 56.1875 L 90.15625 56.253906 C 89.738281 54.421875 88.695312 53.109375 87.019531 52.316406 C 86.75 52.191406 86.433594 52.304688 86.304688 52.570312 C 86.179688 52.839844 86.292969 53.15625 86.5625 53.285156 Z M 86.5625 53.285156 " fill-opacity="1" fill-rule="nonzero"/></g></g></g><g clip-path="url(#e89e04aabd)"><g clip-path="url(#a1e6e3fb49)"><g clip-path="url(#eb67e52fa2)"><path fill="#fff7c9" d="M 68.265625 53.46875 C 69.390625 51.753906 70.5 49.703125 71.601562 47.316406 C 72.453125 45.441406 73.078125 43.660156 73.476562 41.96875 L 73.480469 41.960938 L 73.480469 41.957031 C 73.976562 39.777344 74.085938 38.175781 73.804688 37.148438 L 73.804688 37.152344 C 73.6875 36.710938 73.511719 36.398438 73.277344 36.207031 C 73.050781 36.023438 72.796875 35.953125 72.511719 35.996094 L 72.507812 35.996094 C 72.46875 36 72.429688 36.011719 72.386719 36.023438 L 72.382812 36.023438 C 72.050781 36.113281 71.695312 36.375 71.316406 36.8125 L 71.28125 36.851562 C 70.34375 38.175781 69.476562 40.375 68.683594 43.457031 L 68.683594 43.449219 C 68.492188 44.15625 68.234375 45.492188 67.910156 47.460938 L 67.902344 47.515625 L 67.902344 47.519531 L 67.910156 47.449219 C 67.792969 48.070312 67.671875 49.425781 67.542969 51.515625 L 67.546875 51.476562 C 67.445312 52.222656 67.347656 52.761719 67.257812 53.085938 C 67.183594 53.371094 67.351562 53.667969 67.636719 53.742188 C 67.917969 53.820312 68.214844 53.652344 68.292969 53.367188 C 68.394531 52.996094 68.496094 52.414062 68.605469 51.621094 L 68.609375 51.582031 C 68.738281 49.535156 68.855469 48.222656 68.960938 47.648438 L 68.972656 47.578125 L 68.964844 47.632812 C 69.28125 45.707031 69.53125 44.40625 69.71875 43.730469 L 69.71875 43.722656 C 70.480469 40.773438 71.292969 38.6875 72.15625 37.472656 L 72.121094 37.511719 C 72.359375 37.242188 72.539062 37.089844 72.664062 37.054688 C 72.664062 37.054688 72.667969 37.054688 72.671875 37.054688 L 72.667969 37.054688 C 72.644531 37.058594 72.621094 37.050781 72.601562 37.035156 C 72.65625 37.082031 72.714844 37.210938 72.773438 37.429688 C 73.007812 38.285156 72.894531 39.714844 72.4375 41.722656 L 72.4375 41.730469 L 72.4375 41.722656 C 72.054688 43.347656 71.449219 45.0625 70.628906 46.871094 C 69.550781 49.207031 68.464844 51.210938 67.371094 52.882812 C 67.207031 53.128906 67.277344 53.460938 67.523438 53.621094 C 67.769531 53.785156 68.101562 53.714844 68.265625 53.46875 Z M 68.265625 53.46875 " fill-opacity="1" fill-rule="nonzero"/></g></g></g><g clip-path="url(#c15e832968)"><g clip-path="url(#21270e1353)"><g clip-path="url(#ed62385a1d)"><path fill="#fff7c9" d="M 66.800781 58.214844 C 67.257812 58.539062 67.390625 59.070312 67.203125 59.8125 L 67.222656 59.746094 C 67.007812 60.296875 66.648438 60.542969 66.144531 60.484375 L 66.082031 61.015625 L 66.132812 60.484375 C 65.960938 60.46875 65.785156 60.390625 65.609375 60.25 L 65.589844 60.238281 C 65.351562 60.066406 65.1875 59.894531 65.09375 59.71875 L 65.085938 59.707031 C 64.863281 59.300781 64.839844 58.863281 65.011719 58.394531 L 65.027344 58.34375 C 65.113281 58.023438 65.410156 57.8125 65.921875 57.710938 L 65.847656 57.71875 C 66.375 57.691406 66.71875 57.808594 66.871094 58.074219 C 67.019531 58.328125 67.347656 58.417969 67.601562 58.269531 C 67.859375 58.121094 67.945312 57.792969 67.796875 57.539062 C 67.425781 56.894531 66.753906 56.601562 65.789062 56.652344 L 65.714844 56.660156 C 64.765625 56.847656 64.191406 57.320312 63.996094 58.074219 L 64.011719 58.023438 C 63.722656 58.800781 63.773438 59.53125 64.152344 60.222656 L 64.144531 60.210938 C 64.316406 60.539062 64.589844 60.839844 64.96875 61.109375 L 64.953125 61.09375 C 65.292969 61.363281 65.652344 61.511719 66.03125 61.546875 L 66.082031 61.015625 L 66.023438 61.546875 C 67.070312 61.667969 67.800781 61.199219 68.21875 60.140625 L 68.238281 60.074219 C 68.550781 58.859375 68.273438 57.949219 67.417969 57.34375 C 67.175781 57.171875 66.84375 57.230469 66.671875 57.46875 C 66.5 57.710938 66.558594 58.046875 66.800781 58.214844 Z M 66.800781 58.214844 " fill-opacity="1" fill-rule="nonzero"/></g></g></g><g clip-path="url(#03e61b13db)"><g clip-path="url(#8e4d64ee4b)"><g clip-path="url(#066cb828fe)"><path fill="#fff7c9" d="M 53.667969 31.542969 C 54.300781 38.898438 54.621094 43.117188 54.628906 44.191406 L 54.628906 44.207031 C 54.742188 47.386719 54.796875 51.644531 54.789062 56.976562 C 54.789062 57.273438 55.027344 57.511719 55.320312 57.511719 C 55.617188 57.511719 55.855469 57.273438 55.855469 56.976562 C 55.867188 51.636719 55.8125 47.367188 55.699219 44.167969 L 55.699219 44.1875 C 55.691406 43.082031 55.371094 38.835938 54.734375 31.453125 C 54.707031 31.15625 54.449219 30.941406 54.15625 30.964844 C 53.859375 30.992188 53.640625 31.25 53.667969 31.542969 Z M 53.667969 31.542969 " fill-opacity="1" fill-rule="nonzero"/></g></g></g><g clip-path="url(#070cf477bd)"><g clip-path="url(#ac1da56e74)"><g clip-path="url(#fa18f242ea)"><path fill="#fff7c9" d="M 62.597656 40.542969 C 59.496094 39.753906 51.925781 39.140625 39.886719 38.707031 C 39.589844 38.695312 39.34375 38.925781 39.332031 39.222656 C 39.320312 39.515625 39.550781 39.765625 39.847656 39.773438 C 51.808594 40.207031 59.304688 40.808594 62.332031 41.582031 C 62.621094 41.652344 62.910156 41.480469 62.984375 41.195312 C 63.054688 40.90625 62.882812 40.617188 62.597656 40.542969 Z M 62.597656 40.542969 " fill-opacity="1" fill-rule="nonzero"/></g></g></g><g clip-path="url(#78f9d0b284)"><g clip-path="url(#41e5695f4e)"><g clip-path="url(#764920d4d6)"><path fill="#fff7c9" d="M 45.953125 31.203125 C 46.585938 38.558594 46.90625 42.773438 46.914062 43.847656 L 46.914062 43.867188 C 47.027344 47.042969 47.082031 51.300781 47.070312 56.632812 C 47.070312 56.929688 47.308594 57.167969 47.605469 57.167969 C 47.902344 57.167969 48.140625 56.929688 48.140625 56.636719 C 48.152344 51.292969 48.097656 47.023438 47.984375 43.828125 L 47.984375 43.84375 C 47.976562 42.738281 47.65625 38.496094 47.015625 31.109375 C 46.992188 30.816406 46.734375 30.597656 46.4375 30.621094 C 46.144531 30.648438 45.925781 30.90625 45.953125 31.203125 Z M 45.953125 31.203125 " fill-opacity="1" fill-rule="nonzero"/></g></g></g><g clip-path="url(#bd462bb3fc)"><g clip-path="url(#b75d152fab)"><g clip-path="url(#2b53f1630b)"><path fill="#fff7c9" d="M 62.796875 49.957031 C 59.695312 49.167969 52.125 48.554688 40.082031 48.121094 C 39.789062 48.109375 39.539062 48.339844 39.53125 48.632812 C 39.519531 48.929688 39.75 49.175781 40.042969 49.1875 C 52.007812 49.621094 59.503906 50.222656 62.53125 50.996094 C 62.816406 51.066406 63.109375 50.894531 63.183594 50.609375 C 63.253906 50.320312 63.082031 50.03125 62.796875 49.957031 Z M 62.796875 49.957031 " fill-opacity="1" fill-rule="nonzero"/></g></g></g><g clip-path="url(#ea6dd257a3)"><g clip-path="url(#3669a3c976)"><g clip-path="url(#df3930a685)"><path fill="#fff7c9" d="M 35.617188 34.273438 C 35.519531 33.28125 34.898438 32.253906 33.746094 31.183594 L 33.738281 31.175781 C 32.742188 30.289062 31.710938 29.824219 30.652344 29.777344 L 30.6875 29.78125 C 29.554688 29.660156 28.433594 30.035156 27.320312 30.914062 L 27.324219 30.910156 C 26.472656 31.566406 25.988281 32.46875 25.859375 33.617188 L 25.863281 33.605469 C 25.722656 34.652344 26.035156 35.765625 26.796875 36.957031 L 27.15625 36.140625 C 26.796875 36.203125 26.648438 36.414062 26.710938 36.777344 L 26.710938 36.785156 C 26.722656 36.851562 26.75 36.921875 26.785156 36.992188 C 26.996094 37.386719 28.410156 39.070312 31.03125 42.042969 L 31.019531 42.027344 C 31.382812 42.46875 31.671875 42.90625 31.890625 43.339844 L 31.878906 43.316406 C 32.566406 44.847656 32.941406 46.515625 33.011719 48.3125 C 33.023438 48.609375 33.273438 48.839844 33.566406 48.828125 C 33.863281 48.816406 34.09375 48.566406 34.082031 48.273438 C 34.007812 46.335938 33.597656 44.539062 32.855469 42.878906 L 32.84375 42.859375 C 32.589844 42.355469 32.257812 41.851562 31.84375 41.351562 L 31.832031 41.335938 C 29.269531 38.429688 27.902344 36.816406 27.730469 36.492188 C 27.746094 36.515625 27.753906 36.550781 27.761719 36.59375 L 27.765625 36.601562 C 27.820312 36.9375 27.679688 37.136719 27.335938 37.195312 C 27.515625 37.164062 27.664062 37.046875 27.734375 36.882812 C 27.808594 36.71875 27.792969 36.53125 27.695312 36.378906 C 27.074219 35.410156 26.816406 34.53125 26.921875 33.746094 L 26.925781 33.734375 C 27.015625 32.886719 27.367188 32.226562 27.976562 31.757812 L 27.980469 31.753906 C 28.867188 31.054688 29.730469 30.753906 30.570312 30.84375 L 30.605469 30.847656 C 31.414062 30.882812 32.21875 31.257812 33.027344 31.976562 L 33.019531 31.96875 C 33.972656 32.851562 34.484375 33.65625 34.554688 34.375 C 34.582031 34.671875 34.84375 34.886719 35.136719 34.855469 C 35.433594 34.828125 35.644531 34.566406 35.617188 34.273438 Z M 35.617188 34.273438 " fill-opacity="1" fill-rule="nonzero"/></g></g></g><g clip-path="url(#8e1ab75bbb)"><g clip-path="url(#1fbe40f014)"><g clip-path="url(#ae92cfe082)"><path fill="#fff7c9" d="M 34.273438 52.074219 C 34.730469 52.394531 34.863281 52.929688 34.675781 53.667969 L 34.695312 53.605469 C 34.480469 54.15625 34.121094 54.402344 33.617188 54.34375 L 33.554688 54.875 L 33.605469 54.339844 C 33.433594 54.324219 33.257812 54.246094 33.082031 54.109375 L 33.0625 54.09375 C 32.824219 53.925781 32.660156 53.75 32.566406 53.574219 L 32.558594 53.5625 C 32.335938 53.15625 32.3125 52.722656 32.484375 52.25 L 32.5 52.199219 C 32.585938 51.878906 32.882812 51.667969 33.394531 51.566406 L 33.320312 51.578125 C 33.847656 51.546875 34.191406 51.667969 34.34375 51.929688 C 34.492188 52.1875 34.820312 52.273438 35.074219 52.125 C 35.328125 51.976562 35.417969 51.652344 35.269531 51.394531 C 34.898438 50.753906 34.226562 50.457031 33.261719 50.507812 L 33.1875 50.519531 C 32.238281 50.703125 31.664062 51.175781 31.46875 51.929688 L 31.484375 51.882812 C 31.195312 52.65625 31.246094 53.390625 31.625 54.078125 L 31.617188 54.066406 C 31.789062 54.394531 32.0625 54.695312 32.441406 54.964844 L 32.425781 54.953125 C 32.765625 55.21875 33.125 55.371094 33.503906 55.40625 L 33.554688 54.875 L 33.496094 55.40625 C 34.542969 55.527344 35.273438 55.058594 35.691406 53.996094 L 35.710938 53.933594 C 36.023438 52.71875 35.746094 51.804688 34.890625 51.199219 C 34.648438 51.027344 34.316406 51.085938 34.144531 51.328125 C 33.972656 51.566406 34.03125 51.902344 34.273438 52.074219 Z M 34.273438 52.074219 " fill-opacity="1" fill-rule="nonzero"/></g></g></g><g clip-path="url(#0aa0a60208)"><g clip-path="url(#c7ac77f28f)"><g clip-path="url(#ba038772c4)"><path fill="#fff7c9" d="M 18.105469 33.199219 C 17.476562 26.539062 20.554688 22.492188 27.335938 21.054688 L 27.300781 21.058594 C 30.375 20.617188 33.707031 22.226562 37.296875 25.890625 C 37.496094 26.097656 37.824219 26.105469 38.039062 25.914062 C 42.027344 22.296875 46.03125 20.609375 50.058594 20.851562 L 50.089844 20.851562 C 54.128906 20.84375 57.03125 23.238281 58.804688 28.027344 C 58.855469 28.167969 58.964844 28.28125 59.101562 28.335938 C 59.242188 28.394531 59.394531 28.390625 59.53125 28.328125 C 65.722656 25.46875 71.589844 25.058594 77.136719 27.09375 L 77.160156 27.101562 C 80.109375 28.042969 82.441406 30.6875 84.15625 35.039062 C 84.242188 35.25 84.449219 35.386719 84.675781 35.378906 C 91.5 35.097656 96.199219 35.710938 98.769531 37.222656 L 98.867188 37.269531 C 101.898438 38.304688 104.9375 41.679688 107.992188 47.382812 C 108.09375 47.574219 108.296875 47.683594 108.511719 47.664062 C 115.148438 47.050781 120.808594 49.007812 125.5 53.535156 L 125.507812 53.539062 C 128.011719 55.882812 129.753906 58.53125 130.726562 61.488281 L 130.730469 61.503906 L 130.734375 61.507812 L 130.730469 61.496094 C 131.800781 64.65625 132.023438 67.316406 131.398438 69.472656 L 131.457031 69.898438 C 133.808594 73.769531 134.824219 76.976562 134.503906 79.515625 L 134.503906 79.535156 C 134.113281 83.820312 132.28125 86.734375 129.003906 88.277344 L 128.980469 88.289062 C 126.632812 89.550781 122.4375 88.769531 116.394531 85.949219 C 116.15625 85.835938 115.867188 85.917969 115.722656 86.136719 C 113.804688 89.035156 111.75 90.269531 109.554688 89.839844 L 109.519531 89.835938 C 105.238281 89.289062 99.292969 85.566406 91.683594 78.667969 C 91.503906 78.503906 91.230469 78.484375 91.027344 78.621094 C 88.089844 80.613281 84.941406 81.28125 81.578125 80.621094 L 81.5625 80.617188 C 78.558594 80.132812 73.183594 76.828125 65.433594 70.703125 L 64.976562 70.605469 C 58.578125 72.160156 53.9375 72.191406 51.054688 70.707031 L 51.03125 70.699219 C 45.488281 68.152344 42.175781 65.238281 41.101562 61.949219 C 41.042969 61.765625 40.886719 61.628906 40.695312 61.59375 C 40.507812 61.554688 40.3125 61.621094 40.1875 61.769531 L 33.214844 69.925781 L 34.144531 70.382812 C 35.265625 64.894531 35.644531 61.753906 35.285156 60.957031 C 35.171875 60.703125 34.992188 60.554688 34.753906 60.503906 C 34.722656 60.5 34.6875 60.496094 34.65625 60.492188 L 34.492188 60.507812 C 30.96875 61.410156 26.546875 59.558594 21.234375 54.949219 C 18.171875 52.316406 17.125 49.480469 18.09375 46.4375 C 18.164062 46.21875 18.082031 45.980469 17.898438 45.84375 C 15.316406 43.957031 13.804688 42.382812 13.363281 41.117188 L 13.359375 41.105469 C 12.148438 37.863281 13.207031 35.621094 16.539062 34.371094 C 16.902344 34.234375 17.289062 34.113281 17.703125 34 C 17.984375 33.921875 18.152344 33.625 18.074219 33.339844 C 17.996094 33.058594 17.703125 32.890625 17.417969 32.96875 C 16.972656 33.089844 16.554688 33.222656 16.164062 33.371094 C 12.164062 34.867188 10.894531 37.570312 12.359375 41.480469 L 12.355469 41.46875 C 12.867188 42.945312 14.503906 44.691406 17.269531 46.707031 L 17.074219 46.113281 C 15.964844 49.605469 17.117188 52.820312 20.535156 55.757812 C 26.128906 60.609375 30.871094 62.539062 34.757812 61.542969 L 34.59375 61.558594 C 34.578125 61.558594 34.558594 61.558594 34.539062 61.554688 C 34.421875 61.53125 34.347656 61.476562 34.3125 61.398438 C 34.574219 61.984375 34.171875 64.90625 33.097656 70.167969 C 33.046875 70.40625 33.167969 70.648438 33.386719 70.753906 C 33.605469 70.863281 33.867188 70.808594 34.027344 70.621094 L 41 62.464844 L 40.085938 62.28125 C 41.257812 65.867188 44.757812 68.996094 50.585938 71.671875 L 50.5625 71.660156 C 53.683594 73.265625 58.574219 73.261719 65.230469 71.644531 L 64.773438 71.542969 C 72.664062 77.78125 78.203125 81.15625 81.390625 81.671875 L 81.375 81.667969 C 85.027344 82.386719 88.445312 81.664062 91.625 79.507812 L 90.96875 79.460938 C 98.742188 86.511719 104.878906 90.320312 109.382812 90.894531 L 109.347656 90.890625 C 112.011719 91.410156 114.433594 90.023438 116.613281 86.726562 L 115.941406 86.917969 C 122.308594 89.890625 126.824219 90.660156 129.484375 89.230469 L 129.460938 89.242188 C 133.105469 87.527344 135.140625 84.320312 135.566406 79.628906 L 135.566406 79.648438 C 135.917969 76.863281 134.851562 73.429688 132.367188 69.34375 L 132.425781 69.769531 C 133.113281 67.398438 132.886719 64.527344 131.742188 61.152344 L 131.738281 61.140625 L 131.738281 61.136719 L 131.742188 61.152344 C 130.710938 58.023438 128.875 55.226562 126.238281 52.757812 L 126.242188 52.765625 C 121.316406 48.011719 115.375 45.957031 108.414062 46.601562 L 108.933594 46.878906 C 105.75 40.925781 102.507812 37.386719 99.214844 36.257812 L 99.3125 36.304688 C 96.558594 34.683594 91.667969 34.019531 84.632812 34.308594 L 85.152344 34.648438 C 83.3125 29.980469 80.753906 27.128906 77.484375 26.085938 L 77.503906 26.09375 C 71.683594 23.953125 65.542969 24.375 59.082031 27.355469 L 59.808594 27.65625 C 57.863281 22.402344 54.625 19.777344 50.089844 19.78125 L 50.121094 19.78125 C 45.796875 19.523438 41.53125 21.304688 37.320312 25.121094 L 38.058594 25.144531 C 34.21875 21.21875 30.582031 19.503906 27.148438 20 L 27.113281 20.007812 C 19.710938 21.574219 16.351562 26.007812 17.039062 33.300781 C 17.066406 33.59375 17.328125 33.8125 17.621094 33.78125 C 17.917969 33.753906 18.132812 33.496094 18.105469 33.199219 Z M 18.105469 33.199219 " fill-opacity="1" fill-rule="nonzero"/></g></g></g></g></g></g></g></svg>