<svg xmlns="http://www.w3.org/2000/svg" xmlns:xlink="http://www.w3.org/1999/xlink" width="800" zoomAndPan="magnify" viewBox="0 0 600 449.999984" height="600" preserveAspectRatio="xMidYMid meet" version="1.0"><defs><g/><clipPath id="0be6545f60"><path d="M 134.242188 175 L 143 175 L 143 183 L 134.242188 183 Z M 134.242188 175 " clip-rule="nonzero"/></clipPath><clipPath id="398f9d93d7"><path d="M 550 197 L 573 197 L 573 231 L 550 231 Z M 550 197 " clip-rule="nonzero"/></clipPath><clipPath id="0e757d9113"><path d="M 560.964844 194.820312 L 591.300781 212.769531 L 566.09375 255.371094 L 535.757812 237.417969 Z M 560.964844 194.820312 " clip-rule="nonzero"/></clipPath><clipPath id="bd75136da0"><path d="M 560.964844 194.820312 L 591.300781 212.769531 L 566.09375 255.371094 L 535.757812 237.417969 Z M 560.964844 194.820312 " clip-rule="nonzero"/></clipPath><clipPath id="ed54422dd7"><path d="M 544 235 L 553 235 L 553 244 L 544 244 Z M 544 235 " clip-rule="nonzero"/></clipPath><clipPath id="a4defc57e3"><path d="M 560.964844 194.820312 L 591.300781 212.769531 L 566.09375 255.371094 L 535.757812 237.417969 Z M 560.964844 194.820312 " clip-rule="nonzero"/></clipPath><clipPath id="486f47845f"><path d="M 560.964844 194.820312 L 591.300781 212.769531 L 566.09375 255.371094 L 535.757812 237.417969 Z M 560.964844 194.820312 " clip-rule="nonzero"/></clipPath><clipPath id="312d37537e"><path d="M 561 212 L 588 212 L 588 237 L 561 237 Z M 561 212 " clip-rule="nonzero"/></clipPath><clipPath id="64708920c8"><path d="M 560.964844 194.820312 L 591.300781 212.769531 L 566.09375 255.371094 L 535.757812 237.417969 Z M 560.964844 194.820312 " clip-rule="nonzero"/></clipPath><clipPath id="8c96ba8627"><path d="M 560.964844 194.820312 L 591.300781 212.769531 L 566.09375 255.371094 L 535.757812 237.417969 Z M 560.964844 194.820312 " clip-rule="nonzero"/></clipPath><clipPath id="673b824d1d"><path d="M 553 240 L 562 240 L 562 249 L 553 249 Z M 553 240 " clip-rule="nonzero"/></clipPath><clipPath id="3ddfc264ff"><path d="M 560.964844 194.820312 L 591.300781 212.769531 L 566.09375 255.371094 L 535.757812 237.417969 Z M 560.964844 194.820312 " clip-rule="nonzero"/></clipPath><clipPath id="c069477112"><path d="M 560.964844 194.820312 L 591.300781 212.769531 L 566.09375 255.371094 L 535.757812 237.417969 Z M 560.964844 194.820312 " clip-rule="nonzero"/></clipPath><clipPath id="236d00b194"><path d="M 36.523438 194.816406 L 117.523438 194.816406 L 117.523438 276 L 36.523438 276 Z M 36.523438 194.816406 " clip-rule="nonzero"/></clipPath><clipPath id="f920b5278c"><path d="M 32 24 L 81.523438 24 L 81.523438 82 L 32 82 Z M 32 24 " clip-rule="nonzero"/></clipPath><clipPath id="e0e92814b7"><path d="M 0.734375 21 L 34 21 L 34 38 L 0.734375 38 Z M 0.734375 21 " clip-rule="nonzero"/></clipPath><clipPath id="45db979523"><rect x="0" width="82" y="0" height="82"/></clipPath><clipPath id="0e7d29f89f"><path d="M 224.324219 135 L 375.824219 135 L 375.824219 315 L 224.324219 315 Z M 224.324219 135 " clip-rule="nonzero"/></clipPath><clipPath id="5d766673a4"><rect x="0" width="489" y="0" height="96"/></clipPath></defs><path fill="#fff7c9" d="M 179.625 195.464844 C 177.382812 197.070312 175.3125 198.898438 173.152344 200.605469 C 172.238281 201.316406 171.332031 202.058594 170.527344 202.894531 C 170.484375 202.488281 170.449219 202.082031 170.359375 201.695312 C 169.699219 198.601562 169.007812 195.558594 168.441406 192.4375 C 167.964844 189.890625 167.402344 187.34375 166.421875 184.933594 C 166.214844 184.367188 165.820312 183.449219 165.074219 183.847656 C 164.632812 184.136719 164.476562 184.695312 164.300781 185.164062 C 164.082031 185.816406 163.820312 186.621094 163.582031 187.3125 C 163.449219 187.675781 163.28125 188.03125 163.136719 188.390625 C 162.144531 189.503906 161.164062 190.628906 160.230469 191.789062 C 158.484375 193.957031 156.808594 196.179688 155.144531 198.40625 C 154.421875 199.382812 153.722656 200.371094 153.054688 201.382812 C 152.78125 201.832031 152.484375 202.292969 152.261719 202.777344 C 152.136719 202.675781 152.011719 202.578125 151.894531 202.476562 C 150.90625 201.585938 149.988281 200.578125 149.097656 199.578125 C 148.082031 198.429688 147.058594 197.277344 146.050781 196.117188 C 146.058594 196.121094 146.0625 196.128906 146.070312 196.140625 C 145.660156 195.664062 145.21875 195.152344 144.800781 194.667969 C 144.824219 194.695312 144.832031 194.703125 144.835938 194.710938 C 144.523438 194.355469 144.253906 194.035156 143.925781 193.660156 C 142.753906 192.292969 141.546875 190.925781 140.332031 189.570312 C 139.800781 189.097656 139.066406 187.777344 138.269531 188.015625 C 138.152344 188.0625 138.070312 188.148438 138.011719 188.246094 C 137.945312 188.160156 137.882812 188.070312 137.804688 187.988281 C 136.875 187.503906 136.925781 188.777344 136.878906 189.355469 C 136.796875 190.488281 136.71875 191.617188 136.648438 192.75 C 136.648438 192.746094 136.648438 192.738281 136.648438 192.726562 C 136.289062 197.34375 136.304688 201.996094 136.425781 206.628906 C 136.511719 208.902344 136.378906 211.175781 136.472656 213.445312 C 136.519531 213.898438 136.566406 214.410156 136.675781 214.898438 C 136.492188 214.964844 136.324219 215.042969 136.175781 215.132812 C 136.371094 215.179688 136.570312 215.199219 136.765625 215.234375 C 136.847656 215.488281 136.949219 215.726562 137.105469 215.9375 C 137.085938 215.722656 137.105469 215.507812 137.113281 215.292969 C 138.695312 215.53125 140.300781 215.445312 141.902344 215.421875 C 145.5625 215.40625 149.226562 215.519531 152.886719 215.5625 C 153.738281 215.601562 154.585938 215.664062 155.4375 215.71875 C 154.199219 215.804688 152.9375 215.894531 151.695312 215.988281 C 150.488281 216.128906 149.285156 216.054688 148.078125 215.976562 C 147.164062 215.921875 146.246094 215.863281 145.332031 215.90625 C 145.140625 215.925781 144.90625 215.917969 144.65625 215.914062 C 143.890625 215.894531 142.980469 215.875 142.816406 216.660156 C 142.15625 216.671875 141.492188 216.65625 140.828125 216.644531 C 139.597656 216.621094 138.371094 216.601562 137.152344 216.703125 C 136.570312 216.757812 135.992188 216.851562 135.414062 216.941406 C 135.273438 216.933594 135.21875 217.140625 135.355469 217.203125 C 135.46875 217.253906 135.601562 217.265625 135.726562 217.292969 C 137.394531 217.671875 139.105469 217.667969 140.8125 217.664062 C 141.414062 217.664062 142.015625 217.660156 142.613281 217.675781 C 146.953125 217.710938 151.289062 217.699219 155.625 217.816406 C 159.535156 217.898438 163.414062 218.445312 167.308594 218.742188 C 171.15625 219.0625 175 219.453125 178.84375 219.78125 C 178.832031 219.863281 178.8125 219.941406 178.800781 220.023438 C 178.757812 220.257812 178.679688 220.53125 178.816406 220.746094 C 178.90625 220.914062 179.082031 220.996094 179.253906 220.996094 L 179.257812 220.996094 C 179.433594 220.996094 179.601562 220.914062 179.695312 220.75 C 179.835938 220.515625 179.921875 220.242188 180.023438 219.988281 C 180.035156 219.953125 180.046875 219.921875 180.058594 219.886719 C 180.261719 219.90625 180.460938 219.925781 180.664062 219.941406 L 180.667969 219.941406 C 181.222656 219.941406 181.34375 219.164062 180.867188 218.933594 C 180.730469 218.902344 180.585938 218.886719 180.441406 218.863281 C 180.570312 218.5 180.6875 218.132812 180.789062 217.761719 C 181.363281 215.394531 181.582031 212.957031 181.941406 210.554688 C 182.324219 207.433594 183.210938 204.40625 183.863281 201.339844 C 184.230469 199.730469 184.601562 198.121094 185.085938 196.542969 C 185.289062 195.476562 187.042969 192.125 184.886719 192.265625 C 183.730469 190.316406 180.535156 194.566406 179.636719 195.46875 Z M 170.875 203.472656 C 170.800781 203.554688 170.730469 203.636719 170.660156 203.71875 C 170.652344 203.679688 170.636719 203.640625 170.632812 203.601562 C 170.710938 203.558594 170.796875 203.519531 170.875 203.472656 Z M 165.402344 185.117188 C 167.109375 189.257812 167.542969 193.753906 168.53125 198.101562 C 168.933594 199.875 169.265625 201.703125 170.140625 203.3125 C 169.972656 203.507812 169.8125 203.707031 169.660156 203.914062 C 169.164062 202.558594 168.519531 201.242188 168.144531 199.84375 C 167.285156 196.460938 167.253906 192.921875 166.339844 189.550781 C 166.03125 188.277344 165.5625 187.027344 164.714844 187.125 C 164.957031 186.460938 165.1875 185.792969 165.40625 185.113281 Z M 145.289062 196.792969 C 146.515625 198.214844 147.78125 199.640625 149.042969 201.039062 C 149.898438 201.941406 150.820312 203.085938 151.980469 203.609375 C 151.972656 203.660156 151.953125 203.707031 151.949219 203.753906 C 147.671875 200.566406 144.074219 196.53125 140.835938 192.296875 C 140.171875 191.433594 139.511719 190.570312 138.894531 189.671875 C 138.894531 189.613281 138.890625 189.550781 138.890625 189.492188 C 141.074219 191.886719 143.164062 194.335938 145.289062 196.792969 Z M 137.144531 214.746094 C 137.25 213.882812 137.460938 213.011719 137.441406 212.136719 C 137.539062 208.308594 137.355469 204.480469 137.355469 200.652344 C 137.355469 197.070312 137.597656 193.511719 137.851562 189.9375 C 137.867188 189.960938 137.882812 189.984375 137.902344 190.007812 C 137.925781 191.460938 137.988281 192.910156 138.089844 194.363281 L 138.089844 194.375 C 138.339844 197.683594 138.628906 200.996094 138.640625 204.324219 C 138.65625 206.644531 138.59375 208.964844 138.546875 211.289062 C 138.503906 212.21875 138.582031 213.167969 138.824219 214.074219 C 138.382812 214.097656 137.9375 214.125 137.496094 214.136719 C 137.484375 214.125 137.46875 214.125 137.457031 214.136719 C 137.667969 214.339844 138.039062 214.402344 138.320312 214.511719 C 137.953125 214.566406 137.539062 214.640625 137.148438 214.742188 Z M 176.074219 218.320312 C 172.101562 217.878906 168.121094 217.480469 164.132812 217.207031 C 161.464844 216.976562 158.789062 216.984375 156.128906 216.683594 C 157.363281 216.628906 158.617188 216.445312 159.757812 215.988281 C 166.03125 216.464844 172.296875 217.148438 178.542969 217.890625 C 178.753906 217.917969 178.964844 217.9375 179.175781 217.945312 C 179.132812 218.179688 179.082031 218.421875 179.039062 218.65625 C 178.050781 218.539062 177.050781 218.457031 176.070312 218.324219 Z M 182.316406 201.785156 C 181.789062 204.417969 181.5 207.097656 180.894531 209.710938 C 180.367188 212.089844 179.871094 214.472656 179.390625 216.867188 C 179.390625 216.886719 179.382812 216.910156 179.382812 216.929688 C 174.722656 215.695312 169.851562 215.226562 165.046875 214.878906 C 160.84375 214.617188 156.628906 214.621094 152.425781 214.511719 C 148.988281 214.324219 145.550781 214.195312 142.113281 214.046875 C 141.125 213.953125 140.144531 214 139.164062 214.058594 C 139.449219 213 139.59375 211.902344 139.574219 210.804688 C 139.609375 209.222656 139.648438 207.636719 139.65625 206.054688 C 139.769531 201.160156 139.15625 196.320312 138.953125 191.441406 C 141.574219 195.023438 144.398438 198.488281 147.679688 201.492188 C 148.558594 202.28125 149.457031 203.089844 150.378906 203.832031 C 150.984375 204.285156 151.566406 204.867188 152.320312 205.050781 C 152.558594 205.09375 152.8125 204.96875 152.9375 204.773438 C 153.125 204.496094 153.011719 204.179688 152.988281 203.878906 C 153.164062 203.898438 153.347656 203.910156 153.539062 203.890625 C 153.871094 203.828125 154.203125 203.691406 154.472656 203.511719 C 154.179688 203.527344 153.890625 203.542969 153.609375 203.492188 C 153.453125 203.457031 153.300781 203.402344 153.15625 203.339844 C 153.765625 201.933594 154.761719 200.710938 155.632812 199.460938 C 156.945312 197.65625 158.308594 195.882812 159.679688 194.121094 C 160.296875 193.351562 160.914062 192.574219 161.535156 191.804688 C 160.726562 193.324219 159.851562 194.808594 158.984375 196.289062 C 157.882812 198.238281 156.511719 200.070312 155.964844 202.273438 C 156.953125 201.554688 157.699219 200.507812 158.300781 199.441406 C 159.441406 197.519531 160.585938 195.601562 161.679688 193.652344 C 162.570312 192.140625 163.320312 190.582031 163.984375 188.984375 C 164.246094 188.710938 164.5 188.433594 164.769531 188.164062 C 166.546875 192.359375 166.027344 197.179688 167.585938 201.453125 C 168.1875 203.050781 168.839844 204.738281 170.210938 205.835938 C 170.101562 205.238281 169.925781 204.664062 169.722656 204.09375 C 169.941406 203.976562 170.152344 203.859375 170.367188 203.746094 C 170.40625 203.808594 170.445312 203.867188 170.484375 203.925781 C 170.308594 204.128906 170.128906 204.328125 169.925781 204.507812 C 170.539062 204.464844 171.132812 204.148438 171.671875 203.84375 C 173.074219 202.949219 174.304688 201.796875 175.589844 200.742188 C 177.230469 199.355469 178.886719 197.863281 180.304688 196.230469 C 181.460938 195.421875 182.648438 194.664062 183.84375 193.910156 C 183.382812 196.53125 182.792969 199.160156 182.316406 201.785156 Z M 182.316406 201.785156 " fill-opacity="1" fill-rule="nonzero"/><path fill="#fff7c9" d="M 143.921875 193.65625 C 143.921875 193.65625 143.929688 193.660156 143.929688 193.664062 C 143.929688 193.664062 143.925781 193.660156 143.921875 193.660156 Z M 143.921875 193.65625 " fill-opacity="1" fill-rule="nonzero"/><path fill="#fff7c9" d="M 187.746094 183.070312 C 187.777344 183.039062 187.777344 182.96875 187.800781 182.921875 C 188.300781 183.492188 188.984375 183.917969 189.722656 184.097656 C 189.964844 184.144531 190.199219 184.167969 190.425781 184.167969 C 192.453125 184.167969 193.855469 182.414062 193.441406 180.289062 C 193.28125 179.292969 192.929688 178.183594 191.976562 177.683594 C 190.3125 176.824219 187.6875 178.464844 187.214844 180.152344 C 187.027344 180.8125 187.050781 181.542969 187.339844 182.175781 C 187.480469 182.476562 187.6875 182.734375 187.746094 183.070312 Z M 191.441406 179.054688 C 192.421875 179.976562 192.566406 182.726562 190.804688 182.8125 C 189.84375 182.859375 188.734375 182.136719 188.738281 181.105469 C 188.886719 179.925781 190.390625 179.230469 191.445312 179.054688 Z M 191.441406 179.054688 " fill-opacity="1" fill-rule="nonzero"/><path fill="#fff7c9" d="M 165.386719 178.214844 C 165.5625 178.246094 165.734375 178.265625 165.90625 178.265625 C 168.4375 178.265625 170.078125 174.632812 167.886719 172.953125 C 167.140625 171.800781 165.386719 172.632812 164.605469 173.371094 C 162.992188 174.738281 162.9375 177.859375 165.386719 178.214844 Z M 165.453125 174.289062 C 165.734375 173.914062 166.269531 173.675781 166.746094 173.675781 C 167.222656 173.675781 167.675781 173.929688 167.710938 174.558594 C 167.804688 175.503906 167.101562 176.449219 166.132812 176.515625 C 164.929688 176.625 164.738281 174.984375 165.457031 174.292969 Z M 165.453125 174.289062 " fill-opacity="1" fill-rule="nonzero"/><g clip-path="url(#0be6545f60)"><path fill="#fff7c9" d="M 137.269531 182.914062 C 140.375 182.914062 143.847656 179.71875 141.328125 176.769531 C 140.046875 175.238281 136.921875 175.597656 136.152344 177.996094 C 135.480469 178.382812 134.976562 179.113281 134.953125 179.894531 C 134.34375 181.261719 135.429688 182.785156 136.871094 182.890625 C 137.003906 182.902344 137.136719 182.910156 137.269531 182.910156 Z M 139.332031 177.449219 C 139.554688 177.34375 139.824219 177.207031 140.097656 177.089844 C 141.972656 178.277344 141.136719 180.542969 139.347656 181.324219 C 139.558594 181.132812 139.71875 180.878906 139.808594 180.609375 C 140.300781 179.5625 139.660156 178.253906 138.628906 177.808594 C 138.859375 177.683594 139.09375 177.5625 139.328125 177.449219 Z M 137.644531 178.589844 C 138.070312 178.589844 138.527344 178.859375 138.753906 179.199219 C 139.160156 179.714844 138.929688 180.597656 138.203125 180.613281 C 137.375 180.589844 137.039062 179.550781 137.03125 178.847656 C 137.199219 178.664062 137.417969 178.589844 137.644531 178.589844 Z M 135.976562 180.070312 C 135.976562 180.070312 135.984375 180.058594 135.984375 180.050781 C 136.035156 179.960938 136.089844 179.871094 136.144531 179.78125 C 136.265625 180.191406 136.453125 180.589844 136.726562 180.917969 C 136.367188 180.765625 136.023438 180.480469 135.976562 180.070312 Z M 135.976562 180.070312 " fill-opacity="1" fill-rule="nonzero"/></g><g clip-path="url(#398f9d93d7)"><g clip-path="url(#0e757d9113)"><g clip-path="url(#bd75136da0)"><path fill="#fff7c9" d="M 550.226562 229.71875 C 550.273438 229.753906 550.320312 229.789062 550.367188 229.816406 C 550.636719 229.976562 550.964844 230.015625 551.269531 230.0625 C 552.0625 230.183594 552.859375 230.296875 553.648438 230.421875 C 553.742188 230.8125 554.25 230.785156 554.425781 230.464844 C 554.433594 230.460938 554.441406 230.460938 554.449219 230.457031 C 554.601562 230.402344 554.683594 230.257812 554.683594 230.109375 C 556.085938 228.097656 557.4375 226.050781 558.828125 224.03125 C 559.230469 223.453125 559.648438 222.851562 560.050781 222.269531 C 560.046875 222.277344 560.039062 222.28125 560.035156 222.289062 C 560.8125 221.195312 561.570312 220.09375 562.347656 219.003906 C 562.34375 219.011719 562.34375 219.011719 562.34375 219.015625 C 562.339844 219.019531 562.339844 219.019531 562.339844 219.023438 C 565.953125 214.171875 568.894531 208.882812 572.097656 203.761719 C 573.347656 202.167969 570.921875 201.136719 569.84375 200.382812 C 567.53125 199.035156 564.847656 198.429688 562.300781 197.660156 C 561.820312 197.519531 561.335938 197.378906 560.855469 197.234375 C 560.503906 197.121094 560.070312 196.964844 559.753906 197.246094 C 558.769531 198.542969 558.492188 200.269531 557.9375 201.78125 C 556.445312 206.785156 555.316406 211.894531 553.671875 216.855469 C 552.523438 220.414062 551.195312 223.921875 550.34375 227.570312 C 550.238281 228.03125 550.128906 228.53125 550.074219 229.007812 C 550.023438 229.257812 550.023438 229.535156 550.230469 229.714844 Z M 558.210938 223.632812 C 558.21875 223.621094 558.230469 223.605469 558.242188 223.59375 C 557.402344 224.808594 556.582031 226.027344 555.75 227.25 C 555.78125 227.179688 555.8125 227.109375 555.84375 227.042969 C 556.015625 226.660156 556.199219 226.28125 556.378906 225.902344 C 558.554688 221.242188 562.164062 217.476562 565.292969 213.453125 C 563.019531 216.90625 560.53125 220.222656 558.210938 223.632812 Z M 571.703125 202.742188 C 571.746094 202.824219 571.71875 202.917969 571.683594 203.003906 C 571.230469 203.816406 570.695312 204.59375 570.214844 205.394531 C 570.390625 204.917969 570.542969 204.433594 570.652344 203.941406 C 570.769531 203.410156 570.851562 202.851562 570.808594 202.304688 C 570.796875 202.152344 570.777344 202 570.746094 201.847656 C 571.082031 202.117188 571.472656 202.355469 571.707031 202.742188 Z M 570.054688 203.035156 C 569.023438 208.976562 562.933594 214.8125 559.414062 219.605469 C 558.402344 220.96875 557.421875 222.375 556.597656 223.867188 C 555.582031 225.707031 554.753906 227.652344 553.898438 229.574219 C 553.554688 229.476562 553.214844 229.371094 552.871094 229.28125 C 552.894531 229.078125 552.921875 228.878906 552.945312 228.671875 C 552.96875 228.507812 552.988281 228.339844 553.011719 228.175781 C 553.289062 226.394531 553.660156 224.617188 554.054688 222.855469 C 554.054688 222.859375 554.054688 222.859375 554.050781 222.863281 C 554.207031 222.191406 554.371094 221.507812 554.527344 220.820312 C 556.203125 214.011719 557.613281 207.011719 561.15625 200.867188 C 561.328125 200.625 561.40625 200.230469 561.691406 200.109375 C 562.6875 200.085938 563.632812 200.238281 564.636719 200.320312 C 565.957031 200.46875 567.308594 200.578125 568.628906 200.847656 C 569.835938 201.042969 570.207031 201.90625 570.050781 203.035156 Z M 555.53125 213.332031 C 556.472656 210.074219 557.28125 206.777344 558.199219 203.511719 C 558.808594 201.605469 559.238281 199.574219 560.21875 197.824219 C 562.445312 198.484375 564.691406 199.078125 566.890625 199.832031 C 565.632812 199.679688 564.375 199.539062 563.105469 199.433594 C 562.4375 199.425781 561.492188 199.117188 560.988281 199.71875 C 559.921875 201.453125 559.066406 203.316406 558.222656 205.167969 C 556.222656 210.074219 555.15625 215.300781 553.867188 220.425781 C 553.699219 221.148438 553.515625 221.929688 553.34375 222.671875 C 552.871094 224.792969 552.40625 226.925781 552.152344 229.089844 C 551.871094 229.011719 551.460938 228.988281 551.359375 229.332031 C 551.152344 229.296875 551.003906 229.277344 550.796875 229.210938 C 550.832031 228.980469 550.855469 228.75 550.898438 228.519531 C 552.011719 223.335938 554.101562 218.433594 555.535156 213.335938 Z M 555.53125 213.332031 " fill-opacity="1" fill-rule="nonzero"/></g></g></g><g clip-path="url(#ed54422dd7)"><g clip-path="url(#a4defc57e3)"><g clip-path="url(#486f47845f)"><path fill="#fff7c9" d="M 551.066406 235.703125 C 550.1875 235.167969 549.191406 235.496094 548.257812 235.402344 C 545.082031 235.214844 542.8125 240.261719 545.097656 242.5 C 545.292969 242.675781 545.496094 242.828125 545.714844 242.953125 C 548.289062 244.476562 552.25 242.796875 552.75 239.75 C 553.09375 238.226562 552.527344 236.433594 551.066406 235.703125 Z M 546.132812 242.355469 C 545.089844 241.824219 544.722656 240.570312 544.976562 239.480469 C 544.773438 241.34375 546.613281 242.683594 548.332031 242.75 C 547.582031 242.839844 546.8125 242.722656 546.132812 242.355469 Z M 547.445312 239.070312 C 548.195312 238.480469 549.128906 237.8125 550.125 238.167969 C 551.273438 238.601562 551.390625 240.21875 550.714844 241.109375 C 549.839844 242.234375 548.089844 242.21875 546.910156 241.585938 C 544.265625 240.140625 546.542969 236.828125 548.691406 236.234375 C 549.378906 236.441406 549.949219 236.898438 550.515625 237.324219 C 550.890625 237.628906 551.359375 237.074219 550.992188 236.761719 C 550.726562 236.558594 550.46875 236.359375 550.191406 236.167969 C 551.964844 236.558594 552.480469 238.734375 551.835938 240.246094 C 552.125 237.085938 549.035156 236.558594 547.019531 238.464844 C 546.628906 238.746094 547.050781 239.34375 547.441406 239.070312 Z M 547.445312 239.070312 " fill-opacity="1" fill-rule="nonzero"/></g></g></g><g clip-path="url(#312d37537e)"><g clip-path="url(#64708920c8)"><g clip-path="url(#8c96ba8627)"><path fill="#fff7c9" d="M 583.699219 213.792969 C 582.359375 213.261719 580.960938 212.851562 579.542969 212.585938 C 578.097656 212.28125 576.375 212.164062 575.363281 213.453125 C 572.792969 216.292969 570.496094 219.335938 568.199219 222.414062 C 566.035156 225.289062 564.363281 228.480469 562.640625 231.640625 C 562.367188 232.070312 562.125 232.507812 561.90625 232.976562 C 561.734375 233.292969 561.421875 233.5625 561.382812 233.933594 C 561.398438 234.238281 561.644531 234.480469 561.832031 234.703125 C 562.394531 235.316406 563.003906 235.882812 563.625 236.429688 C 563.644531 236.445312 563.664062 236.460938 563.683594 236.472656 C 563.972656 236.644531 564.375 236.300781 564.191406 235.980469 C 567.375 234.078125 570.613281 232.171875 573.535156 229.867188 C 576.117188 227.863281 578.300781 225.398438 580.550781 223.035156 C 582.082031 221.410156 583.757812 219.9375 585.589844 218.667969 C 589.601562 215.871094 586.671875 215.03125 583.703125 213.792969 Z M 571.816406 230.25 C 571.898438 230.183594 571.984375 230.117188 572.066406 230.050781 C 573.078125 229.238281 574.140625 228.363281 575.160156 227.507812 C 574.082031 228.476562 573 229.40625 571.816406 230.25 Z M 584.308594 218.246094 C 583.316406 219.386719 582.160156 220.390625 581.007812 221.375 C 577.953125 224.136719 574.894531 226.851562 571.671875 229.421875 C 569.144531 231.53125 566.242188 233.367188 563.746094 235.507812 C 563.71875 235.480469 563.695312 235.453125 563.664062 235.425781 C 563.53125 235.292969 563.394531 235.15625 563.257812 235.019531 C 562.929688 234.695312 562.605469 234.351562 562.253906 234.0625 C 563.695312 230.875 565.949219 228.113281 567.882812 225.203125 C 567.875 225.214844 567.863281 225.226562 567.851562 225.242188 C 568.6875 224.066406 569.546875 222.898438 570.410156 221.746094 L 570.40625 221.753906 C 572.425781 219.070312 574.683594 216.566406 576.675781 213.863281 C 576.839844 213.671875 576.984375 213.347656 577.234375 213.210938 C 578.878906 213.875 580.4375 214.742188 582.011719 215.558594 C 582.15625 215.65625 582.375 215.78125 582.625 215.917969 C 583.632812 216.480469 585.144531 217.339844 584.304688 218.246094 Z M 585.28125 217.972656 C 585.496094 216.761719 584.210938 216.023438 583.335938 215.472656 C 583.261719 215.429688 583.183594 215.382812 583.105469 215.339844 C 581.828125 214.582031 580.492188 213.929688 579.160156 213.269531 C 581.089844 213.609375 582.953125 214.214844 584.730469 215.027344 C 585.242188 215.257812 585.757812 215.476562 586.25 215.742188 C 586.464844 215.875 586.78125 216.039062 586.800781 216.320312 C 586.636719 217.089844 585.84375 217.480469 585.28125 217.972656 Z M 585.28125 217.972656 " fill-opacity="1" fill-rule="nonzero"/></g></g></g><g clip-path="url(#673b824d1d)"><g clip-path="url(#3ddfc264ff)"><g clip-path="url(#c069477112)"><path fill="#fff7c9" d="M 555.96875 241.066406 C 554.015625 242.007812 552.34375 244.867188 554.042969 246.738281 C 554.046875 246.914062 554.074219 247.085938 554.132812 247.257812 C 554.292969 247.738281 554.589844 248.074219 554.964844 248.292969 C 555.882812 248.839844 557.265625 248.710938 558.222656 248.339844 C 559.832031 247.789062 560.828125 246.207031 560.972656 244.554688 C 561.464844 241.328125 558.808594 239.5625 555.96875 241.066406 Z M 557.628906 241.296875 C 556.195312 241.722656 554.65625 242.949219 554.773438 244.582031 C 554.539062 244.917969 554.347656 245.285156 554.214844 245.671875 C 553.574219 243.582031 555.660156 241.566406 557.628906 241.296875 Z M 555.726562 243.566406 C 556.433594 242.394531 558.546875 241.183594 559.699219 242.382812 C 560.179688 243.054688 559.984375 243.964844 559.71875 244.691406 C 559.320312 245.820312 558.253906 246.644531 557.066406 246.808594 C 556.515625 246.171875 555.957031 245.507812 555.574219 244.753906 C 556.070312 244.117188 557.019531 243.441406 557.636719 243.804688 C 557.84375 243.929688 558.011719 244.167969 558.109375 244.566406 C 558.273438 245.015625 558.976562 244.757812 558.804688 244.308594 C 558.378906 242.734375 556.867188 242.617188 555.726562 243.566406 Z M 554.792969 246.417969 C 554.835938 246.082031 554.957031 245.761719 555.109375 245.460938 C 555.429688 245.9375 555.765625 246.40625 556.125 246.851562 C 555.75 246.824219 555.375 246.734375 555.035156 246.566406 C 554.949219 246.519531 554.871094 246.472656 554.792969 246.417969 Z M 555.351562 247.667969 C 555.214844 247.589844 555.09375 247.484375 554.996094 247.359375 C 556.625 247.9375 558.671875 247.476562 559.757812 246.09375 C 558.996094 247.589844 556.898438 248.351562 555.351562 247.667969 Z M 555.351562 247.667969 " fill-opacity="1" fill-rule="nonzero"/></g></g></g><g clip-path="url(#236d00b194)"><g transform="matrix(1, 0, 0, 1, 36, 194)"><g clip-path="url(#45db979523)"><g clip-path="url(#f920b5278c)"><path fill="#fff7c9" d="M 76.183594 55.042969 C 76.414062 54.535156 76.691406 54.078125 76.777344 53.515625 C 77.03125 53.675781 77.480469 54.382812 77.765625 54.160156 C 77.777344 54.152344 77.792969 54.140625 77.804688 54.140625 C 77.976562 54.207031 78.109375 54.113281 78.261719 54.054688 C 78.484375 54.019531 78.371094 53.792969 78.398438 53.636719 C 79.480469 53.335938 74.660156 48.765625 74.027344 48.484375 C 74.046875 48.386719 74.105469 48.289062 74.101562 48.203125 C 74.011719 48.089844 73.972656 47.945312 73.886719 47.828125 C 73.714844 47.726562 73.789062 47.578125 73.476562 47.671875 C 73.355469 47.472656 73.195312 47.617188 73.0625 47.652344 C 72.726562 47.722656 72.59375 48.003906 72.527344 48.308594 C 72.394531 48.355469 72.378906 48.496094 72.308594 48.589844 C 71.957031 49.121094 71.480469 49.550781 71.269531 50.160156 C 69.585938 48.480469 67.855469 46.808594 66.347656 44.957031 C 65.476562 43.933594 64.699219 44.128906 63.910156 45.140625 C 60.546875 40.441406 56.492188 36.335938 52.789062 31.921875 C 50.960938 29.679688 49.246094 27.339844 47.304688 25.191406 C 47.140625 24.929688 46.933594 25.148438 46.746094 24.90625 C 46.164062 24.410156 45.328125 24.574219 44.710938 24.914062 C 40.75 26.75 36.816406 38.496094 35.609375 42.785156 C 35.003906 45.339844 32.515625 51.140625 34.238281 53.300781 C 33.902344 53.316406 32.609375 53.242188 32.964844 53.84375 C 32.789062 53.949219 32.792969 53.949219 32.832031 54.144531 C 32.925781 54.917969 34.007812 54.945312 34.601562 55.089844 C 35.972656 55.34375 37.363281 55.378906 38.753906 55.332031 C 40.960938 55.828125 43.117188 56.636719 45.394531 56.902344 C 49.304688 57.339844 53.101562 58.425781 56.992188 59.027344 C 56.871094 59.523438 56.71875 60.003906 56.933594 60.523438 C 56.695312 60.484375 56.425781 60.421875 56.242188 60.5625 C 56.230469 60.691406 56.121094 60.71875 56.058594 60.792969 C 55.859375 61.003906 55.789062 61.304688 55.851562 61.574219 C 56.007812 61.679688 56.09375 61.875 56.300781 61.925781 C 57.316406 62.25 58.398438 62.398438 59.382812 62.804688 C 60.253906 63.351562 61.167969 63.820312 62.148438 64.144531 C 62.527344 64.199219 62.679688 64.347656 62.753906 64.726562 C 63.011719 65.519531 62.738281 66.40625 62.964844 67.230469 C 63.140625 67.820312 63.050781 70.304688 64.027344 69.855469 C 64.105469 70.46875 63.953125 71.074219 63.777344 71.664062 C 63.320312 72.945312 63.082031 74.292969 62.667969 75.585938 C 61.371094 78.839844 59.277344 81.109375 64.410156 81.421875 C 64.570312 81.789062 65.035156 82.1875 65.320312 81.703125 C 65.328125 82.207031 65.835938 81.746094 65.902344 81.496094 C 67.828125 77.109375 69.199219 72.488281 71.21875 68.148438 C 71.355469 68.316406 71.3125 68.410156 71.546875 68.28125 C 71.832031 68.167969 71.644531 67.882812 71.796875 67.644531 C 73.421875 68.3125 75.234375 69.480469 77.03125 68.804688 C 77.179688 68.730469 77.28125 68.617188 77.300781 68.4375 C 77.410156 67.71875 78.257812 67.546875 78.71875 67.085938 C 81.003906 68.339844 81.730469 66.140625 81.132812 64.261719 C 81.078125 63.945312 80.84375 63.660156 80.871094 63.335938 C 81.007812 62.148438 81.667969 60.636719 80.832031 59.609375 C 80.578125 59.210938 79.625 58.601562 79.59375 58.230469 C 79.605469 58.167969 79.496094 58.085938 79.476562 58.035156 C 79.457031 57.796875 79.261719 57.703125 79.109375 57.578125 C 78.050781 56.820312 77.097656 55.957031 76.183594 55.042969 Z M 64.316406 64.492188 C 64.199219 64.410156 64.175781 64.285156 64.140625 64.144531 C 64.457031 64.191406 64.289062 64.289062 64.3125 64.5 C 64.382812 64.546875 64.453125 64.589844 64.53125 64.644531 C 64.328125 64.625 64.328125 64.625 64.316406 64.492188 Z M 53.191406 56.464844 C 53.417969 56.039062 52.296875 55.953125 52.035156 55.804688 C 47.992188 54.28125 43.789062 53.601562 39.472656 53.929688 C 38.699219 53.890625 38.007812 53.355469 37.238281 53.308594 C 37.105469 53.359375 36.941406 53.316406 36.847656 53.441406 C 36.628906 53.679688 35.910156 53.429688 35.578125 53.402344 C 40.488281 49.839844 46.820312 34.066406 47.582031 27.886719 C 48.367188 28.769531 49.074219 29.75 49.828125 30.667969 C 49.886719 30.761719 49.882812 30.933594 49.898438 31.027344 C 49.433594 31.449219 50.183594 31.910156 50.421875 32.253906 C 52.246094 34.171875 54.171875 36 55.789062 38.105469 C 57.445312 40.117188 59.101562 42.128906 60.847656 44.066406 C 61.023438 44.3125 60.84375 44.585938 61.136719 44.820312 C 62.765625 46.554688 64.175781 47.78125 63 50.296875 C 62.867188 50.117188 62.71875 50.234375 62.546875 50.253906 C 62.273438 50.285156 62.167969 50.441406 62.25 50.710938 C 61.5 52.574219 60.273438 54.488281 59.167969 56.269531 C 59.007812 56.503906 58.71875 56.632812 58.660156 56.933594 C 58.585938 57.296875 58.320312 57.574219 58.136719 57.886719 C 56.480469 57.480469 54.800781 57.277344 53.140625 56.902344 C 53.46875 56.761719 53.449219 56.675781 53.191406 56.464844 Z M 60.929688 56.878906 C 61.152344 56.996094 61.390625 56.914062 61.625 56.96875 C 61.847656 56.925781 62.003906 56.695312 62.097656 56.484375 C 62.464844 55.410156 62.910156 54.367188 63.375 53.328125 C 63.992188 51.761719 64.90625 50.296875 64.925781 48.578125 C 65.117188 48.589844 65.320312 48.609375 65.445312 48.441406 C 65.554688 48.410156 65.570312 48.339844 65.558594 48.242188 C 65.554688 48.199219 65.570312 48.132812 65.601562 48.109375 C 65.789062 47.972656 65.601562 47.816406 65.53125 47.667969 C 65.792969 47.371094 65.136719 46.894531 65.011719 46.601562 C 64.847656 46.390625 65.167969 46.136719 65.292969 45.964844 C 66.667969 47.578125 68.210938 49.03125 69.671875 50.5625 C 69.941406 50.753906 69.660156 50.96875 69.84375 51.160156 C 71.167969 52.726562 72.699219 54.101562 74.242188 55.449219 C 75.761719 56.921875 77.367188 58.304688 78.964844 59.695312 C 79.882812 60.414062 79.800781 60.878906 79.625 61.949219 C 79.191406 61.554688 78.226562 61.359375 77.984375 62.046875 C 77.953125 62.148438 77.878906 62.246094 77.996094 62.335938 C 77.933594 62.421875 77.792969 62.480469 77.90625 62.59375 C 78.03125 62.714844 78.125 62.882812 78.316406 62.902344 C 78.5 64.789062 76.964844 66.328125 75.820312 67.644531 C 71.128906 64.84375 65.652344 63.011719 60.332031 61.503906 C 59.679688 61.332031 59.675781 61.335938 59.171875 60.878906 C 58.953125 60.703125 57.734375 59.496094 58.46875 59.523438 C 58.953125 59.679688 59.441406 58.367188 59.761719 58.039062 C 60.195312 57.683594 60.613281 57.367188 60.929688 56.878906 Z M 62.585938 79.640625 C 62.710938 79.367188 63.269531 77.511719 63.515625 77.65625 C 63.707031 77.722656 63.789062 77.535156 63.933594 77.503906 C 64.023438 77.285156 64.113281 77.0625 64.207031 76.84375 C 64.265625 76.714844 64.113281 76.664062 64.121094 76.550781 C 64.011719 76.054688 64.34375 75.625 64.535156 75.191406 C 65.464844 73.304688 66.402344 71.417969 67.320312 69.523438 C 67.4375 69.210938 67.792969 69.132812 67.886719 68.84375 C 68.023438 68.144531 68.777344 66.902344 68.464844 66.265625 C 69.023438 66.445312 69.542969 66.648438 70.066406 66.867188 C 68.382812 70.425781 67.195312 74.175781 65.742188 77.859375 C 64.84375 80.058594 65.054688 80.3125 62.585938 79.640625 Z M 71.917969 50.867188 C 72.359375 50.644531 72.449219 51.433594 72.800781 51.085938 C 73.007812 51.261719 73.148438 50.992188 73.332031 51 C 73.390625 50.921875 73.371094 50.71875 73.375 50.617188 C 73.714844 50.585938 73.53125 50.207031 73.609375 49.941406 C 74.074219 50.277344 75.332031 51.191406 75.453125 51.691406 C 75.257812 52.460938 75.566406 53.28125 75.097656 53.988281 C 74.027344 52.957031 72.894531 52.011719 71.917969 50.867188 Z M 64.550781 65.121094 C 65.496094 65.410156 66.429688 65.605469 67.320312 65.898438 C 67.140625 66.292969 67.015625 66.59375 66.832031 66.964844 C 66.789062 66.636719 66.714844 66.589844 66.515625 66.699219 C 66.347656 66.601562 66.207031 66.34375 66.007812 66.40625 C 65.726562 66.59375 65.472656 66.84375 65.292969 67.125 C 65.050781 66.472656 64.808594 65.8125 64.550781 65.121094 Z M 79.832031 66.035156 C 79.8125 66.027344 79.792969 66.019531 79.773438 66.011719 C 79.75 65.929688 79.8125 65.890625 79.890625 65.859375 C 79.871094 65.917969 79.851562 65.976562 79.832031 66.035156 Z M 79.832031 66.035156 " fill-opacity="1" fill-rule="nonzero"/></g><path fill="#fff7c9" d="M 17.070312 1.371094 C 16.707031 1.066406 16.335938 1.589844 16.707031 1.851562 C 16.613281 1.867188 16.527344 1.933594 16.5 1.992188 C 16.527344 2.171875 16.53125 2.375 16.714844 2.476562 C 19.902344 5.039062 22.335938 8.367188 24.898438 11.523438 C 26.308594 13.011719 29.632812 18.3125 31.75 17.828125 C 33.390625 17.527344 32.867188 15.554688 33.015625 14.320312 C 35.554688 16.675781 37.761719 19.410156 39.457031 22.433594 C 39.621094 22.644531 40.085938 23.050781 40.304688 22.757812 C 40.527344 22.777344 40.753906 22.785156 40.671875 22.488281 C 42.769531 22.542969 34.957031 13.371094 33.976562 12.972656 C 33.679688 12.707031 32.699219 12.242188 32.335938 12.402344 C 32.148438 12.585938 31.828125 12.527344 31.6875 12.796875 C 31.214844 13.859375 31.507812 15.0625 31.3125 16.191406 C 26.648438 12.03125 23.652344 6.269531 18.902344 2.15625 C 18.523438 1.898438 18.210938 1.425781 17.765625 1.320312 C 17.523438 1.300781 17 0.824219 17.070312 1.371094 Z M 17.070312 1.371094 " fill-opacity="1" fill-rule="nonzero"/><g clip-path="url(#e0e92814b7)"><path fill="#fff7c9" d="M 15.554688 32.039062 C 18.921875 32.3125 22.085938 33.8125 25.269531 34.867188 C 27.617188 35.589844 29.90625 36.871094 32.355469 37.097656 C 32.464844 37.058594 32.636719 37.089844 32.722656 37.015625 C 32.707031 36.816406 33.007812 36.859375 32.996094 36.652344 C 32.988281 36.539062 32.976562 36.417969 33.109375 36.332031 C 33.253906 36.089844 32.722656 36.089844 32.585938 36 C 32.585938 35.984375 32.585938 35.96875 32.589844 35.957031 C 32.734375 35.921875 32.886719 35.769531 32.707031 35.65625 C 30.457031 35.222656 28.347656 34.199219 26.167969 33.484375 C 24.15625 32.929688 14.257812 28.421875 13.863281 31.691406 C 9.820312 28.421875 5.882812 25.027344 1.945312 21.632812 C 1.734375 21.417969 1.476562 21.746094 1.234375 21.550781 C 1.128906 21.476562 1.078125 21.605469 1.03125 21.675781 C 0.742188 21.625 0.632812 21.710938 0.742188 21.925781 C 0.523438 22.128906 0.632812 22.3125 0.660156 22.535156 C 0.617188 22.636719 0.660156 22.703125 0.730469 22.761719 C 3.492188 25.144531 6.269531 27.511719 9.046875 29.878906 C 10.898438 31.4375 12.734375 33.039062 14.773438 34.351562 C 15.042969 34.507812 15.351562 34.507812 15.636719 34.421875 C 15.699219 34.417969 15.800781 34.429688 15.832031 34.367188 C 15.828125 34.175781 16.121094 34.210938 16.101562 33.996094 C 16.089844 33.898438 16.109375 33.792969 16.199219 33.699219 C 16.277344 33.121094 15.644531 32.621094 15.554688 32.039062 Z M 15.554688 32.039062 " fill-opacity="1" fill-rule="nonzero"/></g><path fill="#fff7c9" d="M 55.160156 8.429688 C 55.070312 8.265625 54.925781 8.269531 54.769531 8.222656 C 54.625 8.15625 54.613281 8.160156 54.496094 8.285156 C 54.226562 8.453125 54.050781 8.640625 54 8.957031 C 53.78125 9.742188 54.542969 10.25 54.585938 10.988281 C 54.753906 12.191406 54.796875 13.613281 53.859375 14.527344 C 53.683594 14.683594 53.503906 14.882812 53.242188 14.804688 C 52.46875 14.636719 51.683594 14.554688 50.894531 14.605469 C 49.949219 14.570312 48.941406 15.515625 49.410156 16.472656 C 49.847656 17.226562 50.898438 17.34375 51.703125 17.234375 C 52.5 17.15625 53.195312 16.699219 53.941406 16.535156 C 55.484375 16.960938 56.894531 17.960938 57.5625 19.449219 C 57.941406 20.097656 58.007812 21.234375 58.957031 21.230469 C 59.132812 21.21875 59.300781 21.121094 59.492188 21.148438 C 59.511719 21.152344 59.554688 21.105469 59.5625 21.074219 C 59.625 20.902344 59.839844 20.828125 59.757812 20.609375 C 59.703125 20.128906 59.648438 19.644531 59.585938 19.167969 C 59.195312 16.542969 60.378906 13.320312 63.460938 13.507812 C 63.644531 13.539062 63.632812 13.367188 63.730469 13.269531 C 63.894531 13.164062 63.835938 13.078125 63.695312 12.976562 C 63.851562 12.730469 63.828125 12.609375 63.488281 12.496094 C 63.585938 12.460938 63.707031 12.484375 63.710938 12.347656 C 63.605469 12.070312 63.109375 12.175781 62.882812 11.992188 C 62.867188 11.804688 62.878906 11.601562 62.851562 11.421875 C 62.75 11.308594 62.75 11.175781 62.757812 11.039062 C 62.734375 10.75 62.4375 10.972656 62.449219 11.164062 C 62.433594 11.160156 62.417969 11.160156 62.402344 11.160156 C 62.441406 10.839844 62.238281 10.765625 61.972656 10.710938 C 61.859375 10.664062 61.835938 10.800781 61.800781 10.878906 C 61.453125 10.898438 61.46875 11.214844 61.300781 11.472656 C 59.4375 11.871094 56.6875 10.992188 55.792969 9.214844 C 55.664062 8.933594 55.613281 8.195312 55.160156 8.429688 Z M 57.988281 17.074219 C 57.226562 16.242188 56.308594 15.746094 55.300781 15.371094 C 56.078125 14.421875 56.308594 13.195312 56.261719 11.996094 C 57.425781 12.550781 58.566406 12.910156 59.835938 13.128906 C 58.683594 14.1875 58.214844 15.542969 57.988281 17.074219 Z M 57.988281 17.074219 " fill-opacity="1" fill-rule="nonzero"/><path fill="#fff7c9" d="M 17.261719 57.023438 C 13.355469 57.660156 9.441406 58.285156 5.496094 58.65625 C 4.207031 58.789062 2.910156 58.824219 1.621094 58.945312 C 1.382812 58.9375 1.433594 59.234375 1.300781 59.371094 C 1.214844 59.460938 1.289062 59.558594 1.269531 59.648438 C 1.03125 60.027344 1.789062 60.503906 2.152344 60.417969 C 3.144531 60.34375 4.132812 60.300781 5.121094 60.214844 C 8.898438 59.886719 12.652344 59.3125 16.394531 58.71875 C 17.328125 58.554688 18.269531 58.417969 19.183594 58.179688 C 19.683594 58.074219 19.863281 57.539062 19.863281 57.09375 C 19.472656 56.273438 18.4375 56.085938 17.875 55.375 C 21.816406 54.144531 26.027344 53.847656 30.058594 52.914062 C 30.222656 52.882812 30.296875 52.734375 30.417969 52.65625 C 30.457031 52.628906 30.429688 52.492188 30.429688 52.457031 C 30.558594 52.386719 30.515625 52.265625 30.542969 52.15625 C 30.589844 51.949219 30.59375 51.949219 30.382812 51.878906 C 30.519531 51.160156 28.625 51.644531 28.257812 51.722656 C 26.542969 52.027344 24.828125 52.347656 23.113281 52.660156 C 21.039062 53.097656 18.820312 53.199219 16.878906 54.097656 C 16.480469 54.332031 16.339844 54.832031 16.246094 55.261719 C 16.144531 56.015625 16.859375 56.523438 17.261719 57.023438 Z M 17.261719 57.023438 " fill-opacity="1" fill-rule="nonzero"/><path fill="#fff7c9" d="M 15.15625 11.097656 C 15.320312 10.398438 12.371094 10.386719 12.074219 9.964844 C 10.023438 7.636719 12.960938 2.941406 11.820312 3.609375 C 11.828125 3.460938 11.949219 3.273438 11.792969 3.179688 C 11.652344 3.121094 11.636719 3.253906 11.5625 3.332031 C 11.304688 3.214844 11.167969 2.933594 10.929688 3.253906 C 10.523438 3.175781 10.554688 3.667969 10.414062 3.933594 C 10.289062 3.9375 10.171875 3.964844 10.121094 4.09375 C 9.46875 3.910156 9.859375 5.601562 9.027344 6.320312 C 8.246094 7.199219 6.917969 7.578125 5.773438 7.460938 C 4.816406 7.386719 3.796875 7.285156 2.886719 7.617188 C 2.761719 7.652344 2.648438 7.691406 2.65625 7.859375 C 2.628906 7.941406 2.5625 8.035156 2.578125 8.128906 C 2.585938 8.539062 2.683594 9.023438 3.164062 9.078125 C 3.839844 9.21875 4.523438 9.28125 5.210938 9.238281 C 5.507812 9.277344 5.949219 9.019531 6.140625 9.324219 C 6.621094 10.402344 6.484375 11.742188 6.183594 12.851562 C 5.917969 13.601562 5.027344 15.058594 6.222656 15.386719 C 6.457031 15.476562 6.597656 15.289062 6.820312 15.292969 C 7.160156 15.289062 7.238281 14.855469 7.375 14.613281 C 7.765625 13.664062 7.871094 12.5625 8.773438 11.914062 C 9.511719 11.335938 10.667969 11.441406 11.519531 11.679688 C 12.398438 12.253906 13.382812 12.394531 14.40625 12.386719 C 14.714844 12.296875 15.246094 12.296875 15.230469 11.863281 C 15.277344 11.515625 15.664062 11.335938 15.15625 11.097656 Z M 10.082031 9.925781 C 9.355469 9.96875 8.742188 10.109375 8.066406 10.386719 C 8.027344 9.839844 7.976562 9.3125 7.765625 8.789062 C 8.449219 8.601562 9.105469 8.394531 9.710938 7.96875 C 9.753906 8.667969 9.84375 9.3125 10.082031 9.925781 Z M 10.082031 9.925781 " fill-opacity="1" fill-rule="nonzero"/><path fill="#fff7c9" d="M 8.394531 37.535156 C 8.367188 37.0625 8.070312 37.261719 7.734375 37.320312 C 7.578125 37.253906 7.542969 37.269531 7.503906 37.46875 C 7.496094 37.515625 7.496094 37.582031 7.464844 37.609375 C 7.316406 37.757812 7.335938 37.941406 7.339844 38.117188 C 7.351562 39.117188 7.4375 40.113281 7.597656 41.097656 C 7.570312 41.621094 7.023438 41.988281 6.664062 42.316406 C 6.164062 42.609375 5.550781 43.179688 4.949219 43.035156 C 4.179688 42.617188 1.574219 41.6875 1.246094 42.859375 C 0.570312 44.554688 3.210938 44.960938 4.390625 44.792969 C 5 44.808594 5.207031 45.65625 5.300781 46.148438 C 5.320312 46.546875 5.417969 46.980469 5.292969 47.371094 C 4.964844 48.359375 4.558594 49.6875 4.914062 50.6875 C 5.03125 50.867188 5.179688 50.953125 5.398438 50.890625 C 5.710938 51.046875 6.191406 50.800781 6.304688 50.472656 C 6.660156 49.546875 6.648438 48.53125 6.921875 47.601562 C 8.09375 46.128906 10.703125 46.710938 12.300781 47.003906 C 12.6875 47.019531 13.277344 46.976562 13.410156 46.5625 C 13.289062 46.277344 13.722656 46.207031 13.304688 45.898438 C 13.582031 45.285156 11.914062 45.457031 11.605469 45.167969 C 10.171875 44.265625 9.140625 42.644531 9.234375 40.921875 C 9.273438 40.734375 9.300781 40.535156 9.148438 40.367188 C 9.121094 40.332031 9.132812 40.269531 9.121094 40.21875 C 9.097656 40.015625 8.929688 39.886719 8.960938 39.671875 C 8.921875 39.414062 8.921875 36.640625 8.394531 37.535156 Z M 6.789062 45.613281 C 6.648438 45.199219 6.5 44.765625 6.347656 44.316406 C 6.984375 44.066406 7.546875 43.695312 8.074219 43.226562 C 8.316406 43.957031 8.667969 44.589844 9.132812 45.1875 C 8.308594 45.269531 7.574219 45.402344 6.789062 45.613281 Z M 6.789062 45.613281 " fill-opacity="1" fill-rule="nonzero"/><path fill="#fff7c9" d="M 21.570312 67.691406 C 21.402344 67.847656 21.4375 67.878906 21.523438 68.046875 C 21.574219 68.40625 21.859375 68.484375 22.140625 68.550781 C 23.472656 68.828125 24.414062 70.183594 23.746094 71.464844 C 23.238281 72.15625 21.855469 74.261719 22.90625 74.871094 C 23.203125 74.972656 23.390625 75.058594 23.703125 74.878906 C 24.03125 74.992188 24.273438 74.464844 24.457031 74.253906 C 25.066406 73.484375 24.964844 72.332031 25.75 71.722656 C 26.773438 70.785156 28.226562 70.746094 29.492188 71.167969 C 30.320312 71.5625 30.457031 71.925781 31.417969 71.5625 C 31.753906 71.304688 31.507812 70.832031 31.460938 70.519531 C 31.59375 70.15625 30.84375 70.066406 30.65625 69.832031 C 30.03125 69.25 29.574219 68.554688 29.28125 67.75 C 28.976562 66.898438 29.304688 66.019531 29.089844 65.160156 C 29.078125 64.726562 28.714844 65.253906 28.371094 64.953125 C 28.128906 64.804688 27.953125 65.015625 27.789062 65.183594 C 27.292969 64.792969 26.785156 65.515625 26.316406 65.671875 C 25.613281 66.078125 24.898438 66.460938 24.136719 66.738281 C 23.445312 67.003906 22.714844 67.175781 21.980469 67.023438 C 21.875 67.015625 21.789062 67.042969 21.746094 67.164062 C 21.675781 67.335938 21.390625 67.492188 21.570312 67.691406 Z M 24.765625 68.207031 C 25.785156 67.859375 26.675781 67.371094 27.59375 66.835938 C 27.582031 67.773438 27.839844 68.609375 28.253906 69.429688 C 27.242188 69.339844 26.34375 69.46875 25.445312 69.933594 C 25.34375 69.296875 25.257812 68.691406 24.765625 68.207031 Z M 24.765625 68.207031 " fill-opacity="1" fill-rule="nonzero"/></g></g></g><g clip-path="url(#0e7d29f89f)"><path fill="#fff7c9" d="M 374.996094 269.433594 C 368.375 258.101562 361.800781 246.75 355.101562 235.480469 C 353.59375 232.84375 352.121094 230.179688 350.617188 227.535156 C 355.882812 224.359375 361.140625 221.179688 366.363281 217.9375 C 367.339844 217.328125 368.316406 216.6875 369.273438 216.0625 C 370.890625 214.886719 369.417969 212.703125 367.777344 213.21875 C 367.851562 213.183594 367.914062 213.148438 367.980469 213.113281 C 369.96875 212.011719 368.253906 209.140625 366.371094 210.136719 C 359.789062 213.570312 353.203125 217.011719 346.632812 220.488281 C 338.628906 206.445312 330.726562 192.351562 322.796875 178.273438 C 328.5 175.242188 334.199219 172.203125 339.894531 169.171875 C 346.847656 165.460938 353.816406 161.761719 360.761719 158.023438 C 361.570312 157.585938 361.875 156.539062 361.4375 155.734375 C 360.996094 154.921875 359.957031 154.621094 359.144531 155.050781 C 355.789062 156.855469 352.429688 158.648438 349.074219 160.445312 C 348.671875 159.683594 347.773438 159.167969 346.796875 159.675781 C 337.824219 164.144531 328.984375 168.863281 320.183594 173.648438 C 313.246094 161.320312 306.210938 149.054688 299.324219 136.707031 C 299.09375 135.648438 297.816406 135.046875 296.859375 135.59375 C 295.515625 136.308594 295.992188 137.925781 296.6875 138.960938 C 303.46875 151.09375 310.320312 163.195312 317.136719 175.316406 C 316.90625 175.445312 316.679688 175.566406 316.441406 175.695312 C 309.804688 163.894531 303.101562 152.128906 295.992188 140.605469 C 297.757812 138.609375 294.914062 136.539062 293.238281 138.457031 C 290.378906 141.09375 297.019531 147.953125 298.332031 150.941406 C 302.140625 157.0625 305.746094 163.304688 309.214844 169.625 C 310.628906 172.191406 312.058594 174.746094 313.480469 177.3125 C 299.359375 185.097656 285.351562 193.078125 271.265625 200.9375 C 265.664062 203.988281 260.097656 207.105469 254.515625 210.1875 C 249.765625 201.210938 244.984375 192.246094 240.164062 183.308594 C 235.902344 175.046875 230.925781 167.097656 228.082031 158.242188 C 227.558594 156.085938 224.3125 156.882812 224.800781 159.023438 C 225.222656 160.410156 225.839844 161.71875 226.363281 163.058594 C 225.515625 164.855469 227.679688 166.824219 228.304688 168.503906 C 231.128906 173.527344 233.855469 178.582031 236.570312 183.660156 C 237.742188 185.894531 238.898438 188.136719 239.914062 190.433594 C 243.339844 197.796875 246.648438 205.230469 249.96875 212.660156 C 243.734375 216.070312 237.46875 219.441406 231.085938 222.578125 C 229.503906 223.679688 225.351562 223.929688 226.078125 226.550781 C 226.5 227.320312 227.0625 227.59375 227.695312 227.59375 C 228.785156 227.59375 230.09375 226.746094 231.257812 226.148438 C 230.652344 226.601562 230.007812 227.011719 229.417969 227.476562 C 228.699219 228.054688 228.484375 229.066406 229.042969 229.839844 C 229.359375 230.285156 229.90625 230.53125 230.453125 230.53125 C 230.789062 230.53125 231.128906 230.429688 231.40625 230.214844 C 233.511719 228.527344 235.746094 227.003906 237.972656 225.488281 C 242.503906 222.441406 247.152344 219.570312 251.828125 216.746094 C 255.183594 224.253906 258.546875 231.753906 262.050781 239.1875 C 262.050781 239.1875 262.050781 239.1875 262.050781 239.199219 C 265.769531 247.136719 269.507812 255.074219 273.355469 262.960938 C 272.550781 263.472656 271.734375 263.941406 270.929688 264.449219 C 267.0625 266.792969 262.949219 269.464844 258.933594 271.828125 C 256.835938 273.089844 254.738281 274.375 252.625 275.621094 C 251.835938 276.078125 251.5 277.078125 251.949219 277.910156 C 252.253906 278.457031 252.863281 278.792969 253.464844 278.792969 C 253.734375 278.792969 254 278.730469 254.242188 278.59375 C 256.449219 277.292969 258.632812 275.949219 260.820312 274.636719 C 265.527344 271.804688 270.195312 268.882812 274.863281 265.949219 C 275.261719 266.75 275.667969 267.53125 276.070312 268.320312 C 270.734375 271.617188 265.433594 274.988281 260.21875 278.601562 C 258.753906 280.085938 251.339844 283.585938 253.257812 285.820312 C 253.574219 286.265625 254.113281 286.515625 254.660156 286.515625 C 255.003906 286.515625 255.339844 286.410156 255.621094 286.191406 C 262.609375 280.761719 270.066406 275.976562 277.601562 271.339844 C 279.089844 274.246094 280.480469 277.214844 282.046875 280.078125 C 288.21875 291.644531 295.394531 302.648438 301.707031 314.136719 C 302.058594 314.753906 302.585938 315.003906 303.117188 315.003906 C 304.25 315.003906 305.371094 313.820312 304.683594 312.519531 C 301.027344 305.722656 296.917969 299.1875 293.015625 292.550781 C 288.511719 285.066406 284.417969 277.359375 280.460938 269.585938 C 281.058594 269.21875 281.644531 268.859375 282.242188 268.492188 C 289.308594 281.144531 296.457031 293.742188 303.804688 306.242188 C 304.109375 306.800781 304.703125 307.117188 305.308594 307.117188 C 305.578125 307.117188 305.847656 307.058594 306.097656 306.914062 C 308.402344 305.199219 305.265625 302.597656 304.574219 300.6875 C 298.160156 289.339844 291.429688 278.148438 284.984375 266.8125 C 285.007812 266.796875 285.027344 266.785156 285.050781 266.769531 C 304.632812 254.710938 324.523438 243.160156 344.246094 231.34375 C 351.628906 243.804688 359.160156 256.183594 367.117188 268.308594 C 367.484375 268.917969 368.007812 269.175781 368.539062 269.175781 C 369.292969 269.175781 369.992188 268.628906 370.207031 267.90625 C 370.808594 268.933594 371.390625 269.980469 372.003906 271.007812 C 372.355469 271.625 372.878906 271.882812 373.402344 271.882812 C 374.542969 271.882812 375.660156 270.671875 374.976562 269.398438 Z M 256.554688 214.015625 C 271.351562 205.410156 286.617188 197.648438 301.679688 189.523438 C 306.464844 186.972656 311.246094 184.429688 316.03125 181.886719 C 323.875 196.039062 331.796875 210.125 339.945312 224.085938 C 337.636719 225.332031 335.316406 226.539062 333.019531 227.800781 C 315.183594 237.597656 297.691406 247.898438 280.425781 258.652344 C 272.328125 243.855469 264.433594 228.945312 256.554688 214.023438 Z M 276.222656 261.222656 C 271.890625 252.375 267.746094 243.4375 263.601562 234.496094 C 268.257812 243.128906 272.960938 251.726562 277.710938 260.3125 C 277.214844 260.621094 276.710938 260.914062 276.222656 261.222656 Z M 278.953125 266.597656 C 278.550781 265.800781 278.132812 265.007812 277.738281 264.207031 C 278.269531 263.875 278.792969 263.550781 279.324219 263.222656 C 279.765625 264.003906 280.195312 264.792969 280.632812 265.578125 C 280.074219 265.914062 279.511719 266.257812 278.953125 266.605469 Z M 291.097656 259.191406 C 288.5 260.777344 285.921875 262.351562 283.328125 263.925781 C 283.066406 263.464844 282.796875 263.011719 282.535156 262.554688 C 282.351562 262.222656 282.175781 261.886719 281.992188 261.546875 C 285.28125 259.484375 288.5625 257.417969 291.867188 255.398438 C 308.179688 245.457031 324.84375 236.070312 341.675781 227.003906 C 341.949219 227.464844 342.222656 227.921875 342.492188 228.390625 C 325.347656 238.640625 308.121094 248.78125 291.089844 259.191406 Z M 342.890625 222.507812 C 334.808594 208.507812 326.929688 194.394531 319.042969 180.285156 C 319.269531 180.164062 319.507812 180.035156 319.738281 179.910156 C 327.667969 193.996094 335.675781 208.035156 343.714844 222.0625 C 343.441406 222.207031 343.167969 222.355469 342.890625 222.507812 Z M 345.339844 226.695312 C 345.09375 226.269531 344.84375 225.855469 344.605469 225.4375 C 344.878906 225.292969 345.144531 225.144531 345.417969 225 C 345.65625 225.410156 345.890625 225.820312 346.128906 226.226562 C 345.871094 226.386719 345.605469 226.542969 345.34375 226.695312 Z M 366.019531 214.144531 C 365.148438 214.707031 364.292969 215.253906 363.398438 215.828125 C 363.398438 215.828125 363.382812 215.828125 363.375 215.839844 C 363.375 215.839844 363.332031 215.863281 363.3125 215.878906 C 358.554688 218.816406 353.714844 221.644531 348.914062 224.539062 C 348.707031 224.175781 348.5 223.800781 348.289062 223.433594 C 354.179688 220.300781 360.09375 217.214844 366.011719 214.152344 Z M 352.5 238.949219 C 350.648438 235.890625 348.902344 232.773438 347.089844 229.691406 C 347.351562 229.539062 347.601562 229.382812 347.851562 229.222656 C 353.003906 238.179688 358.152344 247.136719 363.359375 256.058594 C 359.726562 250.371094 356.070312 244.675781 352.5 238.949219 Z M 352.5 238.949219 " fill-opacity="1" fill-rule="nonzero"/></g><g transform="matrix(1, 0, 0, 1, 50, 177)"><g clip-path="url(#5d766673a4)"><g fill="#f29b10" fill-opacity="1"><g transform="translate(0.670871, 67.725654)"><g><path d="M 28.046875 -42.71875 C 28.410156 -44.21875 29.046875 -45.351562 29.953125 -46.125 C 30.859375 -46.894531 31.816406 -47.28125 32.828125 -47.28125 C 33.773438 -47.28125 34.691406 -46.9375 35.578125 -46.25 C 36.472656 -45.570312 37.125 -44.507812 37.53125 -43.0625 C 37.53125 -39.832031 37.710938 -36.519531 38.078125 -33.125 C 38.441406 -29.738281 38.625 -25.953125 38.625 -21.765625 C 38.625 -18.992188 38.507812 -16.21875 38.28125 -13.4375 C 38.050781 -10.664062 37.890625 -7.867188 37.796875 -5.046875 C 37.753906 -3.273438 37.242188 -1.945312 36.265625 -1.0625 C 35.285156 -0.175781 34.226562 0.265625 33.09375 0.265625 C 32 0.265625 30.984375 -0.140625 30.046875 -0.953125 C 29.117188 -1.773438 28.539062 -3.023438 28.3125 -4.703125 C 28.40625 -6.847656 28.585938 -8.75 28.859375 -10.40625 C 29.128906 -12.0625 29.265625 -13.894531 29.265625 -15.90625 C 29.265625 -16.40625 29.117188 -16.707031 28.828125 -16.8125 C 28.535156 -16.925781 27.890625 -17.050781 26.890625 -17.1875 C 25.160156 -17.28125 23.382812 -17.484375 21.5625 -17.796875 C 19.738281 -18.117188 17.960938 -18.28125 16.234375 -18.28125 C 15.921875 -18.28125 15.679688 -18.175781 15.515625 -17.96875 C 15.359375 -17.769531 15.28125 -17.304688 15.28125 -16.578125 C 15.1875 -14.617188 15.128906 -12.820312 15.109375 -11.1875 C 15.085938 -9.550781 15.03125 -7.664062 14.9375 -5.53125 C 14.894531 -3.75 14.375 -2.414062 13.375 -1.53125 C 12.375 -0.644531 11.328125 -0.203125 10.234375 -0.203125 C 9.140625 -0.203125 8.125 -0.609375 7.1875 -1.421875 C 6.257812 -2.242188 5.679688 -3.5 5.453125 -5.1875 C 5.546875 -9.78125 5.679688 -14.007812 5.859375 -17.875 C 6.046875 -21.738281 6.226562 -25.613281 6.40625 -29.5 C 6.59375 -33.394531 6.707031 -37.617188 6.75 -42.171875 C 7.113281 -43.671875 7.75 -44.804688 8.65625 -45.578125 C 9.570312 -46.347656 10.53125 -46.734375 11.53125 -46.734375 C 12.488281 -46.734375 13.410156 -46.390625 14.296875 -45.703125 C 15.179688 -45.023438 15.828125 -43.960938 16.234375 -42.515625 C 16.191406 -39.867188 16.101562 -37.519531 15.96875 -35.46875 C 15.832031 -33.425781 15.765625 -31.132812 15.765625 -28.59375 C 15.765625 -28.132812 15.898438 -27.894531 16.171875 -27.875 C 16.441406 -27.851562 17.101562 -27.796875 18.15625 -27.703125 C 19.5625 -27.566406 20.988281 -27.375 22.4375 -27.125 C 23.894531 -26.875 25.332031 -26.75 26.75 -26.75 C 27.0625 -26.75 27.363281 -26.882812 27.65625 -27.15625 C 27.957031 -27.425781 28.222656 -28.0625 28.453125 -29.0625 C 28.273438 -30.613281 28.148438 -32.015625 28.078125 -33.265625 C 28.003906 -34.515625 27.96875 -35.773438 27.96875 -37.046875 C 27.96875 -37.910156 27.976562 -38.796875 28 -39.703125 C 28.03125 -40.617188 28.046875 -41.625 28.046875 -42.71875 Z M 28.046875 -42.71875 "/></g></g></g><g fill="#f29b10" fill-opacity="1"><g transform="translate(44.748838, 67.725654)"><g><path d="M 8.59375 2.53125 C 6.550781 2.382812 4.945312 1.765625 3.78125 0.671875 C 2.625 -0.410156 2.046875 -1.75 2.046875 -3.34375 C 2.046875 -4.300781 2.25 -5.28125 2.65625 -6.28125 C 3.84375 -9.050781 5.4375 -11.445312 7.4375 -13.46875 C 9.4375 -15.5 11.984375 -16.851562 15.078125 -17.53125 C 15.984375 -17.757812 16.859375 -18 17.703125 -18.25 C 18.546875 -18.5 19.351562 -18.988281 20.125 -19.71875 C 21.539062 -21.039062 22.953125 -21.703125 24.359375 -21.703125 C 25.398438 -21.703125 26.363281 -21.300781 27.25 -20.5 C 28.144531 -19.707031 28.75 -18.515625 29.0625 -16.921875 C 29.289062 -15.785156 29.597656 -14.726562 29.984375 -13.75 C 30.367188 -12.769531 31.085938 -11.941406 32.140625 -11.265625 C 32.679688 -10.898438 33.15625 -10.476562 33.5625 -10 C 33.976562 -9.519531 34.1875 -8.960938 34.1875 -8.328125 C 34.1875 -7.191406 33.832031 -6.300781 33.125 -5.65625 C 32.414062 -5.019531 31.570312 -4.578125 30.59375 -4.328125 C 29.625 -4.078125 28.726562 -3.953125 27.90625 -3.953125 C 27.039062 -3.953125 26.195312 -4.054688 25.375 -4.265625 C 24.5625 -4.472656 23.769531 -4.867188 23 -5.453125 C 22.175781 -6.085938 21.398438 -6.40625 20.671875 -6.40625 C 19.578125 -6.40625 18.625 -5.679688 17.8125 -4.234375 C 17.21875 -3.179688 16.421875 -2.117188 15.421875 -1.046875 C 14.421875 0.015625 13.394531 0.894531 12.34375 1.59375 C 11.300781 2.300781 10.347656 2.65625 9.484375 2.65625 C 9.253906 2.65625 8.957031 2.613281 8.59375 2.53125 Z M 8.59375 2.53125 "/></g></g></g><g fill="#f29b10" fill-opacity="1"><g transform="translate(80.980108, 67.725654)"><g><path d="M 27.4375 -9.6875 C 27.476562 -9.507812 27.5 -9.335938 27.5 -9.171875 C 27.5 -9.015625 27.5 -8.847656 27.5 -8.671875 C 27.5 -7.304688 27 -6.117188 26 -5.109375 C 25 -4.109375 23.828125 -3.210938 22.484375 -2.421875 C 21.140625 -1.628906 19.988281 -0.820312 19.03125 0 C 18.71875 0.320312 18.34375 0.515625 17.90625 0.578125 C 17.476562 0.648438 17.082031 0.707031 16.71875 0.75 C 16.082031 0.75 15.457031 0.625 14.84375 0.375 C 14.226562 0.125 13.625 -0.179688 13.03125 -0.546875 C 10.257812 -2.367188 7.984375 -4.5625 6.203125 -7.125 C 4.429688 -9.695312 2.957031 -12.507812 1.78125 -15.5625 C 1.5 -16.195312 1.359375 -16.785156 1.359375 -17.328125 C 1.359375 -18.191406 1.742188 -18.894531 2.515625 -19.4375 C 3.296875 -19.988281 4.070312 -20.265625 4.84375 -20.265625 C 6.164062 -20.265625 7.300781 -19.820312 8.25 -18.9375 C 9.207031 -18.050781 10.035156 -17.023438 10.734375 -15.859375 C 11.441406 -14.703125 12.101562 -13.679688 12.71875 -12.796875 C 13.332031 -11.910156 13.984375 -11.46875 14.671875 -11.46875 C 15.535156 -11.46875 16.34375 -11.875 17.09375 -12.6875 C 17.84375 -13.507812 18.59375 -14.453125 19.34375 -15.515625 C 20.09375 -16.585938 20.851562 -17.53125 21.625 -18.34375 C 22.40625 -19.164062 23.25 -19.578125 24.15625 -19.578125 C 25.019531 -19.398438 25.675781 -18.84375 26.125 -17.90625 C 26.582031 -16.976562 26.914062 -16.035156 27.125 -15.078125 C 27.332031 -14.117188 27.4375 -13.503906 27.4375 -13.234375 C 27.4375 -12.785156 27.410156 -12.351562 27.359375 -11.9375 C 27.316406 -11.53125 27.296875 -11.144531 27.296875 -10.78125 C 27.296875 -10.601562 27.304688 -10.421875 27.328125 -10.234375 C 27.347656 -10.054688 27.382812 -9.875 27.4375 -9.6875 Z M 27.4375 -9.6875 "/></g></g></g><g fill="#f29b10" fill-opacity="1"><g transform="translate(111.206957, 67.725654)"><g><path d="M 29.6875 -10.375 C 30.050781 -9.78125 30.550781 -9.378906 31.1875 -9.171875 C 31.820312 -8.972656 32.523438 -8.847656 33.296875 -8.796875 C 34.066406 -8.753906 34.804688 -8.664062 35.515625 -8.53125 C 36.222656 -8.394531 36.800781 -8.085938 37.25 -7.609375 C 37.707031 -7.128906 37.9375 -6.367188 37.9375 -5.328125 C 37.9375 -3.960938 37.535156 -2.847656 36.734375 -1.984375 C 35.941406 -1.117188 34.941406 -0.46875 33.734375 -0.03125 C 32.535156 0.394531 31.265625 0.6875 29.921875 0.84375 C 28.578125 1.007812 27.359375 1.09375 26.265625 1.09375 C 24.585938 1.09375 22.953125 0.796875 21.359375 0.203125 C 19.765625 -0.390625 18.265625 -1.410156 16.859375 -2.859375 C 15.992188 -3.773438 15.148438 -4.445312 14.328125 -4.875 C 13.503906 -5.3125 12.617188 -5.53125 11.671875 -5.53125 C 10.984375 -5.53125 10.226562 -5.390625 9.40625 -5.109375 C 8.59375 -4.835938 7.800781 -4.703125 7.03125 -4.703125 C 6.03125 -4.703125 4.984375 -5.019531 3.890625 -5.65625 C 2.796875 -6.300781 1.875 -7.125 1.125 -8.125 C 0.375 -9.125 0 -10.144531 0 -11.1875 C 0 -12.6875 0.53125 -13.984375 1.59375 -15.078125 C 2.664062 -16.171875 3.863281 -16.71875 5.1875 -16.71875 C 5.457031 -16.71875 5.738281 -16.707031 6.03125 -16.6875 C 6.332031 -16.664062 6.597656 -16.65625 6.828125 -16.65625 C 8.367188 -16.65625 9.570312 -17.070312 10.4375 -17.90625 C 11.300781 -18.75 12.164062 -19.832031 13.03125 -21.15625 C 13.800781 -22.65625 14.898438 -23.945312 16.328125 -25.03125 C 17.765625 -26.125 19.367188 -26.96875 21.140625 -27.5625 C 22.921875 -28.15625 24.65625 -28.453125 26.34375 -28.453125 C 28.34375 -28.453125 29.910156 -27.914062 31.046875 -26.84375 C 32.179688 -25.78125 32.988281 -24.460938 33.46875 -22.890625 C 33.945312 -21.316406 34.1875 -19.804688 34.1875 -18.359375 C 34.1875 -17.578125 34.0625 -16.800781 33.8125 -16.03125 C 33.5625 -15.257812 33.09375 -14.488281 32.40625 -13.71875 C 31.957031 -13.21875 31.390625 -12.785156 30.703125 -12.421875 C 30.023438 -12.054688 29.6875 -11.375 29.6875 -10.375 Z M 29.6875 -10.375 "/></g></g></g><g fill="#f29b10" fill-opacity="1"><g transform="translate(151.191003, 67.725654)"><g/></g></g><g fill="#f29b10" fill-opacity="1"><g transform="translate(171.660645, 67.725654)"><g><path d="M 8.59375 2.53125 C 6.550781 2.382812 4.945312 1.765625 3.78125 0.671875 C 2.625 -0.410156 2.046875 -1.75 2.046875 -3.34375 C 2.046875 -4.300781 2.25 -5.28125 2.65625 -6.28125 C 3.84375 -9.050781 5.4375 -11.445312 7.4375 -13.46875 C 9.4375 -15.5 11.984375 -16.851562 15.078125 -17.53125 C 15.984375 -17.757812 16.859375 -18 17.703125 -18.25 C 18.546875 -18.5 19.351562 -18.988281 20.125 -19.71875 C 21.539062 -21.039062 22.953125 -21.703125 24.359375 -21.703125 C 25.398438 -21.703125 26.363281 -21.300781 27.25 -20.5 C 28.144531 -19.707031 28.75 -18.515625 29.0625 -16.921875 C 29.289062 -15.785156 29.597656 -14.726562 29.984375 -13.75 C 30.367188 -12.769531 31.085938 -11.941406 32.140625 -11.265625 C 32.679688 -10.898438 33.15625 -10.476562 33.5625 -10 C 33.976562 -9.519531 34.1875 -8.960938 34.1875 -8.328125 C 34.1875 -7.191406 33.832031 -6.300781 33.125 -5.65625 C 32.414062 -5.019531 31.570312 -4.578125 30.59375 -4.328125 C 29.625 -4.078125 28.726562 -3.953125 27.90625 -3.953125 C 27.039062 -3.953125 26.195312 -4.054688 25.375 -4.265625 C 24.5625 -4.472656 23.769531 -4.867188 23 -5.453125 C 22.175781 -6.085938 21.398438 -6.40625 20.671875 -6.40625 C 19.578125 -6.40625 18.625 -5.679688 17.8125 -4.234375 C 17.21875 -3.179688 16.421875 -2.117188 15.421875 -1.046875 C 14.421875 0.015625 13.394531 0.894531 12.34375 1.59375 C 11.300781 2.300781 10.347656 2.65625 9.484375 2.65625 C 9.253906 2.65625 8.957031 2.613281 8.59375 2.53125 Z M 8.59375 2.53125 "/></g></g></g><g fill="#f29b10" fill-opacity="1"><g transform="translate(207.891915, 67.725654)"><g/></g></g><g fill="#f29b10" fill-opacity="1"><g transform="translate(228.361546, 67.725654)"><g><path d="M 25.171875 -22.515625 C 25.671875 -22.703125 26.191406 -22.816406 26.734375 -22.859375 C 27.285156 -22.898438 27.859375 -22.921875 28.453125 -22.921875 C 29.910156 -22.921875 31.421875 -22.773438 32.984375 -22.484375 C 34.554688 -22.191406 36.140625 -21.929688 37.734375 -21.703125 C 38.734375 -21.566406 39.628906 -21.316406 40.421875 -20.953125 C 41.222656 -20.585938 41.625 -19.742188 41.625 -18.421875 C 41.625 -17.597656 41.203125 -16.914062 40.359375 -16.375 C 39.515625 -15.832031 38.582031 -15.421875 37.5625 -15.140625 C 36.539062 -14.867188 35.734375 -14.734375 35.140625 -14.734375 C 34.734375 -14.734375 34.3125 -14.753906 33.875 -14.796875 C 33.445312 -14.847656 33.023438 -14.875 32.609375 -14.875 C 30.929688 -14.875 29.304688 -14.691406 27.734375 -14.328125 C 26.171875 -13.960938 24.59375 -13.757812 23 -13.71875 C 21.40625 -13.53125 20.359375 -12.992188 19.859375 -12.109375 C 19.359375 -11.222656 19.109375 -10.03125 19.109375 -8.53125 C 19.109375 -7.113281 19.300781 -5.78125 19.6875 -4.53125 C 20.070312 -3.28125 20.265625 -2 20.265625 -0.6875 C 20.265625 0.269531 20.023438 1.222656 19.546875 2.171875 C 19.066406 3.128906 18.414062 3.925781 17.59375 4.5625 C 16.78125 5.207031 15.828125 5.53125 14.734375 5.53125 C 13.640625 5.53125 12.765625 5.109375 12.109375 4.265625 C 11.453125 3.421875 10.953125 2.394531 10.609375 1.1875 C 10.265625 -0.0078125 10.035156 -1.195312 9.921875 -2.375 C 9.804688 -3.5625 9.75 -4.519531 9.75 -5.25 C 9.75 -6.019531 9.796875 -6.769531 9.890625 -7.5 C 9.984375 -8.226562 10.03125 -8.957031 10.03125 -9.6875 C 10.03125 -11.144531 9.78125 -12.28125 9.28125 -13.09375 C 8.78125 -13.914062 8.265625 -14.609375 7.734375 -15.171875 C 7.210938 -15.742188 6.953125 -16.375 6.953125 -17.0625 C 6.953125 -17.875 7.164062 -18.703125 7.59375 -19.546875 C 8.03125 -20.390625 8.460938 -21.320312 8.890625 -22.34375 C 9.328125 -23.363281 9.546875 -24.515625 9.546875 -25.796875 C 9.546875 -26.835938 9.421875 -27.8125 9.171875 -28.71875 C 8.921875 -29.632812 8.207031 -30.390625 7.03125 -30.984375 C 5.070312 -31.984375 4.09375 -33.207031 4.09375 -34.65625 C 4.09375 -35.019531 4.160156 -35.460938 4.296875 -35.984375 C 4.429688 -36.515625 4.660156 -37.03125 4.984375 -37.53125 C 5.890625 -38.9375 6.71875 -40.3125 7.46875 -41.65625 C 8.21875 -43 8.617188 -44.582031 8.671875 -46.40625 C 8.753906 -47.445312 9.132812 -48.316406 9.8125 -49.015625 C 10.5 -49.722656 11.34375 -50.078125 12.34375 -50.078125 C 13.03125 -50.078125 13.757812 -49.941406 14.53125 -49.671875 C 15.300781 -49.398438 16.03125 -49.265625 16.71875 -49.265625 C 19.21875 -49.265625 21.671875 -49.570312 24.078125 -50.1875 C 26.492188 -50.800781 28.941406 -51.414062 31.421875 -52.03125 C 33.898438 -52.644531 36.4375 -52.953125 39.03125 -52.953125 C 40.257812 -52.953125 41.613281 -52.710938 43.09375 -52.234375 C 44.570312 -51.753906 45.84375 -51.128906 46.90625 -50.359375 C 47.976562 -49.585938 48.515625 -48.722656 48.515625 -47.765625 C 48.515625 -46.710938 48.226562 -45.867188 47.65625 -45.234375 C 47.09375 -44.597656 46.421875 -44.144531 45.640625 -43.875 C 44.867188 -43.601562 44.117188 -43.46875 43.390625 -43.46875 C 43.117188 -43.46875 42.847656 -43.476562 42.578125 -43.5 C 42.304688 -43.519531 42.035156 -43.578125 41.765625 -43.671875 C 40.710938 -44.035156 39.675781 -44.296875 38.65625 -44.453125 C 37.632812 -44.609375 36.625 -44.6875 35.625 -44.6875 C 34.84375 -44.6875 33.78125 -44.628906 32.4375 -44.515625 C 31.101562 -44.410156 29.695312 -44.207031 28.21875 -43.90625 C 26.738281 -43.613281 25.328125 -43.21875 23.984375 -42.71875 C 22.640625 -42.21875 21.546875 -41.59375 20.703125 -40.84375 C 19.867188 -40.09375 19.453125 -39.191406 19.453125 -38.140625 C 19.453125 -37.640625 19.503906 -36.957031 19.609375 -36.09375 C 19.722656 -35.226562 19.78125 -34.410156 19.78125 -33.640625 C 19.78125 -32.679688 19.664062 -31.664062 19.4375 -30.59375 C 19.21875 -29.53125 18.992188 -28.539062 18.765625 -27.625 C 18.535156 -26.71875 18.421875 -25.972656 18.421875 -25.390625 C 18.421875 -24.160156 18.921875 -23.375 19.921875 -23.03125 C 20.921875 -22.6875 22.671875 -22.515625 25.171875 -22.515625 Z M 25.171875 -22.515625 "/></g></g></g><g fill="#f29b10" fill-opacity="1"><g transform="translate(270.733564, 67.725654)"><g><path d="M 3.40625 -15.625 C 3.59375 -16.625 3.753906 -17.703125 3.890625 -18.859375 C 4.023438 -20.023438 4.25 -21.128906 4.5625 -22.171875 C 4.882812 -23.222656 5.351562 -24.078125 5.96875 -24.734375 C 6.582031 -25.390625 7.457031 -25.71875 8.59375 -25.71875 C 9.914062 -25.71875 11.144531 -25.148438 12.28125 -24.015625 C 13.414062 -22.878906 13.984375 -21.46875 13.984375 -19.78125 C 13.804688 -18.832031 13.546875 -17.84375 13.203125 -16.8125 C 12.859375 -15.789062 12.6875 -14.757812 12.6875 -13.71875 C 12.6875 -13.394531 12.800781 -13.0625 13.03125 -12.71875 C 13.257812 -12.382812 13.601562 -12.21875 14.0625 -12.21875 C 14.695312 -12.21875 15.273438 -12.613281 15.796875 -13.40625 C 16.316406 -14.207031 16.804688 -15.1875 17.265625 -16.34375 C 17.722656 -17.5 18.203125 -18.644531 18.703125 -19.78125 C 19.203125 -20.925781 19.789062 -21.894531 20.46875 -22.6875 C 21.15625 -23.476562 21.953125 -23.875 22.859375 -23.875 C 23.492188 -23.875 24.207031 -23.65625 25 -23.21875 C 25.800781 -22.789062 26.484375 -22.191406 27.046875 -21.421875 C 27.617188 -20.648438 27.90625 -19.742188 27.90625 -18.703125 C 27.90625 -18.335938 27.835938 -18.015625 27.703125 -17.734375 C 27.015625 -15.960938 26.21875 -14.097656 25.3125 -12.140625 C 24.40625 -10.191406 23.347656 -8.351562 22.140625 -6.625 C 20.929688 -4.894531 19.566406 -3.484375 18.046875 -2.390625 C 16.523438 -1.296875 14.804688 -0.75 12.890625 -0.75 C 10.660156 -0.75 8.84375 -1.328125 7.4375 -2.484375 C 6.03125 -3.648438 5.003906 -5.070312 4.359375 -6.75 C 3.722656 -8.4375 3.40625 -10.050781 3.40625 -11.59375 C 3.40625 -12.238281 3.4375 -12.898438 3.5 -13.578125 C 3.570312 -14.265625 3.632812 -14.945312 3.6875 -15.625 C 3.6875 -15.625 3.660156 -15.625 3.609375 -15.625 C 3.566406 -15.625 3.5 -15.625 3.40625 -15.625 Z M 3.40625 -15.625 "/></g></g></g><g fill="#f29b10" fill-opacity="1"><g transform="translate(298.640537, 67.725654)"><g><path d="M 20.203125 -14.0625 C 18.742188 -13.414062 17.582031 -12.398438 16.71875 -11.015625 C 15.851562 -9.628906 15.144531 -8.09375 14.59375 -6.40625 C 14.050781 -4.726562 13.503906 -3.113281 12.953125 -1.5625 C 12.410156 -0.0195312 11.71875 1.25 10.875 2.25 C 10.039062 3.25 8.914062 3.75 7.5 3.75 C 6.132812 3.75 5.054688 3.394531 4.265625 2.6875 C 3.472656 1.988281 2.90625 1.09375 2.5625 0 C 2.21875 -1.09375 2.046875 -2.273438 2.046875 -3.546875 C 2.046875 -5.097656 2.351562 -6.597656 2.96875 -8.046875 C 3.582031 -9.503906 4.457031 -10.765625 5.59375 -11.828125 C 6.726562 -12.898438 8.023438 -13.617188 9.484375 -13.984375 C 10.804688 -14.304688 11.941406 -14.882812 12.890625 -15.71875 C 13.847656 -16.5625 14.757812 -17.460938 15.625 -18.421875 C 16.488281 -19.378906 17.394531 -20.207031 18.34375 -20.90625 C 19.300781 -21.613281 20.441406 -21.96875 21.765625 -21.96875 C 23.085938 -21.96875 24.257812 -21.601562 25.28125 -20.875 C 26.300781 -20.144531 27.164062 -19.234375 27.875 -18.140625 C 28.582031 -17.054688 29.113281 -15.921875 29.46875 -14.734375 C 29.832031 -13.554688 30.015625 -12.488281 30.015625 -11.53125 C 30.015625 -9.988281 30.273438 -8.554688 30.796875 -7.234375 C 31.328125 -5.910156 32.546875 -4.953125 34.453125 -4.359375 C 35.085938 -4.179688 35.675781 -3.863281 36.21875 -3.40625 C 36.769531 -2.957031 37.046875 -2.367188 37.046875 -1.640625 C 37.046875 -0.546875 36.59375 0.363281 35.6875 1.09375 C 34.78125 1.820312 33.800781 2.1875 32.75 2.1875 C 30.65625 2.1875 28.914062 1.648438 27.53125 0.578125 C 26.144531 -0.492188 25.007812 -1.867188 24.125 -3.546875 C 23.238281 -5.234375 22.5 -7.007812 21.90625 -8.875 C 21.3125 -10.738281 20.742188 -12.46875 20.203125 -14.0625 Z M 20.203125 -14.0625 "/></g></g></g><g fill="#f29b10" fill-opacity="1"><g transform="translate(335.690594, 67.725654)"><g><path d="M 13.09375 -20.203125 C 13.1875 -22.429688 13.320312 -24.660156 13.5 -26.890625 C 13.6875 -29.117188 13.78125 -31.273438 13.78125 -33.359375 C 13.78125 -34.640625 13.617188 -35.515625 13.296875 -35.984375 C 12.984375 -36.460938 12.328125 -36.703125 11.328125 -36.703125 C 10.597656 -36.703125 9.753906 -36.632812 8.796875 -36.5 C 7.847656 -36.363281 6.914062 -36.296875 6 -36.296875 C 5.09375 -36.296875 4.171875 -36.398438 3.234375 -36.609375 C 2.304688 -36.816406 1.535156 -37.203125 0.921875 -37.765625 C 0.304688 -38.335938 0 -39.125 0 -40.125 C 0 -41.03125 0.363281 -41.789062 1.09375 -42.40625 C 1.820312 -43.019531 2.753906 -43.507812 3.890625 -43.875 C 5.023438 -44.238281 6.179688 -44.488281 7.359375 -44.625 C 8.546875 -44.757812 9.597656 -44.828125 10.515625 -44.828125 C 13.097656 -44.828125 15.664062 -44.625 18.21875 -44.21875 C 20.769531 -43.8125 23.304688 -43.398438 25.828125 -42.984375 C 28.347656 -42.578125 30.90625 -42.375 33.5 -42.375 C 33.863281 -42.375 34.238281 -42.375 34.625 -42.375 C 35.007812 -42.375 35.410156 -42.394531 35.828125 -42.4375 C 36.328125 -42.394531 36.925781 -42.179688 37.625 -41.796875 C 38.332031 -41.410156 38.96875 -40.921875 39.53125 -40.328125 C 40.101562 -39.734375 40.390625 -39.097656 40.390625 -38.421875 C 40.390625 -37.328125 40.023438 -36.539062 39.296875 -36.0625 C 38.578125 -35.582031 37.75 -35.285156 36.8125 -35.171875 C 35.875 -35.054688 35.085938 -35 34.453125 -35 C 33.222656 -35 31.972656 -35.03125 30.703125 -35.09375 C 29.429688 -35.164062 28.203125 -35.203125 27.015625 -35.203125 C 26.203125 -35.203125 25.625 -35.109375 25.28125 -34.921875 C 24.9375 -34.742188 24.707031 -34.394531 24.59375 -33.875 C 24.476562 -33.351562 24.332031 -32.546875 24.15625 -31.453125 C 23.65625 -28.128906 23.394531 -24.816406 23.375 -21.515625 C 23.351562 -18.222656 23.296875 -14.914062 23.203125 -11.59375 C 23.148438 -9.78125 23 -8.175781 22.75 -6.78125 C 22.5 -5.394531 22.054688 -4.300781 21.421875 -3.5 C 20.785156 -2.707031 19.804688 -2.3125 18.484375 -2.3125 C 16.617188 -2.3125 15.164062 -2.753906 14.125 -3.640625 C 13.082031 -4.535156 12.5625 -5.800781 12.5625 -7.4375 C 12.5625 -9.570312 12.648438 -11.707031 12.828125 -13.84375 C 13.003906 -15.988281 13.117188 -18.109375 13.171875 -20.203125 C 13.171875 -20.203125 13.15625 -20.203125 13.125 -20.203125 C 13.101562 -20.203125 13.09375 -20.203125 13.09375 -20.203125 Z M 13.09375 -20.203125 "/></g></g></g><g fill="#f29b10" fill-opacity="1"><g transform="translate(372.672274, 67.725654)"><g><path d="M 8.1875 -13.71875 C 9.320312 -13.625 10.332031 -13.15625 11.21875 -12.3125 C 12.113281 -11.46875 12.820312 -10.453125 13.34375 -9.265625 C 13.863281 -8.085938 14.125 -6.910156 14.125 -5.734375 C 14.125 -4.597656 13.65625 -3.457031 12.71875 -2.3125 C 11.789062 -1.175781 10.664062 -0.609375 9.34375 -0.609375 C 8.300781 -0.609375 7.320312 -1.03125 6.40625 -1.875 C 5.5 -2.71875 4.769531 -3.8125 4.21875 -5.15625 C 3.675781 -6.5 3.40625 -7.875 3.40625 -9.28125 C 3.40625 -11.050781 3.867188 -12.234375 4.796875 -12.828125 C 5.734375 -13.421875 6.863281 -13.71875 8.1875 -13.71875 Z M 13.4375 -32.40625 C 13.257812 -31 12.738281 -29.78125 11.875 -28.75 C 11.007812 -27.726562 10.007812 -27.21875 8.875 -27.21875 C 7.414062 -27.21875 6.148438 -27.71875 5.078125 -28.71875 C 4.015625 -29.726562 3.484375 -30.84375 3.484375 -32.0625 C 3.484375 -33.382812 3.957031 -34.554688 4.90625 -35.578125 C 5.863281 -36.609375 7.023438 -37.125 8.390625 -37.125 C 9.253906 -37.125 10.0625 -36.875 10.8125 -36.375 C 11.5625 -35.875 12.1875 -35.257812 12.6875 -34.53125 C 13.1875 -33.800781 13.4375 -33.09375 13.4375 -32.40625 Z M 13.4375 -32.40625 "/></g></g></g><g fill="#f29b10" fill-opacity="1"><g transform="translate(388.843289, 67.725654)"><g><path d="M 2.046875 -14.9375 C 2.273438 -17.082031 2.726562 -18.8125 3.40625 -20.125 C 4.09375 -21.445312 5.414062 -22.242188 7.375 -22.515625 C 8.28125 -22.609375 9.0625 -22.914062 9.71875 -23.4375 C 10.382812 -23.957031 11.078125 -24.445312 11.796875 -24.90625 C 12.710938 -25.675781 13.476562 -26.234375 14.09375 -26.578125 C 14.707031 -26.921875 15.3125 -27.09375 15.90625 -27.09375 C 16.445312 -27.09375 17.023438 -26.921875 17.640625 -26.578125 C 18.253906 -26.234375 18.992188 -25.722656 19.859375 -25.046875 C 20.585938 -24.492188 21.210938 -23.851562 21.734375 -23.125 C 22.253906 -22.40625 22.832031 -21.769531 23.46875 -21.21875 C 24.101562 -20.675781 24.921875 -20.40625 25.921875 -20.40625 C 26.785156 -20.40625 27.523438 -20.628906 28.140625 -21.078125 C 28.753906 -21.535156 29.332031 -22.082031 29.875 -22.71875 C 30.425781 -23.351562 31 -23.898438 31.59375 -24.359375 C 33.457031 -25.816406 35.207031 -26.882812 36.84375 -27.5625 C 38.476562 -28.25 39.9375 -28.59375 41.21875 -28.59375 C 43.082031 -28.59375 44.71875 -27.894531 46.125 -26.5 C 47.53125 -25.113281 48.914062 -23.015625 50.28125 -20.203125 C 51.0625 -18.609375 52.019531 -17.128906 53.15625 -15.765625 C 54.289062 -14.398438 55.300781 -13.078125 56.1875 -11.796875 C 57.070312 -10.523438 57.515625 -9.207031 57.515625 -7.84375 C 57.515625 -7.113281 57.320312 -6.347656 56.9375 -5.546875 C 56.550781 -4.753906 56.03125 -4.085938 55.375 -3.546875 C 54.71875 -3.003906 53.976562 -2.734375 53.15625 -2.734375 C 52.195312 -2.734375 51.207031 -3.1875 50.1875 -4.09375 C 49.164062 -5 48.15625 -6.125 47.15625 -7.46875 C 46.15625 -8.8125 45.195312 -10.140625 44.28125 -11.453125 C 43.375 -12.773438 42.546875 -13.890625 41.796875 -14.796875 C 41.046875 -15.710938 40.394531 -16.171875 39.84375 -16.171875 C 39.257812 -16.171875 38.460938 -15.703125 37.453125 -14.765625 C 36.453125 -13.835938 35.347656 -12.703125 34.140625 -11.359375 C 32.941406 -10.015625 31.773438 -8.726562 30.640625 -7.5 C 29.910156 -6.6875 29.09375 -6.28125 28.1875 -6.28125 C 27.539062 -6.28125 26.707031 -6.570312 25.6875 -7.15625 C 24.664062 -7.75 23.570312 -8.46875 22.40625 -9.3125 C 21.25 -10.15625 20.125 -11.007812 19.03125 -11.875 C 17.945312 -12.738281 17.023438 -13.460938 16.265625 -14.046875 C 15.515625 -14.640625 15.050781 -14.9375 14.875 -14.9375 C 14.28125 -14.9375 13.820312 -14.609375 13.5 -13.953125 C 13.1875 -13.296875 12.914062 -12.488281 12.6875 -11.53125 C 12.457031 -10.570312 12.171875 -9.613281 11.828125 -8.65625 C 11.492188 -7.707031 11.019531 -6.898438 10.40625 -6.234375 C 9.789062 -5.578125 8.9375 -5.25 7.84375 -5.25 C 6.476562 -5.25 5.429688 -5.625 4.703125 -6.375 C 3.972656 -7.125 3.4375 -8.046875 3.09375 -9.140625 C 2.757812 -10.234375 2.535156 -11.3125 2.421875 -12.375 C 2.304688 -13.445312 2.179688 -14.300781 2.046875 -14.9375 Z M 2.046875 -14.9375 "/></g></g></g><g fill="#f29b10" fill-opacity="1"><g transform="translate(448.40998, 67.725654)"><g><path d="M 29.6875 -10.375 C 30.050781 -9.78125 30.550781 -9.378906 31.1875 -9.171875 C 31.820312 -8.972656 32.523438 -8.847656 33.296875 -8.796875 C 34.066406 -8.753906 34.804688 -8.664062 35.515625 -8.53125 C 36.222656 -8.394531 36.800781 -8.085938 37.25 -7.609375 C 37.707031 -7.128906 37.9375 -6.367188 37.9375 -5.328125 C 37.9375 -3.960938 37.535156 -2.847656 36.734375 -1.984375 C 35.941406 -1.117188 34.941406 -0.46875 33.734375 -0.03125 C 32.535156 0.394531 31.265625 0.6875 29.921875 0.84375 C 28.578125 1.007812 27.359375 1.09375 26.265625 1.09375 C 24.585938 1.09375 22.953125 0.796875 21.359375 0.203125 C 19.765625 -0.390625 18.265625 -1.410156 16.859375 -2.859375 C 15.992188 -3.773438 15.148438 -4.445312 14.328125 -4.875 C 13.503906 -5.3125 12.617188 -5.53125 11.671875 -5.53125 C 10.984375 -5.53125 10.226562 -5.390625 9.40625 -5.109375 C 8.59375 -4.835938 7.800781 -4.703125 7.03125 -4.703125 C 6.03125 -4.703125 4.984375 -5.019531 3.890625 -5.65625 C 2.796875 -6.300781 1.875 -7.125 1.125 -8.125 C 0.375 -9.125 0 -10.144531 0 -11.1875 C 0 -12.6875 0.53125 -13.984375 1.59375 -15.078125 C 2.664062 -16.171875 3.863281 -16.71875 5.1875 -16.71875 C 5.457031 -16.71875 5.738281 -16.707031 6.03125 -16.6875 C 6.332031 -16.664062 6.597656 -16.65625 6.828125 -16.65625 C 8.367188 -16.65625 9.570312 -17.070312 10.4375 -17.90625 C 11.300781 -18.75 12.164062 -19.832031 13.03125 -21.15625 C 13.800781 -22.65625 14.898438 -23.945312 16.328125 -25.03125 C 17.765625 -26.125 19.367188 -26.96875 21.140625 -27.5625 C 22.921875 -28.15625 24.65625 -28.453125 26.34375 -28.453125 C 28.34375 -28.453125 29.910156 -27.914062 31.046875 -26.84375 C 32.179688 -25.78125 32.988281 -24.460938 33.46875 -22.890625 C 33.945312 -21.316406 34.1875 -19.804688 34.1875 -18.359375 C 34.1875 -17.578125 34.0625 -16.800781 33.8125 -16.03125 C 33.5625 -15.257812 33.09375 -14.488281 32.40625 -13.71875 C 31.957031 -13.21875 31.390625 -12.785156 30.703125 -12.421875 C 30.023438 -12.054688 29.6875 -11.375 29.6875 -10.375 Z M 29.6875 -10.375 "/></g></g></g></g></g><g fill="#fff7c9" fill-opacity="1"><g transform="translate(432.134566, 206.768773)"><g><path d="M 2.9375 -16.0625 L 13.21875 -3.859375 C 13.570312 -3.566406 13.898438 -3.226562 14.203125 -2.84375 C 14.515625 -2.457031 14.671875 -2 14.671875 -1.46875 C 14.671875 -0.988281 14.523438 -0.609375 14.234375 -0.328125 C 13.941406 -0.046875 13.601562 0.09375 13.21875 0.09375 C 12.9375 0.09375 12.65625 0 12.375 -0.1875 C 12.101562 -0.375 11.878906 -0.664062 11.703125 -1.0625 L 1.34375 -13.28125 C 1.0625 -13.519531 0.765625 -13.820312 0.453125 -14.1875 C 0.148438 -14.550781 0 -14.921875 0 -15.296875 C 0 -15.847656 0.144531 -16.273438 0.4375 -16.578125 C 0.726562 -16.890625 1.066406 -17.046875 1.453125 -17.046875 C 1.710938 -17.046875 1.972656 -16.960938 2.234375 -16.796875 C 2.503906 -16.640625 2.738281 -16.394531 2.9375 -16.0625 Z M 2.9375 -16.0625 "/></g></g></g><g fill="#fff7c9" fill-opacity="1"><g transform="translate(446.79955, 206.768773)"><g><path d="M 6.828125 -15.734375 C 7.367188 -15.710938 7.921875 -15.59375 8.484375 -15.375 C 9.054688 -15.164062 9.578125 -14.882812 10.046875 -14.53125 C 10.523438 -14.1875 10.910156 -13.773438 11.203125 -13.296875 C 11.503906 -12.816406 11.65625 -12.289062 11.65625 -11.71875 C 11.65625 -11.1875 11.53125 -10.648438 11.28125 -10.109375 C 11.03125 -9.578125 10.71875 -9.066406 10.34375 -8.578125 C 9.96875 -8.097656 9.597656 -7.660156 9.234375 -7.265625 C 8.960938 -6.992188 8.828125 -6.734375 8.828125 -6.484375 C 8.828125 -6.285156 8.945312 -6.039062 9.1875 -5.75 C 9.4375 -5.457031 9.738281 -5.140625 10.09375 -4.796875 C 10.445312 -4.460938 10.796875 -4.125 11.140625 -3.78125 C 11.492188 -3.4375 11.789062 -3.109375 12.03125 -2.796875 C 12.28125 -2.484375 12.40625 -2.203125 12.40625 -1.953125 C 12.40625 -1.628906 12.234375 -1.367188 11.890625 -1.171875 C 11.546875 -0.972656 11.101562 -0.8125 10.5625 -0.6875 C 10.03125 -0.5625 9.488281 -0.457031 8.9375 -0.375 C 8.382812 -0.300781 7.894531 -0.226562 7.46875 -0.15625 C 7.0625 -0.0820312 6.644531 -0.03125 6.21875 0 C 5.789062 0.03125 5.351562 0.101562 4.90625 0.21875 C 4.8125 0.238281 4.71875 0.257812 4.625 0.28125 C 4.539062 0.300781 4.453125 0.3125 4.359375 0.3125 C 4.285156 0.3125 4.140625 0.25 3.921875 0.125 C 3.710938 0 3.515625 -0.15625 3.328125 -0.34375 C 3.148438 -0.539062 3.0625 -0.734375 3.0625 -0.921875 C 3.0625 -1.171875 3.15625 -1.382812 3.34375 -1.5625 C 3.539062 -1.738281 3.785156 -1.882812 4.078125 -2 C 4.367188 -2.125 4.660156 -2.210938 4.953125 -2.265625 C 5.242188 -2.328125 5.488281 -2.359375 5.6875 -2.359375 C 5.832031 -2.359375 5.976562 -2.335938 6.125 -2.296875 C 6.28125 -2.265625 6.4375 -2.25 6.59375 -2.25 C 6.894531 -2.25 7.191406 -2.328125 7.484375 -2.484375 C 7.785156 -2.648438 7.9375 -2.835938 7.9375 -3.046875 C 7.9375 -3.203125 7.859375 -3.367188 7.703125 -3.546875 C 7.546875 -3.722656 7.359375 -3.894531 7.140625 -4.0625 C 6.929688 -4.226562 6.738281 -4.363281 6.5625 -4.46875 C 6.382812 -4.570312 6.269531 -4.625 6.21875 -4.625 C 6.050781 -4.625 5.910156 -4.539062 5.796875 -4.375 C 5.679688 -4.207031 5.5625 -4.015625 5.4375 -3.796875 C 5.3125 -3.585938 5.160156 -3.394531 4.984375 -3.21875 C 4.804688 -3.050781 4.578125 -2.96875 4.296875 -2.96875 C 3.753906 -2.96875 3.332031 -3.148438 3.03125 -3.515625 C 2.738281 -3.890625 2.53125 -4.375 2.40625 -4.96875 C 2.28125 -5.570312 2.195312 -6.226562 2.15625 -6.9375 C 2.125 -7.65625 2.085938 -8.367188 2.046875 -9.078125 C 2.003906 -9.785156 1.910156 -10.410156 1.765625 -10.953125 C 1.660156 -11.347656 1.5625 -11.785156 1.46875 -12.265625 C 1.375 -12.753906 1.328125 -13.128906 1.328125 -13.390625 C 1.328125 -13.847656 1.515625 -14.222656 1.890625 -14.515625 C 2.273438 -14.804688 2.753906 -15.035156 3.328125 -15.203125 C 3.910156 -15.378906 4.515625 -15.503906 5.140625 -15.578125 C 5.765625 -15.660156 6.328125 -15.710938 6.828125 -15.734375 Z M 8.59375 -11.515625 C 8.59375 -11.566406 8.59375 -11.613281 8.59375 -11.65625 C 8.59375 -11.695312 8.59375 -11.734375 8.59375 -11.765625 C 8.59375 -12.347656 8.394531 -12.75 8 -12.96875 C 7.601562 -13.195312 7.082031 -13.3125 6.4375 -13.3125 C 5.914062 -13.3125 5.472656 -13.222656 5.109375 -13.046875 C 4.742188 -12.878906 4.5625 -12.664062 4.5625 -12.40625 C 4.71875 -12.050781 4.828125 -11.613281 4.890625 -11.09375 C 4.953125 -10.582031 5.003906 -10.070312 5.046875 -9.5625 C 5.085938 -9.0625 5.15625 -8.640625 5.25 -8.296875 C 5.34375 -7.953125 5.507812 -7.78125 5.75 -7.78125 C 5.863281 -7.78125 6.007812 -7.820312 6.1875 -7.90625 C 6.851562 -8.332031 7.363281 -8.859375 7.71875 -9.484375 C 8.082031 -10.117188 8.375 -10.796875 8.59375 -11.515625 Z M 8.59375 -11.515625 "/></g></g></g><g fill="#fff7c9" fill-opacity="1"><g transform="translate(459.636925, 206.768773)"><g><path d="M 2.078125 -5.484375 C 2.097656 -6.085938 2.132812 -6.742188 2.1875 -7.453125 C 2.238281 -8.171875 2.304688 -8.890625 2.390625 -9.609375 C 2.484375 -10.335938 2.578125 -11.019531 2.671875 -11.65625 C 2.753906 -12.039062 2.894531 -12.46875 3.09375 -12.9375 C 3.289062 -13.414062 3.539062 -13.832031 3.84375 -14.1875 C 4.15625 -14.539062 4.507812 -14.71875 4.90625 -14.71875 C 5.175781 -14.71875 5.421875 -14.59375 5.640625 -14.34375 C 5.859375 -14.09375 6.03125 -13.789062 6.15625 -13.4375 C 6.289062 -13.082031 6.359375 -12.742188 6.359375 -12.421875 C 6.359375 -12.273438 6.335938 -12.125 6.296875 -11.96875 C 6.253906 -11.820312 6.195312 -11.660156 6.125 -11.484375 C 5.832031 -10.835938 5.585938 -10.117188 5.390625 -9.328125 C 5.203125 -8.546875 5.0625 -7.753906 4.96875 -6.953125 C 4.875 -6.148438 4.828125 -5.394531 4.828125 -4.6875 C 4.828125 -4.3125 4.84375 -3.925781 4.875 -3.53125 C 4.914062 -3.132812 4.9375 -2.742188 4.9375 -2.359375 C 4.9375 -2.109375 4.910156 -1.8125 4.859375 -1.46875 C 4.816406 -1.125 4.710938 -0.820312 4.546875 -0.5625 C 4.390625 -0.300781 4.140625 -0.171875 3.796875 -0.171875 C 3.390625 -0.171875 3.035156 -0.328125 2.734375 -0.640625 C 2.441406 -0.953125 2.207031 -1.316406 2.03125 -1.734375 C 1.851562 -2.148438 1.765625 -2.523438 1.765625 -2.859375 C 1.765625 -3.253906 1.800781 -3.675781 1.875 -4.125 C 1.957031 -4.570312 2.023438 -5.023438 2.078125 -5.484375 Z M 2.078125 -5.484375 "/></g></g></g><g fill="#fff7c9" fill-opacity="1"><g transform="translate(466.881344, 206.768773)"><g><path d="M 5.25 -1.015625 C 5.082031 -0.597656 4.851562 -0.289062 4.5625 -0.09375 C 4.28125 0.101562 3.992188 0.203125 3.703125 0.203125 C 3.335938 0.203125 3.003906 0.0625 2.703125 -0.21875 C 2.398438 -0.5 2.25 -0.878906 2.25 -1.359375 C 2.25 -1.753906 2.289062 -2.171875 2.375 -2.609375 C 2.46875 -3.054688 2.515625 -3.492188 2.515625 -3.921875 C 2.515625 -4.828125 2.453125 -5.679688 2.328125 -6.484375 C 2.203125 -7.285156 2.078125 -8.09375 1.953125 -8.90625 C 1.828125 -9.726562 1.765625 -10.613281 1.765625 -11.5625 C 1.765625 -11.882812 1.789062 -12.238281 1.84375 -12.625 C 1.90625 -13.019531 2.015625 -13.394531 2.171875 -13.75 C 2.328125 -14.113281 2.539062 -14.410156 2.8125 -14.640625 C 3.082031 -14.867188 3.421875 -14.984375 3.828125 -14.984375 C 4.296875 -14.984375 4.6875 -14.835938 5 -14.546875 C 5.320312 -14.265625 5.597656 -13.921875 5.828125 -13.515625 C 6.066406 -13.109375 6.289062 -12.726562 6.5 -12.375 C 6.976562 -11.570312 7.394531 -10.785156 7.75 -10.015625 C 8.101562 -9.253906 8.445312 -8.488281 8.78125 -7.71875 C 9.113281 -6.945312 9.484375 -6.148438 9.890625 -5.328125 C 9.960938 -5.171875 10.03125 -5.054688 10.09375 -4.984375 C 10.164062 -4.921875 10.207031 -4.890625 10.21875 -4.890625 C 10.257812 -4.890625 10.28125 -4.945312 10.28125 -5.0625 C 10.28125 -5.125 10.273438 -5.179688 10.265625 -5.234375 C 10.265625 -5.285156 10.265625 -5.335938 10.265625 -5.390625 C 10.085938 -6.773438 9.878906 -8.117188 9.640625 -9.421875 C 9.410156 -10.734375 9.242188 -12.144531 9.140625 -13.65625 C 9.253906 -14.144531 9.457031 -14.515625 9.75 -14.765625 C 10.050781 -15.015625 10.363281 -15.140625 10.6875 -15.140625 C 10.988281 -15.140625 11.28125 -15.023438 11.5625 -14.796875 C 11.851562 -14.578125 12.066406 -14.234375 12.203125 -13.765625 C 12.296875 -12.515625 12.46875 -11.273438 12.71875 -10.046875 C 12.976562 -8.816406 13.21875 -7.617188 13.4375 -6.453125 C 13.65625 -5.296875 13.765625 -4.203125 13.765625 -3.171875 C 13.765625 -2.191406 13.539062 -1.390625 13.09375 -0.765625 C 12.644531 -0.140625 11.96875 0.171875 11.0625 0.171875 C 10.570312 0.171875 10.113281 -0.015625 9.6875 -0.390625 C 9.269531 -0.765625 8.875 -1.257812 8.5 -1.875 C 8.132812 -2.488281 7.78125 -3.160156 7.4375 -3.890625 C 7.101562 -4.628906 6.78125 -5.363281 6.46875 -6.09375 C 6.15625 -6.832031 5.84375 -7.492188 5.53125 -8.078125 C 5.46875 -8.179688 5.40625 -8.28125 5.34375 -8.375 C 5.28125 -8.476562 5.234375 -8.53125 5.203125 -8.53125 C 5.140625 -8.53125 5.109375 -8.457031 5.109375 -8.3125 C 5.109375 -8.257812 5.113281 -8.203125 5.125 -8.140625 C 5.132812 -8.078125 5.144531 -8 5.15625 -7.90625 C 5.238281 -7.226562 5.320312 -6.582031 5.40625 -5.96875 C 5.5 -5.351562 5.546875 -4.664062 5.546875 -3.90625 C 5.546875 -3.414062 5.523438 -2.925781 5.484375 -2.4375 C 5.441406 -1.957031 5.363281 -1.484375 5.25 -1.015625 Z M 5.25 -1.015625 "/></g></g></g><g fill="#fff7c9" fill-opacity="1"><g transform="translate(481.744506, 206.768773)"><g><path d="M 8.765625 -13.21875 C 8.753906 -12.675781 8.597656 -12.253906 8.296875 -11.953125 C 8.003906 -11.648438 7.671875 -11.5 7.296875 -11.5 C 6.953125 -11.5 6.640625 -11.613281 6.359375 -11.84375 C 6.085938 -12.082031 5.882812 -12.359375 5.75 -12.671875 C 5.351562 -12.535156 5.054688 -12.296875 4.859375 -11.953125 C 4.671875 -11.609375 4.546875 -11.222656 4.484375 -10.796875 C 4.429688 -10.367188 4.40625 -9.976562 4.40625 -9.625 C 4.40625 -9.34375 4.414062 -8.941406 4.4375 -8.421875 C 4.457031 -7.898438 4.5 -7.335938 4.5625 -6.734375 C 4.632812 -6.140625 4.726562 -5.566406 4.84375 -5.015625 C 4.957031 -4.460938 5.101562 -4.015625 5.28125 -3.671875 C 5.457031 -3.328125 5.679688 -3.15625 5.953125 -3.15625 C 6.179688 -3.15625 6.347656 -3.296875 6.453125 -3.578125 C 6.554688 -3.867188 6.617188 -4.210938 6.640625 -4.609375 C 6.660156 -5.003906 6.675781 -5.382812 6.6875 -5.75 C 6.707031 -6.113281 6.75 -6.382812 6.8125 -6.5625 C 6.4375 -6.695312 6.15625 -6.898438 5.96875 -7.171875 C 5.78125 -7.441406 5.6875 -7.71875 5.6875 -8 C 5.6875 -8.332031 5.820312 -8.613281 6.09375 -8.84375 C 6.363281 -9.070312 6.707031 -9.242188 7.125 -9.359375 C 7.539062 -9.484375 7.972656 -9.546875 8.421875 -9.546875 C 9.148438 -9.546875 9.691406 -9.457031 10.046875 -9.28125 C 10.398438 -9.101562 10.628906 -8.890625 10.734375 -8.640625 C 10.847656 -8.398438 10.90625 -8.1875 10.90625 -8 C 10.90625 -7.71875 10.816406 -7.453125 10.640625 -7.203125 C 10.460938 -6.953125 10.207031 -6.75 9.875 -6.59375 C 9.875 -6.394531 9.875 -6.203125 9.875 -6.015625 C 9.882812 -5.835938 9.890625 -5.65625 9.890625 -5.46875 C 9.890625 -4.5 9.769531 -3.597656 9.53125 -2.765625 C 9.289062 -1.929688 8.878906 -1.265625 8.296875 -0.765625 C 7.710938 -0.265625 6.921875 -0.015625 5.921875 -0.015625 C 5.203125 -0.015625 4.585938 -0.195312 4.078125 -0.5625 C 3.566406 -0.925781 3.140625 -1.398438 2.796875 -1.984375 C 2.460938 -2.566406 2.195312 -3.210938 2 -3.921875 C 1.800781 -4.640625 1.648438 -5.359375 1.546875 -6.078125 C 1.453125 -6.796875 1.390625 -7.460938 1.359375 -8.078125 C 1.335938 -8.703125 1.328125 -9.203125 1.328125 -9.578125 C 1.328125 -10.328125 1.410156 -11.066406 1.578125 -11.796875 C 1.753906 -12.535156 2.035156 -13.207031 2.421875 -13.8125 C 2.804688 -14.425781 3.304688 -14.910156 3.921875 -15.265625 C 4.535156 -15.628906 5.273438 -15.8125 6.140625 -15.8125 C 6.773438 -15.8125 7.347656 -15.613281 7.859375 -15.21875 C 8.378906 -14.820312 8.679688 -14.15625 8.765625 -13.21875 Z M 8.765625 -13.21875 "/></g></g></g><g fill="#fff7c9" fill-opacity="1"><g transform="translate(493.084547, 206.768773)"><g><path d="M 1.109375 -8.5625 C 1.109375 -9.707031 1.289062 -10.757812 1.65625 -11.71875 C 2.03125 -12.6875 2.609375 -13.457031 3.390625 -14.03125 C 4.171875 -14.601562 5.175781 -14.890625 6.40625 -14.890625 C 7.394531 -14.890625 8.25 -14.640625 8.96875 -14.140625 C 9.695312 -13.640625 10.300781 -12.972656 10.78125 -12.140625 C 11.269531 -11.304688 11.632812 -10.363281 11.875 -9.3125 C 12.125 -8.269531 12.25 -7.207031 12.25 -6.125 C 12.25 -5.4375 12.140625 -4.726562 11.921875 -4 C 11.703125 -3.269531 11.367188 -2.59375 10.921875 -1.96875 C 10.484375 -1.34375 9.953125 -0.835938 9.328125 -0.453125 C 8.703125 -0.078125 7.976562 0.109375 7.15625 0.109375 C 6.363281 0.109375 5.644531 -0.078125 5 -0.453125 C 4.351562 -0.828125 3.785156 -1.328125 3.296875 -1.953125 C 2.816406 -2.578125 2.410156 -3.269531 2.078125 -4.03125 C 1.753906 -4.789062 1.507812 -5.5625 1.34375 -6.34375 C 1.1875 -7.132812 1.109375 -7.875 1.109375 -8.5625 Z M 7.03125 -3.109375 C 7.5 -3.109375 7.894531 -3.242188 8.21875 -3.515625 C 8.539062 -3.796875 8.785156 -4.164062 8.953125 -4.625 C 9.117188 -5.09375 9.203125 -5.585938 9.203125 -6.109375 C 9.203125 -6.453125 9.171875 -6.863281 9.109375 -7.34375 C 9.046875 -7.832031 8.9375 -8.332031 8.78125 -8.84375 C 8.632812 -9.363281 8.445312 -9.84375 8.21875 -10.28125 C 8 -10.726562 7.726562 -11.085938 7.40625 -11.359375 C 7.082031 -11.628906 6.710938 -11.765625 6.296875 -11.765625 C 5.546875 -11.765625 5 -11.46875 4.65625 -10.875 C 4.3125 -10.28125 4.140625 -9.570312 4.140625 -8.75 C 4.140625 -8.5 4.171875 -8.148438 4.234375 -7.703125 C 4.304688 -7.253906 4.410156 -6.765625 4.546875 -6.234375 C 4.691406 -5.703125 4.875 -5.195312 5.09375 -4.71875 C 5.3125 -4.25 5.582031 -3.863281 5.90625 -3.5625 C 6.226562 -3.257812 6.601562 -3.109375 7.03125 -3.109375 Z M 7.03125 -3.109375 "/></g></g></g><g fill="#fff7c9" fill-opacity="1"><g transform="translate(506.428368, 206.768773)"><g><path d="M 11.75 -16.0625 C 11.945312 -16.394531 12.175781 -16.640625 12.4375 -16.796875 C 12.695312 -16.960938 12.957031 -17.046875 13.21875 -17.046875 C 13.601562 -17.046875 13.941406 -16.890625 14.234375 -16.578125 C 14.523438 -16.273438 14.671875 -15.847656 14.671875 -15.296875 C 14.671875 -14.921875 14.519531 -14.550781 14.21875 -14.1875 C 13.914062 -13.820312 13.617188 -13.519531 13.328125 -13.28125 L 2.96875 -1.0625 C 2.789062 -0.664062 2.566406 -0.375 2.296875 -0.1875 C 2.023438 0 1.742188 0.09375 1.453125 0.09375 C 1.085938 0.09375 0.753906 -0.046875 0.453125 -0.328125 C 0.148438 -0.609375 0 -0.988281 0 -1.46875 C 0 -2 0.148438 -2.457031 0.453125 -2.84375 C 0.765625 -3.226562 1.097656 -3.566406 1.453125 -3.859375 Z M 11.75 -16.0625 "/></g></g></g></svg>